STARTFONT 2.1
COMMENT
COMMENT Converted from OpenType font "Q:\font stuff\winfont\times.ttf" by "otf2bdf 3.0".
COMMENT
FONT -FreeType-Times New Roman-Medium-R-Normal--16-160-72-72-P-79-ISO10646-1
SIZE 16 72 72
FONTBOUNDINGBOX 30 24 -9 -6
STARTPROPERTIES 19
FOUNDRY "FreeType"
FAMILY_NAME "Times New Roman"
WEIGHT_NAME "Medium"
SLANT "R"
SETWIDTH_NAME "Normal"
ADD_STYLE_NAME ""
PIXEL_SIZE 12
POINT_SIZE 160
RESOLUTION_X 72
RESOLUTION_Y 72
SPACING "P"
AVERAGE_WIDTH 79
CHARSET_REGISTRY "ISO10646"
CHARSET_ENCODING "1"
FONT_ASCENT 14
FONT_DESCENT 3
COPYRIGHT "© 2010 The Monotype Corporation. All Rights Reserved."
_OTF_FONTFILE "Q:\font stuff\winfont\times.ttf"
_OTF_PSNAME "TimesNewRomanPSMT"
ENDPROPERTIES
CHARS 2800
STARTCHAR 0020
ENCODING 32
SWIDTH 250 0
DWIDTH 4 0
BBX 0 0 0 0
BITMAP
ENDCHAR
STARTCHAR 0021
ENCODING 33
SWIDTH 312 0
DWIDTH 5 0
BBX 1 11 2 0
BITMAP
80
80
80
80
80
80
80
80
80
00
80
ENDCHAR
STARTCHAR 0022
ENCODING 34
SWIDTH 312 0
DWIDTH 5 0
BBX 3 4 1 7
BITMAP
A0
A0
A0
A0
ENDCHAR
STARTCHAR 0023
ENCODING 35
SWIDTH 500 0
DWIDTH 8 0
BBX 8 11 0 0
BITMAP
12
12
12
24
FF
24
24
FF
48
48
48
ENDCHAR
STARTCHAR 0024
ENCODING 36
SWIDTH 500 0
DWIDTH 8 0
BBX 6 13 1 -1
BITMAP
20
78
A4
A4
A0
60
30
28
24
A4
A4
78
20
ENDCHAR
STARTCHAR 0025
ENCODING 37
SWIDTH 812 0
DWIDTH 13 0
BBX 12 11 0 0
BITMAP
6040
9080
9080
9100
9200
6460
0490
0890
1090
2090
2060
ENDCHAR
STARTCHAR 0026
ENCODING 38
SWIDTH 750 0
DWIDTH 12 0
BBX 11 11 1 0
BITMAP
1C00
2200
2200
2600
1DC0
3880
4900
8500
8600
C620
79C0
ENDCHAR
STARTCHAR 0027
ENCODING 39
SWIDTH 187 0
DWIDTH 3 0
BBX 1 4 1 7
BITMAP
80
80
80
80
ENDCHAR
STARTCHAR 0028
ENCODING 40
SWIDTH 312 0
DWIDTH 5 0
BBX 4 14 1 -3
BITMAP
10
20
40
40
80
80
80
80
80
80
40
40
20
10
ENDCHAR
STARTCHAR 0029
ENCODING 41
SWIDTH 312 0
DWIDTH 5 0
BBX 4 14 0 -3
BITMAP
80
40
20
20
10
10
10
10
10
10
20
20
40
80
ENDCHAR
STARTCHAR 002A
ENCODING 42
SWIDTH 500 0
DWIDTH 8 0
BBX 7 6 1 5
BITMAP
10
D6
38
38
D6
10
ENDCHAR
STARTCHAR 002B
ENCODING 43
SWIDTH 562 0
DWIDTH 9 0
BBX 9 9 0 1
BITMAP
0800
0800
0800
0800
FF80
0800
0800
0800
0800
ENDCHAR
STARTCHAR 002C
ENCODING 44
SWIDTH 250 0
DWIDTH 4 0
BBX 2 3 1 -2
BITMAP
C0
40
80
ENDCHAR
STARTCHAR 002D
ENCODING 45
SWIDTH 375 0
DWIDTH 6 0
BBX 4 1 1 3
BITMAP
F0
ENDCHAR
STARTCHAR 002E
ENCODING 46
SWIDTH 250 0
DWIDTH 4 0
BBX 1 1 1 0
BITMAP
80
ENDCHAR
STARTCHAR 002F
ENCODING 47
SWIDTH 250 0
DWIDTH 4 0
BBX 4 11 0 0
BITMAP
10
10
20
20
20
40
40
40
40
80
80
ENDCHAR
STARTCHAR 0030
ENCODING 48
SWIDTH 500 0
DWIDTH 8 0
BBX 6 11 1 0
BITMAP
30
48
84
84
84
84
84
84
84
48
30
ENDCHAR
STARTCHAR 0031
ENCODING 49
SWIDTH 500 0
DWIDTH 8 0
BBX 4 11 2 0
BITMAP
20
E0
20
20
20
20
20
20
20
20
70
ENDCHAR
STARTCHAR 0032
ENCODING 50
SWIDTH 500 0
DWIDTH 8 0
BBX 6 11 1 0
BITMAP
70
88
04
04
04
08
10
20
40
84
FC
ENDCHAR
STARTCHAR 0033
ENCODING 51
SWIDTH 500 0
DWIDTH 8 0
BBX 6 11 1 0
BITMAP
78
84
04
08
10
38
04
04
04
08
F0
ENDCHAR
STARTCHAR 0034
ENCODING 52
SWIDTH 500 0
DWIDTH 8 0
BBX 7 11 0 0
BITMAP
04
0C
14
14
24
44
84
FE
04
04
04
ENDCHAR
STARTCHAR 0035
ENCODING 53
SWIDTH 500 0
DWIDTH 8 0
BBX 6 11 1 0
BITMAP
3C
40
40
F0
08
04
04
04
04
08
F0
ENDCHAR
STARTCHAR 0036
ENCODING 54
SWIDTH 500 0
DWIDTH 8 0
BBX 6 11 1 0
BITMAP
1C
20
40
40
B0
C8
84
84
84
48
30
ENDCHAR
STARTCHAR 0037
ENCODING 55
SWIDTH 500 0
DWIDTH 8 0
BBX 7 11 0 0
BITMAP
7E
82
02
04
04
04
08
08
08
10
10
ENDCHAR
STARTCHAR 0038
ENCODING 56
SWIDTH 500 0
DWIDTH 8 0
BBX 6 11 1 0
BITMAP
78
84
84
84
68
30
48
84
84
84
78
ENDCHAR
STARTCHAR 0039
ENCODING 57
SWIDTH 500 0
DWIDTH 8 0
BBX 6 11 1 0
BITMAP
70
48
84
84
84
4C
34
08
08
30
C0
ENDCHAR
STARTCHAR 003A
ENCODING 58
SWIDTH 187 0
DWIDTH 3 0
BBX 1 7 1 0
BITMAP
80
00
00
00
00
00
80
ENDCHAR
STARTCHAR 003B
ENCODING 59
SWIDTH 250 0
DWIDTH 4 0
BBX 2 9 1 -2
BITMAP
80
00
00
00
00
00
C0
40
80
ENDCHAR
STARTCHAR 003C
ENCODING 60
SWIDTH 562 0
DWIDTH 9 0
BBX 7 7 1 2
BITMAP
02
1C
60
80
60
1C
02
ENDCHAR
STARTCHAR 003D
ENCODING 61
SWIDTH 562 0
DWIDTH 9 0
BBX 9 4 0 3
BITMAP
FF80
0000
0000
FF80
ENDCHAR
STARTCHAR 003E
ENCODING 62
SWIDTH 562 0
DWIDTH 9 0
BBX 7 7 1 2
BITMAP
80
70
0C
02
0C
70
80
ENDCHAR
STARTCHAR 003F
ENCODING 63
SWIDTH 437 0
DWIDTH 7 0
BBX 5 11 1 0
BITMAP
70
88
88
08
10
10
20
20
20
00
20
ENDCHAR
STARTCHAR 0040
ENCODING 64
SWIDTH 937 0
DWIDTH 15 0
BBX 14 15 1 -4
BITMAP
07C0
1820
2010
4348
44C8
8888
8888
9188
9110
9330
9DC4
4008
2010
1020
0FC0
ENDCHAR
STARTCHAR 0041
ENCODING 65
SWIDTH 687 0
DWIDTH 11 0
BBX 11 11 0 0
BITMAP
0400
0400
0A00
0A00
0A00
1100
1100
1F00
2080
2080
F1E0
ENDCHAR
STARTCHAR 0042
ENCODING 66
SWIDTH 625 0
DWIDTH 10 0
BBX 9 11 0 0
BITMAP
FC00
2200
2100
2100
2200
3E00
2100
2080
2080
2100
FE00
ENDCHAR
STARTCHAR 0043
ENCODING 67
SWIDTH 687 0
DWIDTH 11 0
BBX 9 11 1 0
BITMAP
1E80
2180
4080
8080
8000
8000
8000
8000
4080
2100
1E00
ENDCHAR
STARTCHAR 0044
ENCODING 68
SWIDTH 687 0
DWIDTH 11 0
BBX 10 11 0 0
BITMAP
FE00
2100
2080
2040
2040
2040
2040
2040
2080
2100
FE00
ENDCHAR
STARTCHAR 0045
ENCODING 69
SWIDTH 562 0
DWIDTH 9 0
BBX 9 11 0 0
BITMAP
FF00
2100
2000
2000
2200
3E00
2200
2000
2080
2100
FF00
ENDCHAR
STARTCHAR 0046
ENCODING 70
SWIDTH 562 0
DWIDTH 9 0
BBX 8 11 0 0
BITMAP
FF
21
20
20
22
3E
22
20
20
20
F8
ENDCHAR
STARTCHAR 0047
ENCODING 71
SWIDTH 687 0
DWIDTH 11 0
BBX 10 11 1 0
BITMAP
1E80
2180
4080
8000
8000
83C0
8080
8080
4080
2080
1F00
ENDCHAR
STARTCHAR 0048
ENCODING 72
SWIDTH 687 0
DWIDTH 11 0
BBX 11 11 0 0
BITMAP
FBE0
2080
2080
2080
2080
3F80
2080
2080
2080
2080
FBE0
ENDCHAR
STARTCHAR 0049
ENCODING 73
SWIDTH 312 0
DWIDTH 5 0
BBX 5 11 0 0
BITMAP
F8
20
20
20
20
20
20
20
20
20
F8
ENDCHAR
STARTCHAR 004A
ENCODING 74
SWIDTH 375 0
DWIDTH 6 0
BBX 6 11 0 0
BITMAP
7C
10
10
10
10
10
10
10
10
90
E0
ENDCHAR
STARTCHAR 004B
ENCODING 75
SWIDTH 750 0
DWIDTH 12 0
BBX 11 11 0 0
BITMAP
FBC0
2080
2100
2200
2400
3800
2400
2200
2100
2080
F9E0
ENDCHAR
STARTCHAR 004C
ENCODING 76
SWIDTH 562 0
DWIDTH 9 0
BBX 9 11 0 0
BITMAP
F800
2000
2000
2000
2000
2000
2000
2000
2080
2100
FF00
ENDCHAR
STARTCHAR 004D
ENCODING 77
SWIDTH 875 0
DWIDTH 14 0
BBX 14 11 0 0
BITMAP
E01C
3030
3030
2850
2850
2450
2490
2490
2310
2110
F97C
ENDCHAR
STARTCHAR 004E
ENCODING 78
SWIDTH 750 0
DWIDTH 12 0
BBX 12 11 0 0
BITMAP
E1F0
2040
3040
2840
2440
2240
2240
2140
20C0
2040
F840
ENDCHAR
STARTCHAR 004F
ENCODING 79
SWIDTH 750 0
DWIDTH 12 0
BBX 10 11 1 0
BITMAP
1E00
2100
4080
8040
8040
8040
8040
8040
4080
2100
1E00
ENDCHAR
STARTCHAR 0050
ENCODING 80
SWIDTH 562 0
DWIDTH 9 0
BBX 8 11 0 0
BITMAP
FC
22
21
21
21
22
3C
20
20
20
F8
ENDCHAR
STARTCHAR 0051
ENCODING 81
SWIDTH 750 0
DWIDTH 12 0
BBX 10 14 1 -3
BITMAP
1E00
2100
4080
8040
8040
8040
8040
8040
4080
2100
1E00
0400
0300
00C0
ENDCHAR
STARTCHAR 0052
ENCODING 82
SWIDTH 625 0
DWIDTH 10 0
BBX 10 11 0 0
BITMAP
FC00
2200
2100
2100
2200
3C00
2400
2200
2200
2100
F8C0
ENDCHAR
STARTCHAR 0053
ENCODING 83
SWIDTH 562 0
DWIDTH 9 0
BBX 7 11 1 0
BITMAP
3A
46
82
80
60
18
04
02
82
C4
B8
ENDCHAR
STARTCHAR 0054
ENCODING 84
SWIDTH 562 0
DWIDTH 9 0
BBX 9 11 0 0
BITMAP
FF80
8880
8880
0800
0800
0800
0800
0800
0800
0800
3E00
ENDCHAR
STARTCHAR 0055
ENCODING 85
SWIDTH 687 0
DWIDTH 11 0
BBX 11 11 0 0
BITMAP
FBE0
2080
2080
2080
2080
2080
2080
2080
2080
1100
0E00
ENDCHAR
STARTCHAR 0056
ENCODING 86
SWIDTH 687 0
DWIDTH 11 0
BBX 11 11 0 0
BITMAP
F1E0
2080
2080
2080
1100
1100
1100
0A00
0A00
0A00
0400
ENDCHAR
STARTCHAR 0057
ENCODING 87
SWIDTH 937 0
DWIDTH 15 0
BBX 15 11 0 0
BITMAP
F79E
2108
2108
1108
1090
1190
0A90
0A50
0A50
0420
0420
ENDCHAR
STARTCHAR 0058
ENCODING 88
SWIDTH 687 0
DWIDTH 11 0
BBX 11 11 0 0
BITMAP
F9C0
2080
1100
0A00
0A00
0400
0A00
0A00
1100
2080
F1E0
ENDCHAR
STARTCHAR 0059
ENCODING 89
SWIDTH 687 0
DWIDTH 11 0
BBX 10 11 1 0
BITMAP
F3C0
2180
2200
1200
1400
0800
0800
0800
0800
0800
3E00
ENDCHAR
STARTCHAR 005A
ENCODING 90
SWIDTH 562 0
DWIDTH 9 0
BBX 9 11 0 0
BITMAP
7F00
4200
4200
0400
0800
0800
1000
2000
4080
4100
FF00
ENDCHAR
STARTCHAR 005B
ENCODING 91
SWIDTH 312 0
DWIDTH 5 0
BBX 3 14 1 -3
BITMAP
E0
80
80
80
80
80
80
80
80
80
80
80
80
E0
ENDCHAR
STARTCHAR 005C
ENCODING 92
SWIDTH 250 0
DWIDTH 4 0
BBX 4 11 0 0
BITMAP
80
80
40
40
40
40
20
20
20
10
10
ENDCHAR
STARTCHAR 005D
ENCODING 93
SWIDTH 312 0
DWIDTH 5 0
BBX 3 14 1 -3
BITMAP
E0
20
20
20
20
20
20
20
20
20
20
20
20
E0
ENDCHAR
STARTCHAR 005E
ENCODING 94
SWIDTH 500 0
DWIDTH 8 0
BBX 8 6 0 5
BITMAP
18
24
24
42
42
81
ENDCHAR
STARTCHAR 005F
ENCODING 95
SWIDTH 500 0
DWIDTH 8 0
BBX 8 1 0 -3
BITMAP
FF
ENDCHAR
STARTCHAR 0060
ENCODING 96
SWIDTH 312 0
DWIDTH 5 0
BBX 2 3 1 8
BITMAP
80
40
40
ENDCHAR
STARTCHAR 0061
ENCODING 97
SWIDTH 437 0
DWIDTH 7 0
BBX 6 7 1 0
BITMAP
70
88
18
68
88
98
6C
ENDCHAR
STARTCHAR 0062
ENCODING 98
SWIDTH 500 0
DWIDTH 8 0
BBX 7 11 0 0
BITMAP
40
C0
40
40
58
64
42
42
42
44
38
ENDCHAR
STARTCHAR 0063
ENCODING 99
SWIDTH 437 0
DWIDTH 7 0
BBX 5 7 1 0
BITMAP
70
88
80
80
80
88
70
ENDCHAR
STARTCHAR 0064
ENCODING 100
SWIDTH 500 0
DWIDTH 8 0
BBX 7 11 1 0
BITMAP
04
0C
04
04
34
4C
84
84
84
4E
34
ENDCHAR
STARTCHAR 0065
ENCODING 101
SWIDTH 437 0
DWIDTH 7 0
BBX 5 7 1 0
BITMAP
70
88
F8
80
80
88
70
ENDCHAR
STARTCHAR 0066
ENCODING 102
SWIDTH 250 0
DWIDTH 4 0
BBX 6 11 0 0
BITMAP
38
44
40
40
F0
40
40
40
40
40
F0
ENDCHAR
STARTCHAR 0067
ENCODING 103
SWIDTH 437 0
DWIDTH 7 0
BBX 7 10 0 -3
BITMAP
3E
44
44
44
38
40
7C
82
82
7C
ENDCHAR
STARTCHAR 0068
ENCODING 104
SWIDTH 437 0
DWIDTH 7 0
BBX 7 11 0 0
BITMAP
40
C0
40
40
58
64
44
44
44
44
EE
ENDCHAR
STARTCHAR 0069
ENCODING 105
SWIDTH 187 0
DWIDTH 3 0
BBX 3 11 0 0
BITMAP
40
00
00
00
40
C0
40
40
40
40
E0
ENDCHAR
STARTCHAR 006A
ENCODING 106
SWIDTH 250 0
DWIDTH 4 0
BBX 4 14 -1 -3
BITMAP
10
00
00
00
10
30
10
10
10
10
10
10
10
E0
ENDCHAR
STARTCHAR 006B
ENCODING 107
SWIDTH 500 0
DWIDTH 8 0
BBX 8 11 0 0
BITMAP
40
C0
40
40
4E
48
50
70
48
44
E7
ENDCHAR
STARTCHAR 006C
ENCODING 108
SWIDTH 187 0
DWIDTH 3 0
BBX 3 11 0 0
BITMAP
40
C0
40
40
40
40
40
40
40
40
E0
ENDCHAR
STARTCHAR 006D
ENCODING 109
SWIDTH 687 0
DWIDTH 11 0
BBX 11 7 0 0
BITMAP
5980
E640
4440
4440
4440
4440
EEE0
ENDCHAR
STARTCHAR 006E
ENCODING 110
SWIDTH 437 0
DWIDTH 7 0
BBX 7 7 0 0
BITMAP
58
E4
44
44
44
44
EE
ENDCHAR
STARTCHAR 006F
ENCODING 111
SWIDTH 500 0
DWIDTH 8 0
BBX 6 7 1 0
BITMAP
30
48
84
84
84
48
30
ENDCHAR
STARTCHAR 0070
ENCODING 112
SWIDTH 500 0
DWIDTH 8 0
BBX 7 10 0 -3
BITMAP
58
E4
42
42
42
64
58
40
40
E0
ENDCHAR
STARTCHAR 0071
ENCODING 113
SWIDTH 500 0
DWIDTH 8 0
BBX 7 10 1 -3
BITMAP
34
4C
84
84
84
8C
74
04
04
0E
ENDCHAR
STARTCHAR 0072
ENCODING 114
SWIDTH 312 0
DWIDTH 5 0
BBX 5 7 0 0
BITMAP
58
E0
40
40
40
40
E0
ENDCHAR
STARTCHAR 0073
ENCODING 115
SWIDTH 375 0
DWIDTH 6 0
BBX 4 7 1 0
BITMAP
70
90
80
60
10
90
E0
ENDCHAR
STARTCHAR 0074
ENCODING 116
SWIDTH 250 0
DWIDTH 4 0
BBX 4 9 0 0
BITMAP
40
40
F0
40
40
40
40
50
60
ENDCHAR
STARTCHAR 0075
ENCODING 117
SWIDTH 437 0
DWIDTH 7 0
BBX 7 7 0 0
BITMAP
CC
44
44
44
44
4E
34
ENDCHAR
STARTCHAR 0076
ENCODING 118
SWIDTH 437 0
DWIDTH 7 0
BBX 7 7 0 0
BITMAP
EE
44
44
28
28
28
10
ENDCHAR
STARTCHAR 0077
ENCODING 119
SWIDTH 687 0
DWIDTH 11 0
BBX 11 7 0 0
BITMAP
EEE0
4440
4440
2A80
2A80
3300
1100
ENDCHAR
STARTCHAR 0078
ENCODING 120
SWIDTH 437 0
DWIDTH 7 0
BBX 7 7 0 0
BITMAP
EE
44
28
10
28
44
EE
ENDCHAR
STARTCHAR 0079
ENCODING 121
SWIDTH 437 0
DWIDTH 7 0
BBX 7 10 0 -3
BITMAP
EE
44
44
28
28
18
10
10
20
C0
ENDCHAR
STARTCHAR 007A
ENCODING 122
SWIDTH 375 0
DWIDTH 6 0
BBX 6 7 0 0
BITMAP
7C
48
10
20
20
44
FC
ENDCHAR
STARTCHAR 007B
ENCODING 123
SWIDTH 437 0
DWIDTH 7 0
BBX 4 14 2 -3
BITMAP
10
20
40
40
40
40
80
40
40
40
40
40
20
10
ENDCHAR
STARTCHAR 007C
ENCODING 124
SWIDTH 187 0
DWIDTH 3 0
BBX 1 15 1 -4
BITMAP
80
80
80
80
80
80
80
80
80
80
80
80
80
80
80
ENDCHAR
STARTCHAR 007D
ENCODING 125
SWIDTH 500 0
DWIDTH 8 0
BBX 4 14 1 -3
BITMAP
80
40
20
20
20
20
10
20
20
20
20
20
40
80
ENDCHAR
STARTCHAR 007E
ENCODING 126
SWIDTH 562 0
DWIDTH 9 0
BBX 9 2 0 3
BITMAP
7080
8F00
ENDCHAR
STARTCHAR 00A0
ENCODING 160
SWIDTH 250 0
DWIDTH 4 0
BBX 0 0 0 0
BITMAP
ENDCHAR
STARTCHAR 00A1
ENCODING 161
SWIDTH 312 0
DWIDTH 5 0
BBX 1 11 2 -3
BITMAP
80
00
80
80
80
80
80
80
80
80
80
ENDCHAR
STARTCHAR 00A2
ENCODING 162
SWIDTH 500 0
DWIDTH 8 0
BBX 6 13 1 -3
BITMAP
04
08
08
38
5C
90
90
A4
64
78
40
40
80
ENDCHAR
STARTCHAR 00A3
ENCODING 163
SWIDTH 500 0
DWIDTH 8 0
BBX 7 11 1 -1
BITMAP
1C
20
20
20
20
78
20
20
20
E2
DC
ENDCHAR
STARTCHAR 00A4
ENCODING 164
SWIDTH 500 0
DWIDTH 8 0
BBX 8 8 0 1
BITMAP
BD
42
81
81
81
81
42
BD
ENDCHAR
STARTCHAR 00A5
ENCODING 165
SWIDTH 500 0
DWIDTH 8 0
BBX 7 11 1 0
BITMAP
EE
44
24
28
28
FE
10
FE
10
10
38
ENDCHAR
STARTCHAR 00A6
ENCODING 166
SWIDTH 187 0
DWIDTH 3 0
BBX 1 15 1 -4
BITMAP
80
80
80
80
80
80
00
00
00
80
80
80
80
80
80
ENDCHAR
STARTCHAR 00A7
ENCODING 167
SWIDTH 500 0
DWIDTH 8 0
BBX 6 14 1 -3
BITMAP
38
48
40
20
50
98
84
84
44
28
10
08
48
70
ENDCHAR
STARTCHAR 00A8
ENCODING 168
SWIDTH 312 0
DWIDTH 5 0
BBX 3 1 1 10
BITMAP
A0
ENDCHAR
STARTCHAR 00A9
ENCODING 169
SWIDTH 750 0
DWIDTH 12 0
BBX 11 11 1 0
BITMAP
1F00
2080
4F40
9120
A020
A020
A020
9120
4E40
2080
1F00
ENDCHAR
STARTCHAR 00AA
ENCODING 170
SWIDTH 312 0
DWIDTH 5 0
BBX 5 5 0 6
BITMAP
70
90
70
90
F8
ENDCHAR
STARTCHAR 00AB
ENCODING 171
SWIDTH 437 0
DWIDTH 7 0
BBX 6 7 0 0
BITMAP
24
48
48
90
48
48
24
ENDCHAR
STARTCHAR 00AC
ENCODING 172
SWIDTH 562 0
DWIDTH 9 0
BBX 8 3 0 4
BITMAP
FF
01
01
ENDCHAR
STARTCHAR 00AD
ENCODING 173
SWIDTH 375 0
DWIDTH 6 0
BBX 4 1 1 3
BITMAP
F0
ENDCHAR
STARTCHAR 00AE
ENCODING 174
SWIDTH 750 0
DWIDTH 12 0
BBX 11 11 1 0
BITMAP
1F00
2080
7E40
9120
9120
9E20
9220
9120
78C0
2080
1F00
ENDCHAR
STARTCHAR 00AF
ENCODING 175
SWIDTH 500 0
DWIDTH 8 0
BBX 8 1 0 11
BITMAP
FF
ENDCHAR
STARTCHAR 00B0
ENCODING 176
SWIDTH 375 0
DWIDTH 6 0
BBX 5 5 1 6
BITMAP
70
88
88
88
70
ENDCHAR
STARTCHAR 00B1
ENCODING 177
SWIDTH 562 0
DWIDTH 9 0
BBX 9 9 0 1
BITMAP
0800
0800
0800
0800
FF80
0800
0800
0800
FF80
ENDCHAR
STARTCHAR 00B2
ENCODING 178
SWIDTH 312 0
DWIDTH 5 0
BBX 4 6 0 5
BITMAP
60
90
10
20
40
F0
ENDCHAR
STARTCHAR 00B3
ENCODING 179
SWIDTH 312 0
DWIDTH 5 0
BBX 4 6 0 5
BITMAP
E0
10
60
10
10
E0
ENDCHAR
STARTCHAR 00B4
ENCODING 180
SWIDTH 312 0
DWIDTH 5 0
BBX 2 3 2 8
BITMAP
40
80
80
ENDCHAR
STARTCHAR 00B5
ENCODING 181
SWIDTH 437 0
DWIDTH 7 0
BBX 7 10 0 -3
BITMAP
44
44
44
44
44
44
7E
80
40
40
ENDCHAR
STARTCHAR 00B6
ENCODING 182
SWIDTH 437 0
DWIDTH 7 0
BBX 7 14 0 -3
BITMAP
7E
F4
F4
F4
F4
74
14
14
14
14
14
14
14
14
ENDCHAR
STARTCHAR 00B7
ENCODING 183
SWIDTH 312 0
DWIDTH 5 0
BBX 1 1 2 5
BITMAP
80
ENDCHAR
STARTCHAR 00B8
ENCODING 184
SWIDTH 250 0
DWIDTH 4 0
BBX 2 3 1 -3
BITMAP
40
40
C0
ENDCHAR
STARTCHAR 00B9
ENCODING 185
SWIDTH 312 0
DWIDTH 5 0
BBX 3 6 1 5
BITMAP
40
C0
40
40
40
E0
ENDCHAR
STARTCHAR 00BA
ENCODING 186
SWIDTH 312 0
DWIDTH 5 0
BBX 5 5 0 6
BITMAP
70
88
88
88
70
ENDCHAR
STARTCHAR 00BB
ENCODING 187
SWIDTH 437 0
DWIDTH 7 0
BBX 6 7 0 0
BITMAP
90
48
48
24
48
48
90
ENDCHAR
STARTCHAR 00BC
ENCODING 188
SWIDTH 750 0
DWIDTH 12 0
BBX 11 11 1 0
BITMAP
4080
C100
4100
4200
4400
E440
08C0
1140
1240
23E0
4040
ENDCHAR
STARTCHAR 00BD
ENCODING 189
SWIDTH 750 0
DWIDTH 12 0
BBX 11 11 1 0
BITMAP
4080
C100
4200
4200
4400
E8C0
0920
1020
2040
2080
41E0
ENDCHAR
STARTCHAR 00BE
ENCODING 190
SWIDTH 750 0
DWIDTH 12 0
BBX 12 11 0 0
BITMAP
E040
1080
6100
1100
1200
E420
0460
08A0
1120
11F0
2020
ENDCHAR
STARTCHAR 00BF
ENCODING 191
SWIDTH 437 0
DWIDTH 7 0
BBX 5 11 1 -3
BITMAP
20
00
00
20
20
20
40
80
88
88
70
ENDCHAR
STARTCHAR 00C0
ENCODING 192
SWIDTH 687 0
DWIDTH 11 0
BBX 11 15 0 0
BITMAP
1000
0800
0800
0000
0400
0400
0A00
0A00
0A00
1100
1100
1F00
2080
2080
F1E0
ENDCHAR
STARTCHAR 00C1
ENCODING 193
SWIDTH 687 0
DWIDTH 11 0
BBX 11 15 0 0
BITMAP
0200
0400
0400
0000
0400
0400
0A00
0A00
0A00
1100
1100
1F00
2080
2080
F1E0
ENDCHAR
STARTCHAR 00C2
ENCODING 194
SWIDTH 687 0
DWIDTH 11 0
BBX 11 15 0 0
BITMAP
0400
0A00
1000
0000
0400
0400
0A00
0A00
0A00
1100
1100
1F00
2080
2080
F1E0
ENDCHAR
STARTCHAR 00C3
ENCODING 195
SWIDTH 687 0
DWIDTH 11 0
BBX 11 14 0 0
BITMAP
0D00
1600
0000
0400
0400
0A00
0A00
0A00
1100
1100
1F00
2080
2080
F1E0
ENDCHAR
STARTCHAR 00C4
ENCODING 196
SWIDTH 687 0
DWIDTH 11 0
BBX 11 13 0 0
BITMAP
0A00
0000
0400
0400
0A00
0A00
0A00
1100
1100
1F00
2080
2080
F1E0
ENDCHAR
STARTCHAR 00C5
ENCODING 197
SWIDTH 687 0
DWIDTH 11 0
BBX 11 14 0 0
BITMAP
0600
0900
0900
0600
0400
0A00
0A00
0A00
1100
1100
1F00
2080
2080
F1E0
ENDCHAR
STARTCHAR 00C6
ENCODING 198
SWIDTH 812 0
DWIDTH 13 0
BBX 13 11 0 0
BITMAP
1FF8
0608
0A00
0A20
1220
13E0
3E20
2220
4208
4218
EFF0
ENDCHAR
STARTCHAR 00C7
ENCODING 199
SWIDTH 687 0
DWIDTH 11 0
BBX 9 14 1 -3
BITMAP
1E80
2180
4080
8080
8000
8000
8000
8000
4080
2100
1E00
0800
0800
1800
ENDCHAR
STARTCHAR 00C8
ENCODING 200
SWIDTH 562 0
DWIDTH 9 0
BBX 9 15 0 0
BITMAP
1000
0800
0800
0000
FF00
2100
2000
2000
2200
3E00
2200
2000
2080
2100
FF00
ENDCHAR
STARTCHAR 00C9
ENCODING 201
SWIDTH 562 0
DWIDTH 9 0
BBX 9 15 0 0
BITMAP
0400
0800
0800
0000
FF00
2100
2000
2000
2200
3E00
2200
2000
2080
2100
FF00
ENDCHAR
STARTCHAR 00CA
ENCODING 202
SWIDTH 562 0
DWIDTH 9 0
BBX 9 15 0 0
BITMAP
0800
1400
2200
0000
FF00
2100
2000
2000
2200
3E00
2200
2000
2080
2100
FF00
ENDCHAR
STARTCHAR 00CB
ENCODING 203
SWIDTH 562 0
DWIDTH 9 0
BBX 9 13 0 0
BITMAP
1400
0000
FF00
2100
2000
2000
2200
3E00
2200
2000
2080
2100
FF00
ENDCHAR
STARTCHAR 00CC
ENCODING 204
SWIDTH 312 0
DWIDTH 5 0
BBX 5 15 0 0
BITMAP
40
20
20
00
F8
20
20
20
20
20
20
20
20
20
F8
ENDCHAR
STARTCHAR 00CD
ENCODING 205
SWIDTH 312 0
DWIDTH 5 0
BBX 5 15 0 0
BITMAP
10
20
20
00
F8
20
20
20
20
20
20
20
20
20
F8
ENDCHAR
STARTCHAR 00CE
ENCODING 206
SWIDTH 312 0
DWIDTH 5 0
BBX 5 15 0 0
BITMAP
20
50
88
00
F8
20
20
20
20
20
20
20
20
20
F8
ENDCHAR
STARTCHAR 00CF
ENCODING 207
SWIDTH 312 0
DWIDTH 5 0
BBX 5 13 0 0
BITMAP
50
00
F8
20
20
20
20
20
20
20
20
20
F8
ENDCHAR
STARTCHAR 00D0
ENCODING 208
SWIDTH 687 0
DWIDTH 11 0
BBX 10 11 0 0
BITMAP
FE00
2100
2080
2040
2040
FC40
2040
2040
2080
2100
FE00
ENDCHAR
STARTCHAR 00D1
ENCODING 209
SWIDTH 750 0
DWIDTH 12 0
BBX 12 14 0 -1
BITMAP
0680
0B00
0000
E1F0
2040
3040
2840
2440
2240
2240
2140
20C0
2040
F840
ENDCHAR
STARTCHAR 00D2
ENCODING 210
SWIDTH 750 0
DWIDTH 12 0
BBX 10 15 1 0
BITMAP
0800
0400
0400
0000
1E00
2100
4080
8040
8040
8040
8040
8040
4080
2100
1E00
ENDCHAR
STARTCHAR 00D3
ENCODING 211
SWIDTH 750 0
DWIDTH 12 0
BBX 10 15 1 0
BITMAP
0400
0800
0800
0000
1E00
2100
4080
8040
8040
8040
8040
8040
4080
2100
1E00
ENDCHAR
STARTCHAR 00D4
ENCODING 212
SWIDTH 750 0
DWIDTH 12 0
BBX 10 15 1 0
BITMAP
0400
0A00
1100
0000
1E00
2100
4080
8040
8040
8040
8040
8040
4080
2100
1E00
ENDCHAR
STARTCHAR 00D5
ENCODING 213
SWIDTH 750 0
DWIDTH 12 0
BBX 10 14 1 0
BITMAP
0D00
1600
0000
1E00
2100
4080
8040
8040
8040
8040
8040
4080
2100
1E00
ENDCHAR
STARTCHAR 00D6
ENCODING 214
SWIDTH 750 0
DWIDTH 12 0
BBX 10 13 1 0
BITMAP
0A00
0000
1E00
2100
4080
8040
8040
8040
8040
8040
4080
2100
1E00
ENDCHAR
STARTCHAR 00D7
ENCODING 215
SWIDTH 562 0
DWIDTH 9 0
BBX 6 6 1 2
BITMAP
84
48
30
30
48
84
ENDCHAR
STARTCHAR 00D8
ENCODING 216
SWIDTH 750 0
DWIDTH 12 0
BBX 10 11 1 1
BITMAP
1E40
2180
4180
8240
8440
8840
9040
9040
6080
6100
9E00
ENDCHAR
STARTCHAR 00D9
ENCODING 217
SWIDTH 687 0
DWIDTH 11 0
BBX 11 15 0 0
BITMAP
0800
0400
0400
0000
FBE0
2080
2080
2080
2080
2080
2080
2080
2080
1100
0E00
ENDCHAR
STARTCHAR 00DA
ENCODING 218
SWIDTH 687 0
DWIDTH 11 0
BBX 11 15 0 0
BITMAP
0200
0400
0400
0000
FBE0
2080
2080
2080
2080
2080
2080
2080
2080
1100
0E00
ENDCHAR
STARTCHAR 00DB
ENCODING 219
SWIDTH 687 0
DWIDTH 11 0
BBX 11 15 0 0
BITMAP
0400
0A00
1100
0000
FBE0
2080
2080
2080
2080
2080
2080
2080
2080
1100
0E00
ENDCHAR
STARTCHAR 00DC
ENCODING 220
SWIDTH 687 0
DWIDTH 11 0
BBX 11 13 0 0
BITMAP
0A00
0000
FBE0
2080
2080
2080
2080
2080
2080
2080
2080
1100
0E00
ENDCHAR
STARTCHAR 00DD
ENCODING 221
SWIDTH 687 0
DWIDTH 11 0
BBX 10 15 1 0
BITMAP
0400
0800
0800
0000
F3C0
2180
2200
1200
1400
0800
0800
0800
0800
0800
3E00
ENDCHAR
STARTCHAR 00DE
ENCODING 222
SWIDTH 625 0
DWIDTH 10 0
BBX 9 11 0 0
BITMAP
F800
2000
3E00
2100
2080
2080
2080
2100
3E00
2000
F800
ENDCHAR
STARTCHAR 00DF
ENCODING 223
SWIDTH 500 0
DWIDTH 8 0
BBX 7 11 0 0
BITMAP
3C
42
42
42
4C
46
42
42
42
42
DC
ENDCHAR
STARTCHAR 00E0
ENCODING 224
SWIDTH 437 0
DWIDTH 7 0
BBX 6 11 1 0
BITMAP
40
20
20
00
70
88
18
68
88
98
6C
ENDCHAR
STARTCHAR 00E1
ENCODING 225
SWIDTH 437 0
DWIDTH 7 0
BBX 6 11 1 0
BITMAP
10
20
20
00
70
88
18
68
88
98
6C
ENDCHAR
STARTCHAR 00E2
ENCODING 226
SWIDTH 437 0
DWIDTH 7 0
BBX 6 11 1 0
BITMAP
20
50
88
00
70
88
18
68
88
98
6C
ENDCHAR
STARTCHAR 00E3
ENCODING 227
SWIDTH 437 0
DWIDTH 7 0
BBX 6 10 1 0
BITMAP
68
B0
00
70
88
18
68
88
98
6C
ENDCHAR
STARTCHAR 00E4
ENCODING 228
SWIDTH 437 0
DWIDTH 7 0
BBX 6 9 1 0
BITMAP
50
00
70
88
18
68
88
98
6C
ENDCHAR
STARTCHAR 00E5
ENCODING 229
SWIDTH 437 0
DWIDTH 7 0
BBX 6 12 1 0
BITMAP
30
48
48
30
00
70
88
18
68
88
98
6C
ENDCHAR
STARTCHAR 00E6
ENCODING 230
SWIDTH 687 0
DWIDTH 11 0
BBX 9 7 1 0
BITMAP
7F00
8880
1F80
6800
8800
8880
F700
ENDCHAR
STARTCHAR 00E7
ENCODING 231
SWIDTH 437 0
DWIDTH 7 0
BBX 5 10 1 -3
BITMAP
70
88
80
80
80
88
70
20
20
60
ENDCHAR
STARTCHAR 00E8
ENCODING 232
SWIDTH 437 0
DWIDTH 7 0
BBX 5 11 1 0
BITMAP
40
20
20
00
70
88
F8
80
80
88
70
ENDCHAR
STARTCHAR 00E9
ENCODING 233
SWIDTH 437 0
DWIDTH 7 0
BBX 5 11 1 0
BITMAP
10
20
20
00
70
88
F8
80
80
88
70
ENDCHAR
STARTCHAR 00EA
ENCODING 234
SWIDTH 437 0
DWIDTH 7 0
BBX 5 11 1 0
BITMAP
20
50
88
00
70
88
F8
80
80
88
70
ENDCHAR
STARTCHAR 00EB
ENCODING 235
SWIDTH 437 0
DWIDTH 7 0
BBX 5 9 1 0
BITMAP
50
00
70
88
F8
80
80
88
70
ENDCHAR
STARTCHAR 00EC
ENCODING 236
SWIDTH 187 0
DWIDTH 3 0
BBX 3 11 0 0
BITMAP
80
40
40
00
40
C0
40
40
40
40
E0
ENDCHAR
STARTCHAR 00ED
ENCODING 237
SWIDTH 187 0
DWIDTH 3 0
BBX 3 11 0 0
BITMAP
20
40
40
00
40
C0
40
40
40
40
E0
ENDCHAR
STARTCHAR 00EE
ENCODING 238
SWIDTH 187 0
DWIDTH 3 0
BBX 5 11 -1 0
BITMAP
20
50
88
00
20
60
20
20
20
20
70
ENDCHAR
STARTCHAR 00EF
ENCODING 239
SWIDTH 187 0
DWIDTH 3 0
BBX 3 9 0 0
BITMAP
A0
00
40
C0
40
40
40
40
E0
ENDCHAR
STARTCHAR 00F0
ENCODING 240
SWIDTH 500 0
DWIDTH 8 0
BBX 6 11 1 0
BITMAP
48
30
50
08
38
44
84
84
84
48
30
ENDCHAR
STARTCHAR 00F1
ENCODING 241
SWIDTH 437 0
DWIDTH 7 0
BBX 7 10 0 0
BITMAP
34
58
00
58
E4
44
44
44
44
EE
ENDCHAR
STARTCHAR 00F2
ENCODING 242
SWIDTH 500 0
DWIDTH 8 0
BBX 6 11 1 0
BITMAP
20
10
10
00
30
48
84
84
84
48
30
ENDCHAR
STARTCHAR 00F3
ENCODING 243
SWIDTH 500 0
DWIDTH 8 0
BBX 6 11 1 0
BITMAP
08
10
10
00
30
48
84
84
84
48
30
ENDCHAR
STARTCHAR 00F4
ENCODING 244
SWIDTH 500 0
DWIDTH 8 0
BBX 6 11 1 0
BITMAP
20
50
88
00
30
48
84
84
84
48
30
ENDCHAR
STARTCHAR 00F5
ENCODING 245
SWIDTH 500 0
DWIDTH 8 0
BBX 6 10 1 0
BITMAP
34
58
00
30
48
84
84
84
48
30
ENDCHAR
STARTCHAR 00F6
ENCODING 246
SWIDTH 500 0
DWIDTH 8 0
BBX 6 9 1 0
BITMAP
28
00
30
48
84
84
84
48
30
ENDCHAR
STARTCHAR 00F7
ENCODING 247
SWIDTH 562 0
DWIDTH 9 0
BBX 9 5 0 3
BITMAP
0800
0000
FF80
0000
0800
ENDCHAR
STARTCHAR 00F8
ENCODING 248
SWIDTH 500 0
DWIDTH 8 0
BBX 7 7 1 -1
BITMAP
32
4C
88
94
A4
48
B0
ENDCHAR
STARTCHAR 00F9
ENCODING 249
SWIDTH 437 0
DWIDTH 7 0
BBX 7 11 0 0
BITMAP
20
10
10
00
CC
44
44
44
44
4E
34
ENDCHAR
STARTCHAR 00FA
ENCODING 250
SWIDTH 437 0
DWIDTH 7 0
BBX 7 11 0 0
BITMAP
08
10
10
00
CC
44
44
44
44
4E
34
ENDCHAR
STARTCHAR 00FB
ENCODING 251
SWIDTH 437 0
DWIDTH 7 0
BBX 7 11 0 0
BITMAP
10
28
44
00
CC
44
44
44
44
4E
34
ENDCHAR
STARTCHAR 00FC
ENCODING 252
SWIDTH 437 0
DWIDTH 7 0
BBX 7 9 0 0
BITMAP
28
00
CC
44
44
44
44
4E
34
ENDCHAR
STARTCHAR 00FD
ENCODING 253
SWIDTH 437 0
DWIDTH 7 0
BBX 7 14 0 -3
BITMAP
08
10
10
00
EE
44
44
28
28
18
10
10
20
C0
ENDCHAR
STARTCHAR 00FE
ENCODING 254
SWIDTH 500 0
DWIDTH 8 0
BBX 7 14 0 -3
BITMAP
40
C0
40
40
5C
66
42
42
42
64
58
40
40
E0
ENDCHAR
STARTCHAR 00FF
ENCODING 255
SWIDTH 437 0
DWIDTH 7 0
BBX 7 12 0 -3
BITMAP
28
00
EE
44
44
28
28
18
10
10
20
C0
ENDCHAR
STARTCHAR 0100
ENCODING 256
SWIDTH 687 0
DWIDTH 11 0
BBX 11 13 0 0
BITMAP
1F00
0000
0400
0400
0A00
0A00
0A00
1100
1100
1F00
2080
2080
F1E0
ENDCHAR
STARTCHAR 0101
ENCODING 257
SWIDTH 437 0
DWIDTH 7 0
BBX 6 9 1 0
BITMAP
F8
00
70
88
18
68
88
98
6C
ENDCHAR
STARTCHAR 0102
ENCODING 258
SWIDTH 687 0
DWIDTH 11 0
BBX 11 14 0 0
BITMAP
0900
0600
0000
0400
0400
0A00
0A00
0A00
1100
1100
1F00
2080
2080
F1E0
ENDCHAR
STARTCHAR 0103
ENCODING 259
SWIDTH 437 0
DWIDTH 7 0
BBX 6 10 1 0
BITMAP
48
30
00
70
88
18
68
88
98
6C
ENDCHAR
STARTCHAR 0104
ENCODING 260
SWIDTH 687 0
DWIDTH 11 0
BBX 11 14 0 -3
BITMAP
0400
0400
0A00
0A00
0A00
1100
1100
1F00
2080
2080
F1E0
0000
0080
00E0
ENDCHAR
STARTCHAR 0105
ENCODING 261
SWIDTH 437 0
DWIDTH 7 0
BBX 7 10 1 -3
BITMAP
70
88
18
68
88
98
EC
00
08
0E
ENDCHAR
STARTCHAR 0106
ENCODING 262
SWIDTH 687 0
DWIDTH 11 0
BBX 9 15 1 0
BITMAP
0400
0800
0800
0000
1E80
2180
4080
8080
8000
8000
8000
8000
4080
2100
1E00
ENDCHAR
STARTCHAR 0107
ENCODING 263
SWIDTH 437 0
DWIDTH 7 0
BBX 5 11 1 0
BITMAP
10
20
20
00
70
88
80
80
80
88
70
ENDCHAR
STARTCHAR 0108
ENCODING 264
SWIDTH 687 0
DWIDTH 11 0
BBX 9 15 1 0
BITMAP
0400
0A00
1100
0000
1E80
2180
4080
8080
8000
8000
8000
8000
4080
2100
1E00
ENDCHAR
STARTCHAR 0109
ENCODING 265
SWIDTH 437 0
DWIDTH 7 0
BBX 5 11 1 0
BITMAP
20
50
88
00
70
88
80
80
80
88
70
ENDCHAR
STARTCHAR 010A
ENCODING 266
SWIDTH 687 0
DWIDTH 11 0
BBX 9 13 1 0
BITMAP
0400
0000
1E80
2180
4080
8080
8000
8000
8000
8000
4080
2100
1E00
ENDCHAR
STARTCHAR 010B
ENCODING 267
SWIDTH 437 0
DWIDTH 7 0
BBX 5 9 1 0
BITMAP
20
00
70
88
80
80
80
88
70
ENDCHAR
STARTCHAR 010C
ENCODING 268
SWIDTH 687 0
DWIDTH 11 0
BBX 9 15 1 0
BITMAP
1100
0A00
0400
0000
1E80
2180
4080
8080
8000
8000
8000
8000
4080
2100
1E00
ENDCHAR
STARTCHAR 010D
ENCODING 269
SWIDTH 437 0
DWIDTH 7 0
BBX 5 11 1 0
BITMAP
88
50
20
00
70
88
80
80
80
88
70
ENDCHAR
STARTCHAR 010E
ENCODING 270
SWIDTH 687 0
DWIDTH 11 0
BBX 10 15 0 0
BITMAP
2200
1400
0800
0000
FE00
2100
2080
2040
2040
2040
2040
2040
2080
2100
FE00
ENDCHAR
STARTCHAR 010F
ENCODING 271
SWIDTH 625 0
DWIDTH 10 0
BBX 9 11 1 0
BITMAP
0580
0C80
0500
0400
3400
4C00
8400
8400
8400
CE00
7400
ENDCHAR
STARTCHAR 0110
ENCODING 272
SWIDTH 687 0
DWIDTH 11 0
BBX 10 11 0 0
BITMAP
FE00
2100
2080
2040
FC40
2040
2040
2040
2080
2100
FE00
ENDCHAR
STARTCHAR 0111
ENCODING 273
SWIDTH 500 0
DWIDTH 8 0
BBX 7 11 1 0
BITMAP
0C
04
1E
04
34
4C
84
84
84
CE
74
ENDCHAR
STARTCHAR 0112
ENCODING 274
SWIDTH 562 0
DWIDTH 9 0
BBX 9 13 0 0
BITMAP
3E00
0000
FF00
2100
2000
2000
2200
3E00
2200
2000
2080
2100
FF00
ENDCHAR
STARTCHAR 0113
ENCODING 275
SWIDTH 437 0
DWIDTH 7 0
BBX 5 9 1 0
BITMAP
F8
00
70
88
F8
80
80
88
70
ENDCHAR
STARTCHAR 0114
ENCODING 276
SWIDTH 562 0
DWIDTH 9 0
BBX 9 14 0 0
BITMAP
1200
0C00
0000
FF00
2100
2000
2000
2200
3E00
2200
2000
2080
2100
FF00
ENDCHAR
STARTCHAR 0115
ENCODING 277
SWIDTH 437 0
DWIDTH 7 0
BBX 5 10 1 0
BITMAP
48
30
00
70
88
F8
80
80
88
70
ENDCHAR
STARTCHAR 0116
ENCODING 278
SWIDTH 562 0
DWIDTH 9 0
BBX 9 13 0 0
BITMAP
0400
0000
FF00
2100
2000
2000
2200
3E00
2200
2000
2080
2100
FF00
ENDCHAR
STARTCHAR 0117
ENCODING 279
SWIDTH 437 0
DWIDTH 7 0
BBX 5 9 1 0
BITMAP
20
00
70
88
F8
80
80
88
70
ENDCHAR
STARTCHAR 0118
ENCODING 280
SWIDTH 562 0
DWIDTH 9 0
BBX 9 14 0 -3
BITMAP
FF00
2100
2000
2000
2200
3E00
2200
2000
2080
2100
FF00
0000
0200
0380
ENDCHAR
STARTCHAR 0119
ENCODING 281
SWIDTH 437 0
DWIDTH 7 0
BBX 5 10 1 -3
BITMAP
70
88
F8
80
80
88
70
00
20
38
ENDCHAR
STARTCHAR 011A
ENCODING 282
SWIDTH 562 0
DWIDTH 9 0
BBX 9 15 0 0
BITMAP
2200
1400
0800
0000
FF00
2100
2000
2000
2200
3E00
2200
2000
2080
2100
FF00
ENDCHAR
STARTCHAR 011B
ENCODING 283
SWIDTH 437 0
DWIDTH 7 0
BBX 5 11 1 0
BITMAP
88
50
20
00
70
88
F8
80
80
88
70
ENDCHAR
STARTCHAR 011C
ENCODING 284
SWIDTH 687 0
DWIDTH 11 0
BBX 10 15 1 0
BITMAP
0400
0A00
1100
0000
1E80
2180
4080
8000
8000
83C0
8080
8080
4080
2080
1F00
ENDCHAR
STARTCHAR 011D
ENCODING 285
SWIDTH 437 0
DWIDTH 7 0
BBX 7 14 0 -3
BITMAP
10
28
44
00
3E
44
44
44
38
40
7C
82
82
7C
ENDCHAR
STARTCHAR 011E
ENCODING 286
SWIDTH 687 0
DWIDTH 11 0
BBX 10 14 1 0
BITMAP
1200
0C00
0000
1E80
2180
4080
8000
8000
83C0
8080
8080
4080
2080
1F00
ENDCHAR
STARTCHAR 011F
ENCODING 287
SWIDTH 437 0
DWIDTH 7 0
BBX 7 13 0 -3
BITMAP
24
18
00
3E
44
44
44
38
40
7C
82
82
7C
ENDCHAR
STARTCHAR 0120
ENCODING 288
SWIDTH 687 0
DWIDTH 11 0
BBX 10 13 1 0
BITMAP
0400
0000
1E80
2180
4080
8000
8000
83C0
8080
8080
4080
2080
1F00
ENDCHAR
STARTCHAR 0121
ENCODING 289
SWIDTH 437 0
DWIDTH 7 0
BBX 7 12 0 -3
BITMAP
10
00
3E
44
44
44
38
40
7C
82
82
7C
ENDCHAR
STARTCHAR 0122
ENCODING 290
SWIDTH 687 0
DWIDTH 11 0
BBX 10 14 1 -3
BITMAP
1E80
2180
4080
8000
8000
83C0
8080
8080
4080
2080
1F00
0000
0200
0600
ENDCHAR
STARTCHAR 0123
ENCODING 291
SWIDTH 437 0
DWIDTH 7 0
BBX 7 14 0 -3
BITMAP
18
10
18
00
3E
44
44
44
38
40
7C
82
82
7C
ENDCHAR
STARTCHAR 0124
ENCODING 292
SWIDTH 687 0
DWIDTH 11 0
BBX 11 15 0 0
BITMAP
0400
0A00
1100
0000
FBE0
2080
2080
2080
2080
3F80
2080
2080
2080
2080
FBE0
ENDCHAR
STARTCHAR 0125
ENCODING 293
SWIDTH 437 0
DWIDTH 7 0
BBX 7 15 0 0
BITMAP
10
28
44
00
40
C0
40
40
58
64
44
44
44
44
EE
ENDCHAR
STARTCHAR 0126
ENCODING 294
SWIDTH 687 0
DWIDTH 11 0
BBX 11 11 0 0
BITMAP
FBE0
2080
7FC0
2080
2080
3F80
2080
2080
2080
2080
FBE0
ENDCHAR
STARTCHAR 0127
ENCODING 295
SWIDTH 437 0
DWIDTH 7 0
BBX 7 11 0 0
BITMAP
C0
40
F0
40
58
64
44
44
44
44
EE
ENDCHAR
STARTCHAR 0128
ENCODING 296
SWIDTH 312 0
DWIDTH 5 0
BBX 5 14 0 0
BITMAP
68
B0
00
F8
20
20
20
20
20
20
20
20
20
F8
ENDCHAR
STARTCHAR 0129
ENCODING 297
SWIDTH 187 0
DWIDTH 3 0
BBX 5 10 -1 0
BITMAP
68
B0
00
20
60
20
20
20
20
70
ENDCHAR
STARTCHAR 012A
ENCODING 298
SWIDTH 312 0
DWIDTH 5 0
BBX 5 13 0 0
BITMAP
F8
00
F8
20
20
20
20
20
20
20
20
20
F8
ENDCHAR
STARTCHAR 012B
ENCODING 299
SWIDTH 187 0
DWIDTH 3 0
BBX 5 9 -1 0
BITMAP
F8
00
20
60
20
20
20
20
70
ENDCHAR
STARTCHAR 012C
ENCODING 300
SWIDTH 312 0
DWIDTH 5 0
BBX 5 14 0 0
BITMAP
48
30
00
F8
20
20
20
20
20
20
20
20
20
F8
ENDCHAR
STARTCHAR 012D
ENCODING 301
SWIDTH 187 0
DWIDTH 3 0
BBX 4 10 -1 0
BITMAP
90
60
00
20
60
20
20
20
20
70
ENDCHAR
STARTCHAR 012E
ENCODING 302
SWIDTH 312 0
DWIDTH 5 0
BBX 5 14 0 -3
BITMAP
F8
20
20
20
20
20
20
20
20
20
F8
00
20
38
ENDCHAR
STARTCHAR 012F
ENCODING 303
SWIDTH 187 0
DWIDTH 3 0
BBX 3 14 0 -3
BITMAP
40
00
00
00
40
C0
40
40
40
40
E0
00
80
E0
ENDCHAR
STARTCHAR 0130
ENCODING 304
SWIDTH 312 0
DWIDTH 5 0
BBX 5 13 0 0
BITMAP
20
00
F8
20
20
20
20
20
20
20
20
20
F8
ENDCHAR
STARTCHAR 0131
ENCODING 305
SWIDTH 187 0
DWIDTH 3 0
BBX 3 7 0 0
BITMAP
40
C0
40
40
40
40
E0
ENDCHAR
STARTCHAR 0132
ENCODING 306
SWIDTH 687 0
DWIDTH 11 0
BBX 11 11 0 0
BITMAP
FBE0
2080
2080
2080
2080
2080
2080
2080
2080
2480
FF00
ENDCHAR
STARTCHAR 0133
ENCODING 307
SWIDTH 437 0
DWIDTH 7 0
BBX 6 14 0 -3
BITMAP
44
00
00
00
44
CC
44
44
44
44
E4
04
04
38
ENDCHAR
STARTCHAR 0134
ENCODING 308
SWIDTH 375 0
DWIDTH 6 0
BBX 6 15 0 0
BITMAP
10
28
44
00
7C
10
10
10
10
10
10
10
10
90
E0
ENDCHAR
STARTCHAR 0135
ENCODING 309
SWIDTH 250 0
DWIDTH 4 0
BBX 6 14 -1 -3
BITMAP
10
28
44
00
10
30
10
10
10
10
10
10
10
E0
ENDCHAR
STARTCHAR 0136
ENCODING 310
SWIDTH 750 0
DWIDTH 12 0
BBX 11 14 0 -3
BITMAP
FBC0
2080
2100
2200
2400
3800
2400
2200
2100
2080
F9E0
0000
0400
0C00
ENDCHAR
STARTCHAR 0137
ENCODING 311
SWIDTH 500 0
DWIDTH 8 0
BBX 8 14 0 -3
BITMAP
40
C0
40
40
4E
48
50
70
48
44
E7
00
10
30
ENDCHAR
STARTCHAR 0138
ENCODING 312
SWIDTH 500 0
DWIDTH 8 0
BBX 7 7 1 0
BITMAP
EC
48
50
60
50
48
EE
ENDCHAR
STARTCHAR 0139
ENCODING 313
SWIDTH 562 0
DWIDTH 9 0
BBX 9 15 0 0
BITMAP
1000
2000
2000
0000
F800
2000
2000
2000
2000
2000
2000
2000
2080
2100
FF00
ENDCHAR
STARTCHAR 013A
ENCODING 314
SWIDTH 187 0
DWIDTH 3 0
BBX 3 15 0 0
BITMAP
20
40
40
00
40
C0
40
40
40
40
40
40
40
40
E0
ENDCHAR
STARTCHAR 013B
ENCODING 315
SWIDTH 562 0
DWIDTH 9 0
BBX 9 14 0 -3
BITMAP
F800
2000
2000
2000
2000
2000
2000
2000
2080
2100
FF00
0000
0400
0C00
ENDCHAR
STARTCHAR 013C
ENCODING 316
SWIDTH 187 0
DWIDTH 3 0
BBX 3 14 0 -3
BITMAP
40
C0
40
40
40
40
40
40
40
40
E0
00
40
C0
ENDCHAR
STARTCHAR 013D
ENCODING 317
SWIDTH 562 0
DWIDTH 9 0
BBX 9 11 0 0
BITMAP
FB00
2100
2200
2000
2000
2000
2000
2000
2080
2100
FF00
ENDCHAR
STARTCHAR 013E
ENCODING 318
SWIDTH 375 0
DWIDTH 6 0
BBX 5 11 1 0
BITMAP
58
C8
50
40
40
40
40
40
40
40
E0
ENDCHAR
STARTCHAR 013F
ENCODING 319
SWIDTH 562 0
DWIDTH 9 0
BBX 9 11 0 0
BITMAP
F800
2000
2000
2000
2000
2400
2000
2000
2080
2100
FF00
ENDCHAR
STARTCHAR 0140
ENCODING 320
SWIDTH 375 0
DWIDTH 6 0
BBX 4 11 0 0
BITMAP
40
C0
40
40
40
50
40
40
40
40
E0
ENDCHAR
STARTCHAR 0141
ENCODING 321
SWIDTH 562 0
DWIDTH 9 0
BBX 9 11 0 0
BITMAP
F800
2000
2000
2800
3000
2000
E000
2000
2080
2100
FF00
ENDCHAR
STARTCHAR 0142
ENCODING 322
SWIDTH 187 0
DWIDTH 3 0
BBX 3 11 0 0
BITMAP
40
C0
40
40
60
40
C0
40
40
40
E0
ENDCHAR
STARTCHAR 0143
ENCODING 323
SWIDTH 750 0
DWIDTH 12 0
BBX 12 15 0 -1
BITMAP
0200
0400
0400
0000
E1F0
2040
3040
2840
2440
2240
2240
2140
20C0
2040
F840
ENDCHAR
STARTCHAR 0144
ENCODING 324
SWIDTH 437 0
DWIDTH 7 0
BBX 7 11 0 0
BITMAP
08
10
10
00
58
E4
44
44
44
44
EE
ENDCHAR
STARTCHAR 0145
ENCODING 325
SWIDTH 750 0
DWIDTH 12 0
BBX 12 14 0 -3
BITMAP
E1F0
2040
3040
2840
2440
2240
2240
2140
20C0
2040
F840
0000
0200
0600
ENDCHAR
STARTCHAR 0146
ENCODING 326
SWIDTH 437 0
DWIDTH 7 0
BBX 7 10 0 -3
BITMAP
58
E4
44
44
44
44
EE
00
10
30
ENDCHAR
STARTCHAR 0147
ENCODING 327
SWIDTH 750 0
DWIDTH 12 0
BBX 12 15 0 -1
BITMAP
1100
0A00
0400
0000
E1F0
2040
3040
2840
2440
2240
2240
2140
20C0
2040
F840
ENDCHAR
STARTCHAR 0148
ENCODING 328
SWIDTH 437 0
DWIDTH 7 0
BBX 7 11 0 0
BITMAP
44
28
10
00
58
E4
44
44
44
44
EE
ENDCHAR
STARTCHAR 0149
ENCODING 329
SWIDTH 562 0
DWIDTH 9 0
BBX 9 11 0 0
BITMAP
C000
4000
8000
0000
1600
3900
1100
1100
1100
1100
3B80
ENDCHAR
STARTCHAR 014A
ENCODING 330
SWIDTH 687 0
DWIDTH 11 0
BBX 10 11 0 0
BITMAP
E700
2880
3040
2040
2040
2040
2040
2040
2440
2480
FB00
ENDCHAR
STARTCHAR 014B
ENCODING 331
SWIDTH 437 0
DWIDTH 7 0
BBX 6 10 0 -3
BITMAP
58
E4
44
44
44
44
E4
04
24
38
ENDCHAR
STARTCHAR 014C
ENCODING 332
SWIDTH 750 0
DWIDTH 12 0
BBX 10 13 1 0
BITMAP
3E00
0000
1E00
2100
4080
8040
8040
8040
8040
8040
4080
2100
1E00
ENDCHAR
STARTCHAR 014D
ENCODING 333
SWIDTH 500 0
DWIDTH 8 0
BBX 6 9 1 0
BITMAP
F8
00
30
48
84
84
84
48
30
ENDCHAR
STARTCHAR 014E
ENCODING 334
SWIDTH 750 0
DWIDTH 12 0
BBX 10 14 1 0
BITMAP
1200
0C00
0000
1E00
2100
4080
8040
8040
8040
8040
8040
4080
2100
1E00
ENDCHAR
STARTCHAR 014F
ENCODING 335
SWIDTH 500 0
DWIDTH 8 0
BBX 6 10 1 0
BITMAP
48
30
00
30
48
84
84
84
48
30
ENDCHAR
STARTCHAR 0150
ENCODING 336
SWIDTH 750 0
DWIDTH 12 0
BBX 10 15 1 0
BITMAP
0500
0A00
0000
0000
1E00
2100
4080
8040
8040
8040
8040
8040
4080
2100
1E00
ENDCHAR
STARTCHAR 0151
ENCODING 337
SWIDTH 500 0
DWIDTH 8 0
BBX 6 11 1 0
BITMAP
14
28
00
00
30
48
84
84
84
48
30
ENDCHAR
STARTCHAR 0152
ENCODING 338
SWIDTH 875 0
DWIDTH 14 0
BBX 13 11 1 -1
BITMAP
1FF0
6210
4200
8200
8220
83E0
8220
8200
4208
6210
1FF0
ENDCHAR
STARTCHAR 0153
ENCODING 339
SWIDTH 687 0
DWIDTH 11 0
BBX 9 7 1 0
BITMAP
7700
8880
8F80
8800
8800
8880
7700
ENDCHAR
STARTCHAR 0154
ENCODING 340
SWIDTH 625 0
DWIDTH 10 0
BBX 10 15 0 0
BITMAP
0400
0800
0800
0000
FC00
2200
2100
2100
2200
3C00
2400
2200
2200
2100
F8C0
ENDCHAR
STARTCHAR 0155
ENCODING 341
SWIDTH 312 0
DWIDTH 5 0
BBX 5 11 0 0
BITMAP
10
20
20
00
58
E0
40
40
40
40
E0
ENDCHAR
STARTCHAR 0156
ENCODING 342
SWIDTH 625 0
DWIDTH 10 0
BBX 10 14 0 -3
BITMAP
FC00
2200
2100
2100
2200
3C00
2400
2200
2200
2100
F8C0
0000
0400
0C00
ENDCHAR
STARTCHAR 0157
ENCODING 343
SWIDTH 312 0
DWIDTH 5 0
BBX 5 10 0 -3
BITMAP
58
E0
40
40
40
40
E0
00
20
60
ENDCHAR
STARTCHAR 0158
ENCODING 344
SWIDTH 625 0
DWIDTH 10 0
BBX 10 15 0 0
BITMAP
1100
0A00
0400
0000
FC00
2200
2100
2100
2200
3C00
2400
2200
2200
2100
F8C0
ENDCHAR
STARTCHAR 0159
ENCODING 345
SWIDTH 312 0
DWIDTH 5 0
BBX 5 11 0 0
BITMAP
88
50
20
00
58
E0
40
40
40
40
E0
ENDCHAR
STARTCHAR 015A
ENCODING 346
SWIDTH 562 0
DWIDTH 9 0
BBX 7 15 1 0
BITMAP
08
10
10
00
3A
46
82
80
60
18
04
02
82
C4
B8
ENDCHAR
STARTCHAR 015B
ENCODING 347
SWIDTH 375 0
DWIDTH 6 0
BBX 4 11 1 0
BITMAP
10
20
20
00
70
90
80
60
10
90
E0
ENDCHAR
STARTCHAR 015C
ENCODING 348
SWIDTH 562 0
DWIDTH 9 0
BBX 7 15 1 0
BITMAP
10
28
44
00
3A
46
82
80
60
18
04
02
82
C4
B8
ENDCHAR
STARTCHAR 015D
ENCODING 349
SWIDTH 375 0
DWIDTH 6 0
BBX 5 11 1 0
BITMAP
20
50
88
00
70
90
80
60
10
90
E0
ENDCHAR
STARTCHAR 015E
ENCODING 350
SWIDTH 562 0
DWIDTH 9 0
BBX 7 14 1 -3
BITMAP
3A
46
82
80
60
18
04
02
82
C4
B8
10
10
30
ENDCHAR
STARTCHAR 015F
ENCODING 351
SWIDTH 375 0
DWIDTH 6 0
BBX 4 10 1 -2
BITMAP
70
90
80
60
10
90
E0
40
40
C0
ENDCHAR
STARTCHAR 0160
ENCODING 352
SWIDTH 562 0
DWIDTH 9 0
BBX 7 15 1 0
BITMAP
44
28
10
00
3A
46
82
80
60
18
04
02
82
C4
B8
ENDCHAR
STARTCHAR 0161
ENCODING 353
SWIDTH 375 0
DWIDTH 6 0
BBX 5 11 1 0
BITMAP
88
50
20
00
70
90
80
60
10
90
E0
ENDCHAR
STARTCHAR 0162
ENCODING 354
SWIDTH 562 0
DWIDTH 9 0
BBX 9 14 0 -3
BITMAP
FF80
8880
8880
0800
0800
0800
0800
0800
0800
0800
3E00
0400
0400
0C00
ENDCHAR
STARTCHAR 0163
ENCODING 355
SWIDTH 250 0
DWIDTH 4 0
BBX 4 12 0 -3
BITMAP
40
40
F0
40
40
40
40
50
60
20
20
60
ENDCHAR
STARTCHAR 0164
ENCODING 356
SWIDTH 562 0
DWIDTH 9 0
BBX 9 15 0 0
BITMAP
2200
1400
0800
0000
FF80
8880
8880
0800
0800
0800
0800
0800
0800
0800
3E00
ENDCHAR
STARTCHAR 0165
ENCODING 357
SWIDTH 437 0
DWIDTH 7 0
BBX 7 11 0 0
BITMAP
06
02
44
44
F0
40
40
40
40
50
60
ENDCHAR
STARTCHAR 0166
ENCODING 358
SWIDTH 562 0
DWIDTH 9 0
BBX 9 11 0 0
BITMAP
FF80
8880
8880
0800
0800
7F00
0800
0800
0800
0800
3E00
ENDCHAR
STARTCHAR 0167
ENCODING 359
SWIDTH 250 0
DWIDTH 4 0
BBX 4 9 0 0
BITMAP
40
40
F0
40
F0
40
40
50
60
ENDCHAR
STARTCHAR 0168
ENCODING 360
SWIDTH 687 0
DWIDTH 11 0
BBX 11 14 0 0
BITMAP
0D00
1600
0000
FBE0
2080
2080
2080
2080
2080
2080
2080
2080
1100
0E00
ENDCHAR
STARTCHAR 0169
ENCODING 361
SWIDTH 437 0
DWIDTH 7 0
BBX 7 10 0 0
BITMAP
34
58
00
CC
44
44
44
44
4E
34
ENDCHAR
STARTCHAR 016A
ENCODING 362
SWIDTH 687 0
DWIDTH 11 0
BBX 11 13 0 0
BITMAP
1F00
0000
FBE0
2080
2080
2080
2080
2080
2080
2080
2080
1100
0E00
ENDCHAR
STARTCHAR 016B
ENCODING 363
SWIDTH 437 0
DWIDTH 7 0
BBX 7 9 0 0
BITMAP
7C
00
CC
44
44
44
44
4E
34
ENDCHAR
STARTCHAR 016C
ENCODING 364
SWIDTH 687 0
DWIDTH 11 0
BBX 11 14 0 0
BITMAP
0900
0600
0000
FBE0
2080
2080
2080
2080
2080
2080
2080
2080
1100
0E00
ENDCHAR
STARTCHAR 016D
ENCODING 365
SWIDTH 437 0
DWIDTH 7 0
BBX 7 10 0 0
BITMAP
24
18
00
CC
44
44
44
44
4E
34
ENDCHAR
STARTCHAR 016E
ENCODING 366
SWIDTH 687 0
DWIDTH 11 0
BBX 11 16 0 0
BITMAP
0C00
1200
1200
0C00
0000
FBE0
2080
2080
2080
2080
2080
2080
2080
2080
1100
0E00
ENDCHAR
STARTCHAR 016F
ENCODING 367
SWIDTH 437 0
DWIDTH 7 0
BBX 7 12 0 0
BITMAP
30
48
48
30
00
CC
44
44
44
44
4E
34
ENDCHAR
STARTCHAR 0170
ENCODING 368
SWIDTH 687 0
DWIDTH 11 0
BBX 11 15 0 0
BITMAP
0500
0A00
0000
0000
FBE0
2080
2080
2080
2080
2080
2080
2080
2080
1100
0E00
ENDCHAR
STARTCHAR 0171
ENCODING 369
SWIDTH 437 0
DWIDTH 7 0
BBX 7 11 0 0
BITMAP
14
28
00
00
CC
44
44
44
44
4E
34
ENDCHAR
STARTCHAR 0172
ENCODING 370
SWIDTH 687 0
DWIDTH 11 0
BBX 11 14 0 -3
BITMAP
FBE0
2080
2080
2080
2080
2080
2080
2080
2080
1100
0E00
0000
0400
0700
ENDCHAR
STARTCHAR 0173
ENCODING 371
SWIDTH 437 0
DWIDTH 7 0
BBX 8 10 0 -3
BITMAP
CC
44
44
44
44
4E
34
00
04
07
ENDCHAR
STARTCHAR 0174
ENCODING 372
SWIDTH 937 0
DWIDTH 15 0
BBX 15 15 0 0
BITMAP
0100
0280
0440
0000
F79E
2108
2108
1108
1090
1190
0A90
0A50
0A50
0420
0420
ENDCHAR
STARTCHAR 0175
ENCODING 373
SWIDTH 687 0
DWIDTH 11 0
BBX 11 11 0 0
BITMAP
0400
0A00
1100
0000
EEE0
4440
4440
2A80
2A80
3300
1100
ENDCHAR
STARTCHAR 0176
ENCODING 374
SWIDTH 687 0
DWIDTH 11 0
BBX 10 15 1 0
BITMAP
0800
1400
2200
0000
F3C0
2180
2200
1200
1400
0800
0800
0800
0800
0800
3E00
ENDCHAR
STARTCHAR 0177
ENCODING 375
SWIDTH 437 0
DWIDTH 7 0
BBX 7 14 0 -3
BITMAP
10
28
44
00
EE
44
44
28
28
18
10
10
20
C0
ENDCHAR
STARTCHAR 0178
ENCODING 376
SWIDTH 687 0
DWIDTH 11 0
BBX 10 13 1 0
BITMAP
1400
0000
F3C0
2180
2200
1200
1400
0800
0800
0800
0800
0800
3E00
ENDCHAR
STARTCHAR 0179
ENCODING 377
SWIDTH 562 0
DWIDTH 9 0
BBX 9 15 0 0
BITMAP
0400
0800
0800
0000
7F00
4200
4200
0400
0800
0800
1000
2000
4080
4100
FF00
ENDCHAR
STARTCHAR 017A
ENCODING 378
SWIDTH 375 0
DWIDTH 6 0
BBX 6 11 0 0
BITMAP
08
10
10
00
7C
48
10
20
20
44
FC
ENDCHAR
STARTCHAR 017B
ENCODING 379
SWIDTH 562 0
DWIDTH 9 0
BBX 9 13 0 0
BITMAP
0800
0000
7F00
4200
4200
0400
0800
0800
1000
2000
4080
4100
FF00
ENDCHAR
STARTCHAR 017C
ENCODING 380
SWIDTH 375 0
DWIDTH 6 0
BBX 6 9 0 0
BITMAP
10
00
7C
48
10
20
20
44
FC
ENDCHAR
STARTCHAR 017D
ENCODING 381
SWIDTH 562 0
DWIDTH 9 0
BBX 9 15 0 0
BITMAP
2200
1400
0800
0000
7F00
4200
4200
0400
0800
0800
1000
2000
4080
4100
FF00
ENDCHAR
STARTCHAR 017E
ENCODING 382
SWIDTH 375 0
DWIDTH 6 0
BBX 6 11 0 0
BITMAP
44
28
10
00
7C
48
10
20
20
44
FC
ENDCHAR
STARTCHAR 017F
ENCODING 383
SWIDTH 250 0
DWIDTH 4 0
BBX 5 11 0 0
BITMAP
38
48
40
40
40
40
40
40
40
40
E0
ENDCHAR
STARTCHAR 0180
ENCODING 384
SWIDTH 500 0
DWIDTH 8 0
BBX 7 11 0 0
BITMAP
C0
40
F0
40
58
64
42
42
42
44
38
ENDCHAR
STARTCHAR 0181
ENCODING 385
SWIDTH 750 0
DWIDTH 12 0
BBX 11 11 0 0
BITMAP
FF00
9080
1040
1040
1080
1F80
1040
1020
1020
1040
7F80
ENDCHAR
STARTCHAR 0182
ENCODING 386
SWIDTH 562 0
DWIDTH 9 0
BBX 9 11 0 0
BITMAP
FF00
2100
2000
2000
2000
3E00
2100
2080
2080
2100
FE00
ENDCHAR
STARTCHAR 0183
ENCODING 387
SWIDTH 500 0
DWIDTH 8 0
BBX 6 11 1 0
BITMAP
F8
88
80
80
B0
C8
84
84
84
88
70
ENDCHAR
STARTCHAR 0184
ENCODING 388
SWIDTH 562 0
DWIDTH 9 0
BBX 9 11 0 0
BITMAP
2000
E000
6000
2000
2000
3E00
2180
2080
2080
2100
FE00
ENDCHAR
STARTCHAR 0185
ENCODING 389
SWIDTH 500 0
DWIDTH 8 0
BBX 7 11 0 0
BITMAP
40
C0
C0
40
58
64
42
42
42
44
38
ENDCHAR
STARTCHAR 0186
ENCODING 390
SWIDTH 687 0
DWIDTH 11 0
BBX 9 11 1 0
BITMAP
3C00
4200
8100
0080
0080
0080
0080
8080
C100
C200
BC00
ENDCHAR
STARTCHAR 0187
ENCODING 391
SWIDTH 687 0
DWIDTH 11 0
BBX 11 14 1 0
BITMAP
0060
00A0
00A0
1E80
2180
4180
8080
8000
8000
8000
8000
4080
2100
1E00
ENDCHAR
STARTCHAR 0188
ENCODING 392
SWIDTH 437 0
DWIDTH 7 0
BBX 7 9 1 0
BITMAP
06
0A
78
88
80
80
88
88
70
ENDCHAR
STARTCHAR 0189
ENCODING 393
SWIDTH 687 0
DWIDTH 11 0
BBX 10 11 0 0
BITMAP
FE00
2100
2080
2040
2040
FC40
2040
2040
2080
2100
FE00
ENDCHAR
STARTCHAR 018A
ENCODING 394
SWIDTH 812 0
DWIDTH 13 0
BBX 12 11 0 0
BITMAP
FF80
9040
1020
1010
1010
1010
1010
1010
1020
1040
7F80
ENDCHAR
STARTCHAR 018B
ENCODING 395
SWIDTH 562 0
DWIDTH 9 0
BBX 9 11 0 0
BITMAP
7F80
4200
0200
0200
0200
3E00
4200
8200
8200
4200
3F80
ENDCHAR
STARTCHAR 018C
ENCODING 396
SWIDTH 500 0
DWIDTH 8 0
BBX 7 11 1 0
BITMAP
7C
44
04
04
34
4C
84
84
84
46
3C
ENDCHAR
STARTCHAR 018D
ENCODING 397
SWIDTH 500 0
DWIDTH 8 0
BBX 6 10 1 -3
BITMAP
30
48
84
84
84
58
20
10
48
70
ENDCHAR
STARTCHAR 018E
ENCODING 398
SWIDTH 625 0
DWIDTH 10 0
BBX 10 11 0 0
BITMAP
7FC0
4100
0100
0100
1100
1F00
1100
0100
8100
4100
7FC0
ENDCHAR
STARTCHAR 018F
ENCODING 399
SWIDTH 750 0
DWIDTH 12 0
BBX 10 11 1 0
BITMAP
9E00
E100
8080
8040
0040
FFC0
8040
8040
4080
2100
1E00
ENDCHAR
STARTCHAR 0190
ENCODING 400
SWIDTH 500 0
DWIDTH 8 0
BBX 7 11 1 0
BITMAP
74
8C
84
40
38
40
80
80
82
44
38
ENDCHAR
STARTCHAR 0191
ENCODING 401
SWIDTH 562 0
DWIDTH 9 0
BBX 9 14 -1 -3
BITMAP
7F80
1080
1000
1000
1100
1F00
1100
1000
1000
1000
1000
1000
1000
E000
ENDCHAR
STARTCHAR 0192
ENCODING 402
SWIDTH 500 0
DWIDTH 8 0
BBX 8 14 0 -3
BITMAP
03
04
04
1E
08
08
08
10
10
10
10
20
20
C0
ENDCHAR
STARTCHAR 0193
ENCODING 403
SWIDTH 750 0
DWIDTH 12 0
BBX 11 14 1 0
BITMAP
0060
00A0
00A0
1E80
2180
4080
8080
8000
83C0
8080
8080
4080
2080
1F00
ENDCHAR
STARTCHAR 0194
ENCODING 404
SWIDTH 750 0
DWIDTH 12 0
BBX 12 14 0 -3
BITMAP
E070
4020
4040
2040
2080
1080
1100
0900
0A00
0400
0600
0A00
0A00
0E00
ENDCHAR
STARTCHAR 0195
ENCODING 405
SWIDTH 750 0
DWIDTH 12 0
BBX 11 11 0 0
BITMAP
4000
C000
4000
4000
5860
6420
4420
4420
4420
4420
E3C0
ENDCHAR
STARTCHAR 0196
ENCODING 406
SWIDTH 250 0
DWIDTH 4 0
BBX 4 11 0 0
BITMAP
40
C0
40
40
40
40
40
40
40
50
60
ENDCHAR
STARTCHAR 0197
ENCODING 407
SWIDTH 312 0
DWIDTH 5 0
BBX 5 11 0 0
BITMAP
F8
20
20
20
20
F8
20
20
20
20
F8
ENDCHAR
STARTCHAR 0198
ENCODING 408
SWIDTH 750 0
DWIDTH 12 0
BBX 11 11 0 0
BITMAP
1DE0
2480
2100
2200
2400
3800
2800
2400
2200
2100
FBE0
ENDCHAR
STARTCHAR 0199
ENCODING 409
SWIDTH 500 0
DWIDTH 8 0
BBX 8 11 0 0
BITMAP
38
44
40
40
4E
48
50
70
48
44
EF
ENDCHAR
STARTCHAR 019A
ENCODING 410
SWIDTH 250 0
DWIDTH 4 0
BBX 3 11 1 0
BITMAP
40
C0
40
40
40
E0
40
40
40
40
E0
ENDCHAR
STARTCHAR 019B
ENCODING 411
SWIDTH 500 0
DWIDTH 8 0
BBX 8 11 0 0
BITMAP
60
A8
10
30
50
10
30
28
48
49
86
ENDCHAR
STARTCHAR 019C
ENCODING 412
SWIDTH 812 0
DWIDTH 13 0
BBX 13 11 0 0
BITMAP
E738
4210
4210
4210
4210
4210
4210
4210
4210
4638
39D0
ENDCHAR
STARTCHAR 019D
ENCODING 413
SWIDTH 750 0
DWIDTH 12 0
BBX 13 14 -1 -3
BITMAP
70F8
1020
1820
1420
1220
1220
1120
10A0
1060
1020
1020
1000
1000
E000
ENDCHAR
STARTCHAR 019E
ENCODING 414
SWIDTH 500 0
DWIDTH 8 0
BBX 7 10 1 -3
BITMAP
58
E4
44
44
44
44
E4
04
04
0E
ENDCHAR
STARTCHAR 019F
ENCODING 415
SWIDTH 750 0
DWIDTH 12 0
BBX 10 11 1 0
BITMAP
1E00
2100
4080
8040
8040
FFC0
8040
8040
4080
2100
1E00
ENDCHAR
STARTCHAR 01A0
ENCODING 416
SWIDTH 750 0
DWIDTH 12 0
BBX 10 12 1 0
BITMAP
0040
1E40
21C0
4080
8040
8040
8040
8040
8040
4080
2100
1E00
ENDCHAR
STARTCHAR 01A1
ENCODING 417
SWIDTH 500 0
DWIDTH 8 0
BBX 7 7 1 0
BITMAP
32
CA
86
84
84
C8
30
ENDCHAR
STARTCHAR 01A2
ENCODING 418
SWIDTH 937 0
DWIDTH 15 0
BBX 14 14 1 -3
BITMAP
1FF0
2090
4090
8090
8090
8090
8090
8090
4090
2090
1F10
0010
0010
007C
ENDCHAR
STARTCHAR 01A3
ENCODING 419
SWIDTH 687 0
DWIDTH 11 0
BBX 10 10 1 -3
BITMAP
3880
4780
8480
8480
8480
4480
3880
0080
0080
01C0
ENDCHAR
STARTCHAR 01A4
ENCODING 420
SWIDTH 625 0
DWIDTH 10 0
BBX 9 11 0 0
BITMAP
FE00
9100
1080
1080
1080
1100
1E00
1000
1000
1000
7C00
ENDCHAR
STARTCHAR 01A5
ENCODING 421
SWIDTH 500 0
DWIDTH 8 0
BBX 7 14 0 -3
BITMAP
38
44
40
40
58
64
42
42
42
64
58
40
40
E0
ENDCHAR
STARTCHAR 01A6
ENCODING 422
SWIDTH 562 0
DWIDTH 9 0
BBX 11 13 0 -2
BITMAP
F800
2000
3C00
2200
2100
2100
2200
3C00
2400
2200
F900
0080
0060
ENDCHAR
STARTCHAR 01A7
ENCODING 423
SWIDTH 562 0
DWIDTH 9 0
BBX 7 11 1 0
BITMAP
BC
C2
82
02
04
18
60
80
82
86
7A
ENDCHAR
STARTCHAR 01A8
ENCODING 424
SWIDTH 375 0
DWIDTH 6 0
BBX 4 7 1 0
BITMAP
E0
90
10
60
80
90
70
ENDCHAR
STARTCHAR 01A9
ENCODING 425
SWIDTH 562 0
DWIDTH 9 0
BBX 9 11 0 0
BITMAP
FF80
4080
2080
1000
1000
0800
0800
1000
2080
4080
FF80
ENDCHAR
STARTCHAR 01AA
ENCODING 426
SWIDTH 375 0
DWIDTH 6 0
BBX 7 14 0 -3
BITMAP
60
90
90
70
10
10
10
10
10
10
10
10
10
0E
ENDCHAR
STARTCHAR 01AB
ENCODING 427
SWIDTH 250 0
DWIDTH 4 0
BBX 4 12 0 -3
BITMAP
40
40
F0
40
40
40
40
50
70
10
10
E0
ENDCHAR
STARTCHAR 01AC
ENCODING 428
SWIDTH 625 0
DWIDTH 10 0
BBX 9 11 0 0
BITMAP
7F80
8880
8880
0800
0800
0800
0800
0800
0800
0800
3E00
ENDCHAR
STARTCHAR 01AD
ENCODING 429
SWIDTH 250 0
DWIDTH 4 0
BBX 5 11 0 0
BITMAP
38
40
40
40
F0
40
40
40
40
50
60
ENDCHAR
STARTCHAR 01AE
ENCODING 430
SWIDTH 625 0
DWIDTH 10 0
BBX 9 14 0 -3
BITMAP
FF80
8880
8880
0800
0800
0800
0800
0800
0800
0800
0800
0800
0800
0700
ENDCHAR
STARTCHAR 01AF
ENCODING 431
SWIDTH 750 0
DWIDTH 12 0
BBX 12 13 0 0
BITMAP
0010
0010
FBF0
2080
2080
2080
2080
2080
2080
2080
2080
1100
0E00
ENDCHAR
STARTCHAR 01B0
ENCODING 432
SWIDTH 562 0
DWIDTH 9 0
BBX 8 7 0 0
BITMAP
CD
45
46
44
44
4E
34
ENDCHAR
STARTCHAR 01B1
ENCODING 433
SWIDTH 750 0
DWIDTH 12 0
BBX 10 11 1 0
BITMAP
F3C0
9240
3300
6080
8040
8040
8040
8040
4080
2100
1E00
ENDCHAR
STARTCHAR 01B2
ENCODING 434
SWIDTH 750 0
DWIDTH 12 0
BBX 10 11 0 0
BITMAP
FB80
2040
2040
2040
2040
2040
2040
2040
2080
1080
0F00
ENDCHAR
STARTCHAR 01B3
ENCODING 435
SWIDTH 812 0
DWIDTH 13 0
BBX 10 11 1 0
BITMAP
E0C0
4140
2200
2200
1400
0800
0800
0800
0800
0800
3E00
ENDCHAR
STARTCHAR 01B4
ENCODING 436
SWIDTH 500 0
DWIDTH 8 0
BBX 11 14 0 -3
BITMAP
00E0
0120
0100
0200
E200
4200
2400
2400
1400
1800
0800
1000
1000
E000
ENDCHAR
STARTCHAR 01B5
ENCODING 437
SWIDTH 625 0
DWIDTH 10 0
BBX 10 11 0 0
BITMAP
7F80
6100
4200
0400
0400
7F00
1000
2000
2040
4080
FF80
ENDCHAR
STARTCHAR 01B6
ENCODING 438
SWIDTH 437 0
DWIDTH 7 0
BBX 6 7 0 0
BITMAP
7C
48
10
7C
20
44
FC
ENDCHAR
STARTCHAR 01B7
ENCODING 439
SWIDTH 562 0
DWIDTH 9 0
BBX 7 14 1 -3
BITMAP
FE
84
88
10
20
70
08
04
02
02
02
02
84
78
ENDCHAR
STARTCHAR 01B8
ENCODING 440
SWIDTH 562 0
DWIDTH 9 0
BBX 7 14 1 -3
BITMAP
FE
46
22
10
08
1C
20
40
80
80
80
80
44
38
ENDCHAR
STARTCHAR 01B9
ENCODING 441
SWIDTH 437 0
DWIDTH 7 0
BBX 6 10 1 -3
BITMAP
F8
48
40
20
70
80
80
84
44
38
ENDCHAR
STARTCHAR 01BA
ENCODING 442
SWIDTH 437 0
DWIDTH 7 0
BBX 5 10 1 -3
BITMAP
F8
90
20
30
08
08
70
80
88
70
ENDCHAR
STARTCHAR 01BB
ENCODING 443
SWIDTH 500 0
DWIDTH 8 0
BBX 7 11 1 0
BITMAP
70
88
84
04
04
FE
08
10
20
44
FC
ENDCHAR
STARTCHAR 01BC
ENCODING 444
SWIDTH 500 0
DWIDTH 8 0
BBX 7 11 0 0
BITMAP
FC
22
22
38
04
06
02
02
02
04
78
ENDCHAR
STARTCHAR 01BD
ENCODING 445
SWIDTH 437 0
DWIDTH 7 0
BBX 6 7 0 0
BITMAP
F8
44
70
08
04
04
78
ENDCHAR
STARTCHAR 01BE
ENCODING 446
SWIDTH 437 0
DWIDTH 7 0
BBX 6 9 0 0
BITMAP
20
20
F8
20
20
18
04
24
38
ENDCHAR
STARTCHAR 01BF
ENCODING 447
SWIDTH 500 0
DWIDTH 8 0
BBX 7 10 0 -3
BITMAP
5C
E2
42
42
44
48
70
40
40
80
ENDCHAR
STARTCHAR 01C0
ENCODING 448
SWIDTH 187 0
DWIDTH 3 0
BBX 1 11 1 0
BITMAP
80
80
80
80
80
80
80
80
80
80
80
ENDCHAR
STARTCHAR 01C1
ENCODING 449
SWIDTH 312 0
DWIDTH 5 0
BBX 3 11 1 0
BITMAP
A0
A0
A0
A0
A0
A0
A0
A0
A0
A0
A0
ENDCHAR
STARTCHAR 01C2
ENCODING 450
SWIDTH 250 0
DWIDTH 4 0
BBX 3 11 1 0
BITMAP
40
40
40
40
E0
40
E0
40
40
40
40
ENDCHAR
STARTCHAR 01C3
ENCODING 451
SWIDTH 312 0
DWIDTH 5 0
BBX 1 11 2 0
BITMAP
80
80
80
80
80
80
80
80
80
00
80
ENDCHAR
STARTCHAR 01C4
ENCODING 452
SWIDTH 1312 0
DWIDTH 21 0
BBX 21 15 0 0
BITMAP
000220
000140
000080
000000
FE07F0
210420
208420
204040
204080
204080
204100
204200
208408
210410
FE0FF0
ENDCHAR
STARTCHAR 01C5
ENCODING 453
SWIDTH 1187 0
DWIDTH 19 0
BBX 18 11 0 0
BITMAP
FE0440
210280
208100
204000
2047C0
204480
204100
204200
208200
210440
FE0FC0
ENDCHAR
STARTCHAR 01C6
ENCODING 454
SWIDTH 937 0
DWIDTH 15 0
BBX 13 11 1 0
BITMAP
0488
0C50
0420
0400
34F8
4C90
8420
8440
8440
4E88
35F8
ENDCHAR
STARTCHAR 01C7
ENCODING 455
SWIDTH 1000 0
DWIDTH 16 0
BBX 16 11 0 0
BITMAP
F81F
2004
2004
2004
2004
2004
2004
2004
2084
2124
FF38
ENDCHAR
STARTCHAR 01C8
ENCODING 456
SWIDTH 875 0
DWIDTH 14 0
BBX 12 14 0 -3
BITMAP
F810
2000
2000
2000
2010
2030
2010
2010
2090
2110
FF10
0010
0010
00E0
ENDCHAR
STARTCHAR 01C9
ENCODING 457
SWIDTH 562 0
DWIDTH 9 0
BBX 6 14 1 -3
BITMAP
44
C0
40
40
44
4C
44
44
44
44
E4
04
04
38
ENDCHAR
STARTCHAR 01CA
ENCODING 458
SWIDTH 1125 0
DWIDTH 18 0
BBX 18 11 0 -1
BITMAP
E1F7C0
204100
304100
284100
244100
224100
224100
214100
20C100
204900
F84E00
ENDCHAR
STARTCHAR 01CB
ENCODING 459
SWIDTH 1000 0
DWIDTH 16 0
BBX 14 14 0 -3
BITMAP
E1F4
2040
3040
2840
2444
224C
2244
2144
20C4
2044
F844
0004
0004
0038
ENDCHAR
STARTCHAR 01CC
ENCODING 460
SWIDTH 750 0
DWIDTH 12 0
BBX 10 14 1 -3
BITMAP
0040
0000
0000
0000
5840
E4C0
4440
4440
4440
4440
EE40
0040
0040
0380
ENDCHAR
STARTCHAR 01CD
ENCODING 461
SWIDTH 687 0
DWIDTH 11 0
BBX 11 15 0 0
BITMAP
1100
0A00
0400
0000
0400
0400
0A00
0A00
0A00
1100
1100
1F00
2080
2080
F1E0
ENDCHAR
STARTCHAR 01CE
ENCODING 462
SWIDTH 437 0
DWIDTH 7 0
BBX 6 11 1 0
BITMAP
88
50
20
00
70
88
18
68
88
98
6C
ENDCHAR
STARTCHAR 01CF
ENCODING 463
SWIDTH 312 0
DWIDTH 5 0
BBX 5 15 0 0
BITMAP
88
50
20
00
F8
20
20
20
20
20
20
20
20
20
F8
ENDCHAR
STARTCHAR 01D0
ENCODING 464
SWIDTH 187 0
DWIDTH 3 0
BBX 5 11 -1 0
BITMAP
88
50
20
00
20
60
20
20
20
20
70
ENDCHAR
STARTCHAR 01D1
ENCODING 465
SWIDTH 750 0
DWIDTH 12 0
BBX 10 15 1 0
BITMAP
1100
0A00
0400
0000
1E00
2100
4080
8040
8040
8040
8040
8040
4080
2100
1E00
ENDCHAR
STARTCHAR 01D2
ENCODING 466
SWIDTH 500 0
DWIDTH 8 0
BBX 6 11 1 0
BITMAP
44
28
10
00
30
48
84
84
84
48
30
ENDCHAR
STARTCHAR 01D3
ENCODING 467
SWIDTH 687 0
DWIDTH 11 0
BBX 11 15 0 0
BITMAP
1100
0A00
0400
0000
FBE0
2080
2080
2080
2080
2080
2080
2080
2080
1100
0E00
ENDCHAR
STARTCHAR 01D4
ENCODING 468
SWIDTH 437 0
DWIDTH 7 0
BBX 7 11 0 0
BITMAP
44
28
10
00
CC
44
44
44
44
4E
34
ENDCHAR
STARTCHAR 01D5
ENCODING 469
SWIDTH 687 0
DWIDTH 11 0
BBX 11 15 0 0
BITMAP
0F00
0000
0900
0000
FBE0
2080
2080
2080
2080
2080
2080
2080
2080
1100
0E00
ENDCHAR
STARTCHAR 01D6
ENCODING 470
SWIDTH 437 0
DWIDTH 7 0
BBX 7 11 0 0
BITMAP
7C
00
28
00
CC
44
44
44
44
4E
34
ENDCHAR
STARTCHAR 01D7
ENCODING 471
SWIDTH 687 0
DWIDTH 11 0
BBX 11 15 0 0
BITMAP
0100
0200
0900
0000
FBE0
2080
2080
2080
2080
2080
2080
2080
2080
1100
0E00
ENDCHAR
STARTCHAR 01D8
ENCODING 472
SWIDTH 437 0
DWIDTH 7 0
BBX 7 13 0 0
BITMAP
08
10
10
00
28
00
CC
44
44
44
44
4E
34
ENDCHAR
STARTCHAR 01D9
ENCODING 473
SWIDTH 687 0
DWIDTH 11 0
BBX 11 15 0 0
BITMAP
0A00
0400
0900
0000
FBE0
2080
2080
2080
2080
2080
2080
2080
2080
1100
0E00
ENDCHAR
STARTCHAR 01DA
ENCODING 474
SWIDTH 437 0
DWIDTH 7 0
BBX 7 13 0 0
BITMAP
44
28
10
00
28
00
CC
44
44
44
44
4E
34
ENDCHAR
STARTCHAR 01DB
ENCODING 475
SWIDTH 687 0
DWIDTH 11 0
BBX 11 15 0 0
BITMAP
0800
0400
0900
0000
FBE0
2080
2080
2080
2080
2080
2080
2080
2080
1100
0E00
ENDCHAR
STARTCHAR 01DC
ENCODING 476
SWIDTH 437 0
DWIDTH 7 0
BBX 7 13 0 0
BITMAP
20
10
10
00
28
00
CC
44
44
44
44
4E
34
ENDCHAR
STARTCHAR 01DD
ENCODING 477
SWIDTH 437 0
DWIDTH 7 0
BBX 5 7 1 0
BITMAP
70
88
08
08
F8
88
70
ENDCHAR
STARTCHAR 01DE
ENCODING 478
SWIDTH 687 0
DWIDTH 11 0
BBX 11 15 0 0
BITMAP
0F00
0000
0900
0000
0400
0400
0A00
0A00
0A00
1100
1100
1F00
2080
2080
F1E0
ENDCHAR
STARTCHAR 01DF
ENCODING 479
SWIDTH 437 0
DWIDTH 7 0
BBX 6 11 1 0
BITMAP
F8
00
50
00
70
88
18
68
88
98
6C
ENDCHAR
STARTCHAR 01E0
ENCODING 480
SWIDTH 687 0
DWIDTH 11 0
BBX 11 15 0 0
BITMAP
0E00
0000
0400
0000
0400
0400
0A00
0A00
0A00
1100
1100
1F00
2080
2080
F1E0
ENDCHAR
STARTCHAR 01E1
ENCODING 481
SWIDTH 437 0
DWIDTH 7 0
BBX 6 11 1 0
BITMAP
F8
00
20
00
70
88
18
68
88
98
6C
ENDCHAR
STARTCHAR 01E2
ENCODING 482
SWIDTH 812 0
DWIDTH 13 0
BBX 13 13 0 0
BITMAP
03E0
0000
1FF8
0608
0A00
0A20
1220
13E0
3E20
2220
4208
4218
EFF0
ENDCHAR
STARTCHAR 01E3
ENCODING 483
SWIDTH 687 0
DWIDTH 11 0
BBX 9 9 1 0
BITMAP
3E00
0000
7F00
8880
1F80
6800
8800
8880
F700
ENDCHAR
STARTCHAR 01E4
ENCODING 484
SWIDTH 750 0
DWIDTH 12 0
BBX 10 11 1 0
BITMAP
1E80
2180
4080
8000
8000
83C0
8080
83C0
4080
2080
1F00
ENDCHAR
STARTCHAR 01E5
ENCODING 485
SWIDTH 500 0
DWIDTH 8 0
BBX 8 10 0 -3
BITMAP
3F
44
44
38
40
7C
42
FF
44
38
ENDCHAR
STARTCHAR 01E6
ENCODING 486
SWIDTH 687 0
DWIDTH 11 0
BBX 10 15 1 0
BITMAP
1100
0A00
0400
0000
1E80
2180
4080
8000
8000
83C0
8080
8080
4080
2080
1F00
ENDCHAR
STARTCHAR 01E7
ENCODING 487
SWIDTH 437 0
DWIDTH 7 0
BBX 7 14 0 -3
BITMAP
44
28
10
00
3E
44
44
44
38
40
7C
82
82
7C
ENDCHAR
STARTCHAR 01E8
ENCODING 488
SWIDTH 750 0
DWIDTH 12 0
BBX 11 15 0 0
BITMAP
2200
1400
0800
0000
FBC0
2080
2100
2200
2400
3800
2400
2200
2100
2080
F9E0
ENDCHAR
STARTCHAR 01E9
ENCODING 489
SWIDTH 500 0
DWIDTH 8 0
BBX 8 15 0 0
BITMAP
88
50
20
00
40
C0
40
40
4E
48
50
70
48
44
E7
ENDCHAR
STARTCHAR 01EA
ENCODING 490
SWIDTH 750 0
DWIDTH 12 0
BBX 10 14 1 -3
BITMAP
1E00
2100
4080
8040
8040
8040
8040
8040
4080
2100
1E00
0000
0400
0700
ENDCHAR
STARTCHAR 01EB
ENCODING 491
SWIDTH 500 0
DWIDTH 8 0
BBX 6 10 1 -3
BITMAP
30
48
84
84
84
48
30
00
10
1C
ENDCHAR
STARTCHAR 01EC
ENCODING 492
SWIDTH 750 0
DWIDTH 12 0
BBX 10 16 1 -3
BITMAP
1F00
0000
1E00
2100
4080
8040
8040
8040
8040
8040
4080
2100
1E00
0000
0400
0700
ENDCHAR
STARTCHAR 01ED
ENCODING 493
SWIDTH 500 0
DWIDTH 8 0
BBX 6 12 1 -3
BITMAP
7C
00
30
48
84
84
84
48
30
00
10
1C
ENDCHAR
STARTCHAR 01EE
ENCODING 494
SWIDTH 562 0
DWIDTH 9 0
BBX 7 18 1 -3
BITMAP
44
28
10
00
FE
84
88
10
20
70
08
04
02
02
02
02
84
78
ENDCHAR
STARTCHAR 01EF
ENCODING 495
SWIDTH 437 0
DWIDTH 7 0
BBX 6 14 0 -3
BITMAP
20
18
18
00
7C
48
10
10
38
04
04
04
88
70
ENDCHAR
STARTCHAR 01F0
ENCODING 496
SWIDTH 250 0
DWIDTH 4 0
BBX 6 14 -1 -3
BITMAP
44
28
10
00
10
30
10
10
10
10
10
10
10
E0
ENDCHAR
STARTCHAR 01F1
ENCODING 497
SWIDTH 1312 0
DWIDTH 21 0
BBX 21 11 0 0
BITMAP
FE07F0
210420
208420
204040
204080
204080
204100
204200
208408
210410
FE0FF0
ENDCHAR
STARTCHAR 01F2
ENCODING 498
SWIDTH 1187 0
DWIDTH 19 0
BBX 18 11 0 0
BITMAP
FE0000
210000
208000
204000
2047C0
204480
204100
204200
208200
210440
FE0FC0
ENDCHAR
STARTCHAR 01F3
ENCODING 499
SWIDTH 937 0
DWIDTH 15 0
BBX 13 11 1 0
BITMAP
0400
0C00
0400
0400
34F8
4C90
8420
8440
8440
4E88
35F8
ENDCHAR
STARTCHAR 01F4
ENCODING 500
SWIDTH 687 0
DWIDTH 11 0
BBX 10 15 1 0
BITMAP
0200
0400
0400
0000
1E80
2180
4080
8000
8000
83C0
8080
8080
4080
2080
1F00
ENDCHAR
STARTCHAR 01F5
ENCODING 501
SWIDTH 437 0
DWIDTH 7 0
BBX 7 14 0 -3
BITMAP
08
10
10
00
3E
44
44
44
38
40
7C
82
82
7C
ENDCHAR
STARTCHAR 01F6
ENCODING 502
SWIDTH 937 0
DWIDTH 15 0
BBX 14 11 0 0
BITMAP
FBE0
2080
2080
2080
208C
3F84
2084
2084
2084
2084
F878
ENDCHAR
STARTCHAR 01F7
ENCODING 503
SWIDTH 562 0
DWIDTH 9 0
BBX 7 14 1 -3
BITMAP
5C
E2
42
42
42
42
44
44
48
50
60
40
40
80
ENDCHAR
STARTCHAR 01F8
ENCODING 504
SWIDTH 750 0
DWIDTH 12 0
BBX 12 15 0 -1
BITMAP
0800
0400
0400
0000
E1F0
2040
3040
2840
2440
2240
2240
2140
20C0
2040
F840
ENDCHAR
STARTCHAR 01F9
ENCODING 505
SWIDTH 437 0
DWIDTH 7 0
BBX 7 11 0 0
BITMAP
20
10
10
00
58
E4
44
44
44
44
EE
ENDCHAR
STARTCHAR 01FA
ENCODING 506
SWIDTH 687 0
DWIDTH 11 0
BBX 11 16 0 0
BITMAP
0200
0400
0600
0900
0900
0600
0400
0A00
0A00
0A00
1100
1100
1F00
2080
2080
F1E0
ENDCHAR
STARTCHAR 01FB
ENCODING 507
SWIDTH 437 0
DWIDTH 7 0
BBX 6 15 1 0
BITMAP
10
20
20
30
48
48
30
00
70
88
18
68
88
98
6C
ENDCHAR
STARTCHAR 01FC
ENCODING 508
SWIDTH 812 0
DWIDTH 13 0
BBX 13 15 0 0
BITMAP
0100
0200
0200
0000
1FF8
0608
0A00
0A20
1220
13E0
3E20
2220
4208
4218
EFF0
ENDCHAR
STARTCHAR 01FD
ENCODING 509
SWIDTH 687 0
DWIDTH 11 0
BBX 9 11 1 0
BITMAP
0400
0800
0800
0000
7F00
8880
1F80
6800
8800
8880
F700
ENDCHAR
STARTCHAR 01FE
ENCODING 510
SWIDTH 750 0
DWIDTH 12 0
BBX 10 15 1 0
BITMAP
0400
0800
0800
0000
1E40
2180
4180
8240
8440
8840
9040
9040
6080
6100
9E00
ENDCHAR
STARTCHAR 01FF
ENCODING 511
SWIDTH 500 0
DWIDTH 8 0
BBX 7 11 1 -1
BITMAP
10
20
20
00
32
4C
88
94
A4
48
B0
ENDCHAR
STARTCHAR 0200
ENCODING 512
SWIDTH 687 0
DWIDTH 11 0
BBX 11 15 0 0
BITMAP
1400
0A00
0000
0000
0400
0400
0A00
0A00
0A00
1100
1100
1F00
2080
2080
F1E0
ENDCHAR
STARTCHAR 0201
ENCODING 513
SWIDTH 437 0
DWIDTH 7 0
BBX 6 11 1 0
BITMAP
A0
50
00
00
70
88
18
68
88
98
6C
ENDCHAR
STARTCHAR 0202
ENCODING 514
SWIDTH 687 0
DWIDTH 11 0
BBX 11 14 0 0
BITMAP
0600
0900
0000
0400
0400
0A00
0A00
0A00
1100
1100
1F00
2080
2080
F1E0
ENDCHAR
STARTCHAR 0203
ENCODING 515
SWIDTH 437 0
DWIDTH 7 0
BBX 6 10 1 0
BITMAP
30
48
00
70
88
18
68
88
98
6C
ENDCHAR
STARTCHAR 0204
ENCODING 516
SWIDTH 562 0
DWIDTH 9 0
BBX 9 15 0 0
BITMAP
2800
1400
0000
0000
FF00
2100
2000
2000
2200
3E00
2200
2000
2080
2100
FF00
ENDCHAR
STARTCHAR 0205
ENCODING 517
SWIDTH 437 0
DWIDTH 7 0
BBX 5 11 1 0
BITMAP
A0
50
00
00
70
88
F8
80
80
88
70
ENDCHAR
STARTCHAR 0206
ENCODING 518
SWIDTH 562 0
DWIDTH 9 0
BBX 9 14 0 0
BITMAP
0C00
1200
0000
FF00
2100
2000
2000
2200
3E00
2200
2000
2080
2100
FF00
ENDCHAR
STARTCHAR 0207
ENCODING 519
SWIDTH 437 0
DWIDTH 7 0
BBX 5 10 1 0
BITMAP
30
48
00
70
88
F8
80
80
88
70
ENDCHAR
STARTCHAR 0208
ENCODING 520
SWIDTH 312 0
DWIDTH 5 0
BBX 5 15 0 0
BITMAP
A0
50
00
00
F8
20
20
20
20
20
20
20
20
20
F8
ENDCHAR
STARTCHAR 0209
ENCODING 521
SWIDTH 187 0
DWIDTH 3 0
BBX 4 11 -1 0
BITMAP
A0
50
00
00
20
60
20
20
20
20
70
ENDCHAR
STARTCHAR 020A
ENCODING 522
SWIDTH 312 0
DWIDTH 5 0
BBX 5 14 0 0
BITMAP
30
48
00
F8
20
20
20
20
20
20
20
20
20
F8
ENDCHAR
STARTCHAR 020B
ENCODING 523
SWIDTH 187 0
DWIDTH 3 0
BBX 4 10 -1 0
BITMAP
60
90
00
20
60
20
20
20
20
70
ENDCHAR
STARTCHAR 020C
ENCODING 524
SWIDTH 750 0
DWIDTH 12 0
BBX 10 15 1 0
BITMAP
1400
0A00
0000
0000
1E00
2100
4080
8040
8040
8040
8040
8040
4080
2100
1E00
ENDCHAR
STARTCHAR 020D
ENCODING 525
SWIDTH 500 0
DWIDTH 8 0
BBX 6 11 1 0
BITMAP
50
28
00
00
30
48
84
84
84
48
30
ENDCHAR
STARTCHAR 020E
ENCODING 526
SWIDTH 750 0
DWIDTH 12 0
BBX 10 14 1 0
BITMAP
0C00
1200
0000
1E00
2100
4080
8040
8040
8040
8040
8040
4080
2100
1E00
ENDCHAR
STARTCHAR 020F
ENCODING 527
SWIDTH 500 0
DWIDTH 8 0
BBX 6 10 1 0
BITMAP
30
48
00
30
48
84
84
84
48
30
ENDCHAR
STARTCHAR 0210
ENCODING 528
SWIDTH 625 0
DWIDTH 10 0
BBX 10 15 0 0
BITMAP
2800
1400
0000
0000
FC00
2200
2100
2100
2200
3C00
2400
2200
2200
2100
F8C0
ENDCHAR
STARTCHAR 0211
ENCODING 529
SWIDTH 312 0
DWIDTH 5 0
BBX 5 11 0 0
BITMAP
A0
50
00
00
58
E0
40
40
40
40
E0
ENDCHAR
STARTCHAR 0212
ENCODING 530
SWIDTH 625 0
DWIDTH 10 0
BBX 10 14 0 0
BITMAP
1800
2400
0000
FC00
2200
2100
2100
2200
3C00
2400
2200
2200
2100
F8C0
ENDCHAR
STARTCHAR 0213
ENCODING 531
SWIDTH 312 0
DWIDTH 5 0
BBX 5 10 0 0
BITMAP
30
48
00
58
E0
40
40
40
40
E0
ENDCHAR
STARTCHAR 0214
ENCODING 532
SWIDTH 687 0
DWIDTH 11 0
BBX 11 14 0 0
BITMAP
1400
0A00
0000
FBE0
2080
2080
2080
2080
2080
2080
2080
2080
1100
0E00
ENDCHAR
STARTCHAR 0215
ENCODING 533
SWIDTH 437 0
DWIDTH 7 0
BBX 7 11 0 0
BITMAP
50
28
00
00
CC
44
44
44
44
4E
34
ENDCHAR
STARTCHAR 0216
ENCODING 534
SWIDTH 687 0
DWIDTH 11 0
BBX 11 14 0 0
BITMAP
0C00
1200
0000
FBE0
2080
2080
2080
2080
2080
2080
2080
2080
1100
0E00
ENDCHAR
STARTCHAR 0217
ENCODING 535
SWIDTH 437 0
DWIDTH 7 0
BBX 7 10 0 0
BITMAP
30
48
00
CC
44
44
44
44
4E
34
ENDCHAR
STARTCHAR 0218
ENCODING 536
SWIDTH 562 0
DWIDTH 9 0
BBX 7 15 1 -4
BITMAP
3A
46
82
80
60
18
04
02
82
C4
B8
00
30
10
30
ENDCHAR
STARTCHAR 0219
ENCODING 537
SWIDTH 375 0
DWIDTH 6 0
BBX 4 11 1 -3
BITMAP
70
90
80
60
10
90
E0
00
60
20
60
ENDCHAR
STARTCHAR 021A
ENCODING 538
SWIDTH 625 0
DWIDTH 10 0
BBX 9 15 0 -4
BITMAP
FF80
8880
8880
0800
0800
0800
0800
0800
0800
0800
3E00
0000
0C00
0400
0800
ENDCHAR
STARTCHAR 021B
ENCODING 539
SWIDTH 250 0
DWIDTH 4 0
BBX 4 13 0 -4
BITMAP
40
40
F0
40
40
40
40
50
60
00
60
20
60
ENDCHAR
STARTCHAR 021C
ENCODING 540
SWIDTH 562 0
DWIDTH 9 0
BBX 7 14 1 -3
BITMAP
BC
C2
82
02
06
1C
6C
02
02
02
02
04
18
E0
ENDCHAR
STARTCHAR 021D
ENCODING 541
SWIDTH 375 0
DWIDTH 6 0
BBX 4 10 1 -3
BITMAP
E0
90
10
20
60
10
10
10
20
C0
ENDCHAR
STARTCHAR 021E
ENCODING 542
SWIDTH 687 0
DWIDTH 11 0
BBX 11 15 0 0
BITMAP
1100
0A00
0400
0000
FBE0
2080
2080
2080
2080
3F80
2080
2080
2080
2080
FBE0
ENDCHAR
STARTCHAR 021F
ENCODING 543
SWIDTH 437 0
DWIDTH 7 0
BBX 7 15 0 0
BITMAP
44
28
10
00
40
C0
40
40
58
64
44
44
44
44
EE
ENDCHAR
STARTCHAR 0220
ENCODING 544
SWIDTH 625 0
DWIDTH 10 0
BBX 11 14 0 -3
BITMAP
EF00
3080
2080
2080
2080
2080
2080
2080
2080
2080
F880
0080
0080
03E0
ENDCHAR
STARTCHAR 0221
ENCODING 545
SWIDTH 500 0
DWIDTH 8 0
BBX 9 14 1 -3
BITMAP
0400
0C00
0400
0400
3C00
4400
8400
8400
8400
4400
3F00
0480
0C80
0B80
ENDCHAR
STARTCHAR 0222
ENCODING 546
SWIDTH 625 0
DWIDTH 10 0
BBX 8 11 1 0
BITMAP
04
62
81
81
81
7E
C2
81
81
81
7E
ENDCHAR
STARTCHAR 0223
ENCODING 547
SWIDTH 500 0
DWIDTH 8 0
BBX 6 11 1 0
BITMAP
40
84
84
84
78
48
84
84
84
48
30
ENDCHAR
STARTCHAR 0224
ENCODING 548
SWIDTH 625 0
DWIDTH 10 0
BBX 9 13 0 -3
BITMAP
7F80
6100
4200
0400
0400
0800
1000
2000
2000
4000
FF80
0080
0080
ENDCHAR
STARTCHAR 0225
ENCODING 549
SWIDTH 437 0
DWIDTH 7 0
BBX 6 9 0 -3
BITMAP
7C
48
10
10
20
40
FC
04
04
ENDCHAR
STARTCHAR 0226
ENCODING 550
SWIDTH 687 0
DWIDTH 11 0
BBX 11 13 0 0
BITMAP
0400
0000
0400
0400
0A00
0A00
0A00
1100
1100
1F00
2080
2080
F1E0
ENDCHAR
STARTCHAR 0227
ENCODING 551
SWIDTH 437 0
DWIDTH 7 0
BBX 6 9 1 0
BITMAP
20
00
70
88
18
68
88
98
6C
ENDCHAR
STARTCHAR 0228
ENCODING 552
SWIDTH 625 0
DWIDTH 10 0
BBX 10 14 0 -3
BITMAP
FF80
2080
2000
2000
2200
3E00
2200
2000
2040
2080
FF80
0400
0400
0C00
ENDCHAR
STARTCHAR 0229
ENCODING 553
SWIDTH 437 0
DWIDTH 7 0
BBX 5 10 1 -3
BITMAP
70
88
F8
80
80
88
78
10
10
30
ENDCHAR
STARTCHAR 022A
ENCODING 554
SWIDTH 750 0
DWIDTH 12 0
BBX 10 15 1 0
BITMAP
1E00
0000
1200
0000
1E00
2100
4080
8040
8040
8040
8040
8040
4080
2100
1E00
ENDCHAR
STARTCHAR 022B
ENCODING 555
SWIDTH 500 0
DWIDTH 8 0
BBX 6 11 1 0
BITMAP
7C
00
28
00
30
48
84
84
84
48
30
ENDCHAR
STARTCHAR 022C
ENCODING 556
SWIDTH 750 0
DWIDTH 12 0
BBX 10 15 1 0
BITMAP
3F00
0000
3900
2600
1E00
2100
4080
8040
8040
8040
8040
8040
4080
2100
1E00
ENDCHAR
STARTCHAR 022D
ENCODING 557
SWIDTH 500 0
DWIDTH 8 0
BBX 6 12 1 0
BITMAP
7C
00
34
58
00
30
48
84
84
84
48
30
ENDCHAR
STARTCHAR 022E
ENCODING 558
SWIDTH 750 0
DWIDTH 12 0
BBX 10 13 1 0
BITMAP
0400
0000
1E00
2100
4080
8040
8040
8040
8040
8040
4080
2100
1E00
ENDCHAR
STARTCHAR 022F
ENCODING 559
SWIDTH 500 0
DWIDTH 8 0
BBX 6 9 1 0
BITMAP
10
00
30
48
84
84
84
48
30
ENDCHAR
STARTCHAR 0230
ENCODING 560
SWIDTH 750 0
DWIDTH 12 0
BBX 10 15 1 0
BITMAP
0E00
0000
0400
0000
1E00
2100
4080
8040
8040
8040
8040
8040
4080
2100
1E00
ENDCHAR
STARTCHAR 0231
ENCODING 561
SWIDTH 500 0
DWIDTH 8 0
BBX 6 11 1 0
BITMAP
7C
00
10
00
30
48
84
84
84
48
30
ENDCHAR
STARTCHAR 0232
ENCODING 562
SWIDTH 687 0
DWIDTH 11 0
BBX 10 13 1 0
BITMAP
3E00
0000
F3C0
2180
2200
1200
1400
0800
0800
0800
0800
0800
3E00
ENDCHAR
STARTCHAR 0233
ENCODING 563
SWIDTH 437 0
DWIDTH 7 0
BBX 7 12 0 -3
BITMAP
7C
00
EE
44
44
28
28
18
10
10
20
C0
ENDCHAR
STARTCHAR 0234
ENCODING 564
SWIDTH 250 0
DWIDTH 4 0
BBX 5 14 0 -3
BITMAP
40
C0
40
40
40
40
40
40
40
40
70
48
C8
B8
ENDCHAR
STARTCHAR 0235
ENCODING 565
SWIDTH 500 0
DWIDTH 8 0
BBX 9 10 0 -3
BITMAP
5C00
E400
4400
4400
4400
4400
E700
0480
0C80
0B80
ENDCHAR
STARTCHAR 0236
ENCODING 566
SWIDTH 312 0
DWIDTH 5 0
BBX 5 8 0 1
BITMAP
40
F0
40
40
70
48
C8
B8
ENDCHAR
STARTCHAR 0237
ENCODING 567
SWIDTH 250 0
DWIDTH 4 0
BBX 4 10 -1 -3
BITMAP
10
30
10
10
10
10
10
10
10
E0
ENDCHAR
STARTCHAR 0238
ENCODING 568
SWIDTH 750 0
DWIDTH 12 0
BBX 11 11 1 0
BITMAP
0400
0C00
0400
0400
3D80
4640
8420
8420
8420
4440
3B80
ENDCHAR
STARTCHAR 0239
ENCODING 569
SWIDTH 750 0
DWIDTH 12 0
BBX 11 10 1 -3
BITMAP
3D80
4640
8420
8420
8420
4440
3F80
0400
0400
0E00
ENDCHAR
STARTCHAR 023A
ENCODING 570
SWIDTH 750 0
DWIDTH 12 0
BBX 11 12 0 -1
BITMAP
0480
0500
0B00
0A00
1500
1500
3F80
2880
5040
6040
E0E0
4000
ENDCHAR
STARTCHAR 023B
ENCODING 571
SWIDTH 687 0
DWIDTH 11 0
BBX 9 13 1 -1
BITMAP
0200
3C80
4780
4480
8480
8800
8800
8800
9000
5080
3100
1E00
2000
ENDCHAR
STARTCHAR 023C
ENCODING 572
SWIDTH 500 0
DWIDTH 8 0
BBX 6 13 1 -3
BITMAP
04
08
08
38
5C
90
90
A4
64
78
40
40
80
ENDCHAR
STARTCHAR 023D
ENCODING 573
SWIDTH 625 0
DWIDTH 10 0
BBX 10 11 0 0
BITMAP
F800
2000
2000
2000
2000
FC00
2000
2000
2040
20C0
FF80
ENDCHAR
STARTCHAR 023E
ENCODING 574
SWIDTH 625 0
DWIDTH 10 0
BBX 9 13 0 -1
BITMAP
0100
FF80
8B80
8C80
0C00
0800
1800
1800
2800
2800
4800
7C00
8000
ENDCHAR
STARTCHAR 023F
ENCODING 575
SWIDTH 375 0
DWIDTH 6 0
BBX 4 10 1 -3
BITMAP
70
90
40
20
90
90
E0
40
40
70
ENDCHAR
STARTCHAR 0240
ENCODING 576
SWIDTH 437 0
DWIDTH 7 0
BBX 7 10 0 -3
BITMAP
FE
84
08
10
20
40
E0
10
10
0E
ENDCHAR
STARTCHAR 0241
ENCODING 577
SWIDTH 562 0
DWIDTH 9 0
BBX 6 11 2 0
BITMAP
70
88
84
04
04
08
30
20
20
20
70
ENDCHAR
STARTCHAR 0242
ENCODING 578
SWIDTH 375 0
DWIDTH 6 0
BBX 5 7 0 0
BITMAP
70
88
08
08
30
20
70
ENDCHAR
STARTCHAR 0243
ENCODING 579
SWIDTH 687 0
DWIDTH 11 0
BBX 10 11 0 0
BITMAP
FF00
2080
2040
2040
2080
3F00
2080
FC40
2040
2080
FF00
ENDCHAR
STARTCHAR 0244
ENCODING 580
SWIDTH 750 0
DWIDTH 12 0
BBX 12 11 0 0
BITMAP
F9F0
2040
2040
2040
2040
FFF0
2040
2040
2040
1080
0F00
ENDCHAR
STARTCHAR 0245
ENCODING 581
SWIDTH 750 0
DWIDTH 12 0
BBX 12 11 0 0
BITMAP
0400
0400
0A00
0A00
0900
1100
1080
2080
2080
2040
F0F0
ENDCHAR
STARTCHAR 0246
ENCODING 582
SWIDTH 625 0
DWIDTH 10 0
BBX 10 13 0 -1
BITMAP
0080
FF80
2180
2280
2200
2600
3E00
2600
2800
2840
30C0
FF80
2000
ENDCHAR
STARTCHAR 0247
ENCODING 583
SWIDTH 437 0
DWIDTH 7 0
BBX 6 13 1 -3
BITMAP
04
08
08
78
94
FC
A0
A0
E4
78
40
40
80
ENDCHAR
STARTCHAR 0248
ENCODING 584
SWIDTH 375 0
DWIDTH 6 0
BBX 5 11 1 0
BITMAP
F8
20
20
20
20
F8
20
20
20
A0
C0
ENDCHAR
STARTCHAR 0249
ENCODING 585
SWIDTH 250 0
DWIDTH 4 0
BBX 5 14 -1 -3
BITMAP
10
10
00
00
10
30
10
10
38
10
10
10
D0
E0
ENDCHAR
STARTCHAR 024A
ENCODING 586
SWIDTH 687 0
DWIDTH 11 0
BBX 12 14 1 -3
BITMAP
1F80
2080
4080
8080
8080
8080
8080
8080
4080
2080
1F80
0080
0080
0070
ENDCHAR
STARTCHAR 024B
ENCODING 587
SWIDTH 500 0
DWIDTH 8 0
BBX 9 10 1 -3
BITMAP
3C00
4400
8400
8400
8400
4400
3C00
0400
0400
0380
ENDCHAR
STARTCHAR 024C
ENCODING 588
SWIDTH 687 0
DWIDTH 11 0
BBX 11 11 0 0
BITMAP
FE00
2100
2080
2080
2100
FE00
2400
2200
2100
20C0
F820
ENDCHAR
STARTCHAR 024D
ENCODING 589
SWIDTH 312 0
DWIDTH 5 0
BBX 5 7 0 0
BITMAP
58
E0
40
E0
40
40
E0
ENDCHAR
STARTCHAR 024E
ENCODING 590
SWIDTH 750 0
DWIDTH 12 0
BBX 10 11 1 0
BITMAP
E3C0
4100
FFC0
2200
1400
0800
0800
0800
0800
0800
3E00
ENDCHAR
STARTCHAR 024F
ENCODING 591
SWIDTH 500 0
DWIDTH 8 0
BBX 8 10 0 -3
BITMAP
E7
42
FF
24
14
18
08
08
10
60
ENDCHAR
STARTCHAR 0250
ENCODING 592
SWIDTH 437 0
DWIDTH 7 0
BBX 6 7 0 0
BITMAP
D8
64
44
58
60
44
38
ENDCHAR
STARTCHAR 0251
ENCODING 593
SWIDTH 500 0
DWIDTH 8 0
BBX 7 7 1 0
BITMAP
34
4C
84
84
84
44
3E
ENDCHAR
STARTCHAR 0252
ENCODING 594
SWIDTH 500 0
DWIDTH 8 0
BBX 7 7 0 0
BITMAP
D8
64
42
42
42
44
78
ENDCHAR
STARTCHAR 0253
ENCODING 595
SWIDTH 500 0
DWIDTH 8 0
BBX 6 11 1 0
BITMAP
70
88
80
80
B0
C8
84
84
84
88
70
ENDCHAR
STARTCHAR 0254
ENCODING 596
SWIDTH 437 0
DWIDTH 7 0
BBX 5 7 1 0
BITMAP
70
88
08
08
08
88
70
ENDCHAR
STARTCHAR 0255
ENCODING 597
SWIDTH 437 0
DWIDTH 7 0
BBX 5 8 1 -1
BITMAP
70
88
80
B0
C8
48
B0
80
ENDCHAR
STARTCHAR 0256
ENCODING 598
SWIDTH 500 0
DWIDTH 8 0
BBX 9 14 1 -3
BITMAP
0400
0C00
0400
0400
3400
4C00
8400
8400
8400
4400
3C00
0400
0400
0380
ENDCHAR
STARTCHAR 0257
ENCODING 599
SWIDTH 500 0
DWIDTH 8 0
BBX 10 11 1 0
BITMAP
0380
0440
0400
0400
3400
4C00
8400
8400
8400
4600
3C00
ENDCHAR
STARTCHAR 0258
ENCODING 600
SWIDTH 437 0
DWIDTH 7 0
BBX 5 7 1 0
BITMAP
70
88
F8
08
08
88
70
ENDCHAR
STARTCHAR 0259
ENCODING 601
SWIDTH 437 0
DWIDTH 7 0
BBX 5 7 1 0
BITMAP
70
88
08
08
F8
88
70
ENDCHAR
STARTCHAR 025A
ENCODING 602
SWIDTH 625 0
DWIDTH 10 0
BBX 9 7 1 0
BITMAP
7000
8A00
1E00
E580
8400
8800
7000
ENDCHAR
STARTCHAR 025B
ENCODING 603
SWIDTH 437 0
DWIDTH 7 0
BBX 5 7 1 0
BITMAP
70
88
80
70
80
88
70
ENDCHAR
STARTCHAR 025C
ENCODING 604
SWIDTH 437 0
DWIDTH 7 0
BBX 5 7 1 0
BITMAP
70
88
08
70
08
88
70
ENDCHAR
STARTCHAR 025D
ENCODING 605
SWIDTH 562 0
DWIDTH 9 0
BBX 8 7 1 0
BITMAP
70
8C
0C
73
08
88
70
ENDCHAR
STARTCHAR 025E
ENCODING 606
SWIDTH 437 0
DWIDTH 7 0
BBX 5 7 1 0
BITMAP
30
48
88
B0
88
48
30
ENDCHAR
STARTCHAR 025F
ENCODING 607
SWIDTH 312 0
DWIDTH 5 0
BBX 6 10 -2 -3
BITMAP
3C
08
08
08
08
08
3C
08
88
70
ENDCHAR
STARTCHAR 0260
ENCODING 608
SWIDTH 500 0
DWIDTH 8 0
BBX 10 14 1 -3
BITMAP
0380
0440
0400
0400
3400
4C00
8400
8400
8400
4400
3C00
0400
4400
3800
ENDCHAR
STARTCHAR 0261
ENCODING 609
SWIDTH 500 0
DWIDTH 8 0
BBX 6 10 1 -3
BITMAP
34
4C
84
84
84
44
3C
04
44
38
ENDCHAR
STARTCHAR 0262
ENCODING 610
SWIDTH 437 0
DWIDTH 7 0
BBX 6 7 1 0
BITMAP
38
48
80
80
9C
48
38
ENDCHAR
STARTCHAR 0263
ENCODING 611
SWIDTH 500 0
DWIDTH 8 0
BBX 8 10 0 -3
BITMAP
E7
42
44
24
28
18
10
28
28
38
ENDCHAR
STARTCHAR 0264
ENCODING 612
SWIDTH 437 0
DWIDTH 7 0
BBX 6 7 0 0
BITMAP
44
A8
10
10
28
28
38
ENDCHAR
STARTCHAR 0265
ENCODING 613
SWIDTH 500 0
DWIDTH 8 0
BBX 7 10 0 -3
BITMAP
EE
44
44
44
44
4C
34
04
06
04
ENDCHAR
STARTCHAR 0266
ENCODING 614
SWIDTH 500 0
DWIDTH 8 0
BBX 7 11 0 0
BITMAP
38
48
40
40
58
64
44
44
44
44
EE
ENDCHAR
STARTCHAR 0267
ENCODING 615
SWIDTH 500 0
DWIDTH 8 0
BBX 6 14 0 -3
BITMAP
38
48
40
40
58
64
44
44
44
44
E4
04
04
38
ENDCHAR
STARTCHAR 0268
ENCODING 616
SWIDTH 250 0
DWIDTH 4 0
BBX 3 11 1 0
BITMAP
40
00
00
00
40
C0
40
E0
40
40
E0
ENDCHAR
STARTCHAR 0269
ENCODING 617
SWIDTH 250 0
DWIDTH 4 0
BBX 4 7 0 0
BITMAP
40
C0
40
40
40
50
70
ENDCHAR
STARTCHAR 026A
ENCODING 618
SWIDTH 250 0
DWIDTH 4 0
BBX 3 7 0 0
BITMAP
E0
40
40
40
40
40
E0
ENDCHAR
STARTCHAR 026B
ENCODING 619
SWIDTH 250 0
DWIDTH 4 0
BBX 5 11 0 0
BITMAP
20
60
20
20
68
B0
20
20
20
20
70
ENDCHAR
STARTCHAR 026C
ENCODING 620
SWIDTH 250 0
DWIDTH 4 0
BBX 4 11 0 0
BITMAP
20
60
20
20
60
A0
70
20
20
20
70
ENDCHAR
STARTCHAR 026D
ENCODING 621
SWIDTH 250 0
DWIDTH 4 0
BBX 5 14 0 -3
BITMAP
40
C0
40
40
40
40
40
40
40
40
40
40
40
38
ENDCHAR
STARTCHAR 026E
ENCODING 622
SWIDTH 562 0
DWIDTH 9 0
BBX 8 14 0 -3
BITMAP
40
C0
40
40
7F
42
44
44
4E
41
E1
01
22
1C
ENDCHAR
STARTCHAR 026F
ENCODING 623
SWIDTH 750 0
DWIDTH 12 0
BBX 11 7 0 0
BITMAP
EEE0
4440
4440
4440
4440
4CE0
3340
ENDCHAR
STARTCHAR 0270
ENCODING 624
SWIDTH 750 0
DWIDTH 12 0
BBX 11 10 0 -3
BITMAP
EEE0
4440
4440
4440
4440
4CC0
3340
0040
0060
0040
ENDCHAR
STARTCHAR 0271
ENCODING 625
SWIDTH 750 0
DWIDTH 12 0
BBX 10 10 1 -3
BITMAP
5980
E640
4440
4440
4440
4440
EE40
0040
0040
0380
ENDCHAR
STARTCHAR 0272
ENCODING 626
SWIDTH 500 0
DWIDTH 8 0
BBX 9 10 -1 -3
BITMAP
1600
3900
1100
1100
1100
1100
1380
1000
1000
E000
ENDCHAR
STARTCHAR 0273
ENCODING 627
SWIDTH 500 0
DWIDTH 8 0
BBX 8 10 1 -3
BITMAP
58
E4
44
44
44
44
E4
04
04
03
ENDCHAR
STARTCHAR 0274
ENCODING 628
SWIDTH 500 0
DWIDTH 8 0
BBX 8 7 0 0
BITMAP
C7
62
52
4A
4A
46
E2
ENDCHAR
STARTCHAR 0275
ENCODING 629
SWIDTH 500 0
DWIDTH 8 0
BBX 6 7 1 0
BITMAP
30
48
84
FC
84
C8
30
ENDCHAR
STARTCHAR 0276
ENCODING 630
SWIDTH 625 0
DWIDTH 10 0
BBX 9 7 1 0
BITMAP
3F80
4880
8A00
8E00
8A00
4880
3F80
ENDCHAR
STARTCHAR 0277
ENCODING 631
SWIDTH 687 0
DWIDTH 11 0
BBX 9 7 1 0
BITMAP
3E00
4100
8880
8880
8880
8880
7700
ENDCHAR
STARTCHAR 0278
ENCODING 632
SWIDTH 562 0
DWIDTH 9 0
BBX 7 14 1 -3
BITMAP
38
10
10
10
38
54
92
92
92
54
38
10
10
38
ENDCHAR
STARTCHAR 0279
ENCODING 633
SWIDTH 312 0
DWIDTH 5 0
BBX 5 7 0 0
BITMAP
38
10
10
10
10
18
F0
ENDCHAR
STARTCHAR 027A
ENCODING 634
SWIDTH 312 0
DWIDTH 5 0
BBX 5 11 0 0
BITMAP
38
10
10
10
10
10
10
10
10
18
F0
ENDCHAR
STARTCHAR 027B
ENCODING 635
SWIDTH 312 0
DWIDTH 5 0
BBX 7 10 0 -3
BITMAP
38
10
10
10
10
10
F0
10
10
0E
ENDCHAR
STARTCHAR 027C
ENCODING 636
SWIDTH 312 0
DWIDTH 5 0
BBX 5 10 0 -3
BITMAP
58
E0
40
40
40
40
40
40
40
E0
ENDCHAR
STARTCHAR 027D
ENCODING 637
SWIDTH 312 0
DWIDTH 5 0
BBX 5 10 0 -3
BITMAP
58
E0
40
40
40
40
40
40
40
38
ENDCHAR
STARTCHAR 027E
ENCODING 638
SWIDTH 312 0
DWIDTH 5 0
BBX 5 7 0 0
BITMAP
30
48
40
40
40
40
E0
ENDCHAR
STARTCHAR 027F
ENCODING 639
SWIDTH 312 0
DWIDTH 5 0
BBX 5 10 0 -3
BITMAP
60
90
10
10
10
10
10
10
10
38
ENDCHAR
STARTCHAR 0280
ENCODING 640
SWIDTH 500 0
DWIDTH 8 0
BBX 8 7 0 0
BITMAP
F8
44
44
78
48
44
E3
ENDCHAR
STARTCHAR 0281
ENCODING 641
SWIDTH 500 0
DWIDTH 8 0
BBX 8 7 0 0
BITMAP
E3
44
48
78
44
44
F8
ENDCHAR
STARTCHAR 0282
ENCODING 642
SWIDTH 375 0
DWIDTH 6 0
BBX 4 10 1 -3
BITMAP
70
90
80
60
10
90
E0
80
80
60
ENDCHAR
STARTCHAR 0283
ENCODING 643
SWIDTH 312 0
DWIDTH 5 0
BBX 9 14 -2 -3
BITMAP
0700
0880
0800
0800
0800
0800
0800
0800
0800
0800
0800
0800
8800
7000
ENDCHAR
STARTCHAR 0284
ENCODING 644
SWIDTH 312 0
DWIDTH 5 0
BBX 9 14 -2 -3
BITMAP
0700
0880
0800
0800
0800
0800
0800
0800
0800
0800
3C00
0800
8800
7000
ENDCHAR
STARTCHAR 0285
ENCODING 645
SWIDTH 437 0
DWIDTH 7 0
BBX 9 10 -1 -3
BITMAP
7000
8800
0800
0800
0800
0800
0800
0800
0880
0700
ENDCHAR
STARTCHAR 0286
ENCODING 646
SWIDTH 312 0
DWIDTH 5 0
BBX 7 14 0 -3
BITMAP
1C
22
20
20
20
20
20
20
20
20
20
60
A0
D0
ENDCHAR
STARTCHAR 0287
ENCODING 647
SWIDTH 250 0
DWIDTH 4 0
BBX 4 9 0 0
BITMAP
60
A0
20
20
20
20
F0
20
20
ENDCHAR
STARTCHAR 0288
ENCODING 648
SWIDTH 250 0
DWIDTH 4 0
BBX 5 12 0 -3
BITMAP
40
40
F0
40
40
40
40
40
40
40
40
38
ENDCHAR
STARTCHAR 0289
ENCODING 649
SWIDTH 500 0
DWIDTH 8 0
BBX 7 7 0 0
BITMAP
CC
44
44
FE
44
4E
34
ENDCHAR
STARTCHAR 028A
ENCODING 650
SWIDTH 562 0
DWIDTH 9 0
BBX 7 7 1 0
BITMAP
C6
44
82
82
82
44
38
ENDCHAR
STARTCHAR 028B
ENCODING 651
SWIDTH 500 0
DWIDTH 8 0
BBX 7 7 0 0
BITMAP
CC
42
42
42
42
44
38
ENDCHAR
STARTCHAR 028C
ENCODING 652
SWIDTH 500 0
DWIDTH 8 0
BBX 8 7 0 0
BITMAP
10
18
28
24
44
42
E7
ENDCHAR
STARTCHAR 028D
ENCODING 653
SWIDTH 750 0
DWIDTH 12 0
BBX 12 7 0 0
BITMAP
1080
1980
2940
2640
4420
4220
E770
ENDCHAR
STARTCHAR 028E
ENCODING 654
SWIDTH 500 0
DWIDTH 8 0
BBX 8 11 0 0
BITMAP
07
08
08
10
18
28
24
24
42
42
E7
ENDCHAR
STARTCHAR 028F
ENCODING 655
SWIDTH 500 0
DWIDTH 8 0
BBX 8 7 0 0
BITMAP
E7
46
24
18
10
10
38
ENDCHAR
STARTCHAR 0290
ENCODING 656
SWIDTH 437 0
DWIDTH 7 0
BBX 9 10 0 -3
BITMAP
7C00
4800
1000
2000
2000
4400
FC00
0400
0400
0380
ENDCHAR
STARTCHAR 0291
ENCODING 657
SWIDTH 500 0
DWIDTH 8 0
BBX 8 8 0 -1
BITMAP
7E
44
08
10
27
49
FF
10
ENDCHAR
STARTCHAR 0292
ENCODING 658
SWIDTH 437 0
DWIDTH 7 0
BBX 6 10 0 -3
BITMAP
7C
48
10
10
38
04
04
04
88
70
ENDCHAR
STARTCHAR 0293
ENCODING 659
SWIDTH 437 0
DWIDTH 7 0
BBX 6 10 0 -3
BITMAP
7C
48
10
10
38
04
04
74
88
7C
ENDCHAR
STARTCHAR 0294
ENCODING 660
SWIDTH 437 0
DWIDTH 7 0
BBX 5 11 1 0
BITMAP
70
90
08
08
08
08
30
20
20
20
70
ENDCHAR
STARTCHAR 0295
ENCODING 661
SWIDTH 437 0
DWIDTH 7 0
BBX 5 11 1 0
BITMAP
70
88
80
80
80
80
60
20
20
20
70
ENDCHAR
STARTCHAR 0296
ENCODING 662
SWIDTH 437 0
DWIDTH 7 0
BBX 5 11 1 0
BITMAP
70
20
20
20
30
08
08
08
08
90
70
ENDCHAR
STARTCHAR 0297
ENCODING 663
SWIDTH 437 0
DWIDTH 7 0
BBX 5 10 1 -3
BITMAP
70
88
88
80
80
80
80
88
88
70
ENDCHAR
STARTCHAR 0298
ENCODING 664
SWIDTH 750 0
DWIDTH 12 0
BBX 10 11 1 0
BITMAP
1E00
2100
4080
8040
8040
8840
8040
8040
4080
2100
1E00
ENDCHAR
STARTCHAR 0299
ENCODING 665
SWIDTH 500 0
DWIDTH 8 0
BBX 7 7 0 0
BITMAP
FC
42
42
7C
42
42
FC
ENDCHAR
STARTCHAR 029A
ENCODING 666
SWIDTH 437 0
DWIDTH 7 0
BBX 5 7 1 0
BITMAP
60
90
88
68
88
90
60
ENDCHAR
STARTCHAR 029B
ENCODING 667
SWIDTH 437 0
DWIDTH 7 0
BBX 7 9 1 0
BITMAP
0E
0A
38
48
80
80
9C
48
38
ENDCHAR
STARTCHAR 029C
ENCODING 668
SWIDTH 562 0
DWIDTH 9 0
BBX 7 7 1 0
BITMAP
EE
44
44
7C
44
44
EE
ENDCHAR
STARTCHAR 029D
ENCODING 669
SWIDTH 250 0
DWIDTH 4 0
BBX 5 14 -1 -3
BITMAP
10
00
00
00
10
30
10
10
10
10
10
78
90
60
ENDCHAR
STARTCHAR 029E
ENCODING 670
SWIDTH 500 0
DWIDTH 8 0
BBX 8 10 0 -3
BITMAP
F7
22
12
0E
0A
12
72
02
03
02
ENDCHAR
STARTCHAR 029F
ENCODING 671
SWIDTH 437 0
DWIDTH 7 0
BBX 6 7 1 0
BITMAP
E0
40
40
40
40
44
FC
ENDCHAR
STARTCHAR 02A0
ENCODING 672
SWIDTH 500 0
DWIDTH 8 0
BBX 10 14 1 -3
BITMAP
0180
0640
0400
0400
3400
4C00
8400
8400
8400
4C00
3400
0400
0400
0E00
ENDCHAR
STARTCHAR 02A1
ENCODING 673
SWIDTH 437 0
DWIDTH 7 0
BBX 5 11 1 0
BITMAP
70
90
08
08
08
08
30
20
F8
20
70
ENDCHAR
STARTCHAR 02A2
ENCODING 674
SWIDTH 437 0
DWIDTH 7 0
BBX 5 11 1 0
BITMAP
70
88
80
80
80
80
60
20
F8
20
70
ENDCHAR
STARTCHAR 02A3
ENCODING 675
SWIDTH 812 0
DWIDTH 13 0
BBX 11 11 1 0
BITMAP
0400
0C00
0400
0400
37E0
4C40
8480
8500
8500
4E20
37E0
ENDCHAR
STARTCHAR 02A4
ENCODING 676
SWIDTH 875 0
DWIDTH 14 0
BBX 12 14 1 -3
BITMAP
0400
0C00
0400
0400
37F0
4C20
8440
8440
84E0
4E10
3410
0010
0220
01C0
ENDCHAR
STARTCHAR 02A5
ENCODING 677
SWIDTH 875 0
DWIDTH 14 0
BBX 13 12 1 -1
BITMAP
0400
0C00
0400
0400
37F0
4C20
8440
8480
8538
4E48
37F8
0080
ENDCHAR
STARTCHAR 02A6
ENCODING 678
SWIDTH 562 0
DWIDTH 9 0
BBX 8 9 0 0
BITMAP
40
40
FF
49
48
46
41
41
3E
ENDCHAR
STARTCHAR 02A7
ENCODING 679
SWIDTH 437 0
DWIDTH 7 0
BBX 9 14 0 -3
BITMAP
0700
0880
4800
4800
F800
4800
4800
4800
4800
4800
3800
0800
8800
7000
ENDCHAR
STARTCHAR 02A8
ENCODING 680
SWIDTH 625 0
DWIDTH 10 0
BBX 9 9 0 0
BITMAP
4000
4000
F700
4880
4800
4B00
4C80
4880
3700
ENDCHAR
STARTCHAR 02A9
ENCODING 681
SWIDTH 812 0
DWIDTH 13 0
BBX 10 14 1 -3
BITMAP
3800
4400
4000
4000
FD80
4640
4440
4440
4440
4440
EE40
0040
0040
0380
ENDCHAR
STARTCHAR 02AA
ENCODING 682
SWIDTH 562 0
DWIDTH 9 0
BBX 8 11 0 0
BITMAP
40
C0
40
40
4F
51
58
46
41
61
FE
ENDCHAR
STARTCHAR 02AB
ENCODING 683
SWIDTH 562 0
DWIDTH 9 0
BBX 8 11 0 0
BITMAP
40
C0
40
40
7F
42
44
48
50
61
FF
ENDCHAR
STARTCHAR 02AC
ENCODING 684
SWIDTH 500 0
DWIDTH 8 0
BBX 8 11 0 0
BITMAP
DB
4A
4A
34
24
00
DB
4A
4A
34
24
ENDCHAR
STARTCHAR 02AD
ENCODING 685
SWIDTH 500 0
DWIDTH 8 0
BBX 7 11 0 0
BITMAP
FE
82
82
00
00
00
00
00
FE
82
82
ENDCHAR
STARTCHAR 02AE
ENCODING 686
SWIDTH 625 0
DWIDTH 10 0
BBX 10 10 0 -3
BITMAP
E1C0
1080
1080
1080
1080
1180
0E80
0080
00C0
0080
ENDCHAR
STARTCHAR 02AF
ENCODING 687
SWIDTH 625 0
DWIDTH 10 0
BBX 12 10 0 -3
BITMAP
E1C0
1080
1080
1080
1080
1180
0E80
0080
0080
0070
ENDCHAR
STARTCHAR 02B0
ENCODING 688
SWIDTH 312 0
DWIDTH 5 0
BBX 5 7 0 4
BITMAP
C0
40
40
70
50
50
D8
ENDCHAR
STARTCHAR 02B1
ENCODING 689
SWIDTH 312 0
DWIDTH 5 0
BBX 5 7 0 4
BITMAP
30
40
40
70
50
50
D8
ENDCHAR
STARTCHAR 02B2
ENCODING 690
SWIDTH 125 0
DWIDTH 2 0
BBX 2 9 0 2
BITMAP
40
00
00
C0
40
40
40
40
C0
ENDCHAR
STARTCHAR 02B3
ENCODING 691
SWIDTH 187 0
DWIDTH 3 0
BBX 2 4 1 4
BITMAP
C0
80
80
80
ENDCHAR
STARTCHAR 02B4
ENCODING 692
SWIDTH 187 0
DWIDTH 3 0
BBX 2 4 0 4
BITMAP
40
40
40
C0
ENDCHAR
STARTCHAR 02B5
ENCODING 693
SWIDTH 187 0
DWIDTH 3 0
BBX 3 6 0 2
BITMAP
40
40
40
C0
40
20
ENDCHAR
STARTCHAR 02B6
ENCODING 694
SWIDTH 312 0
DWIDTH 5 0
BBX 5 4 0 4
BITMAP
D8
60
50
F0
ENDCHAR
STARTCHAR 02B7
ENCODING 695
SWIDTH 437 0
DWIDTH 7 0
BBX 7 4 0 4
BITMAP
D6
54
6C
28
ENDCHAR
STARTCHAR 02B8
ENCODING 696
SWIDTH 312 0
DWIDTH 5 0
BBX 5 6 0 2
BITMAP
D8
50
50
20
20
C0
ENDCHAR
STARTCHAR 02B9
ENCODING 697
SWIDTH 250 0
DWIDTH 4 0
BBX 2 5 1 6
BITMAP
40
40
80
80
80
ENDCHAR
STARTCHAR 02BA
ENCODING 698
SWIDTH 375 0
DWIDTH 6 0
BBX 4 5 1 6
BITMAP
50
50
A0
A0
A0
ENDCHAR
STARTCHAR 02BB
ENCODING 699
SWIDTH 312 0
DWIDTH 5 0
BBX 2 3 1 8
BITMAP
40
80
C0
ENDCHAR
STARTCHAR 02BC
ENCODING 700
SWIDTH 312 0
DWIDTH 5 0
BBX 2 3 2 8
BITMAP
C0
40
80
ENDCHAR
STARTCHAR 02BD
ENCODING 701
SWIDTH 312 0
DWIDTH 5 0
BBX 2 3 1 8
BITMAP
C0
80
40
ENDCHAR
STARTCHAR 02BE
ENCODING 702
SWIDTH 312 0
DWIDTH 5 0
BBX 2 4 2 8
BITMAP
80
40
40
80
ENDCHAR
STARTCHAR 02BF
ENCODING 703
SWIDTH 312 0
DWIDTH 5 0
BBX 2 4 1 8
BITMAP
40
80
80
40
ENDCHAR
STARTCHAR 02C0
ENCODING 704
SWIDTH 250 0
DWIDTH 4 0
BBX 3 7 0 4
BITMAP
C0
20
20
20
40
40
40
ENDCHAR
STARTCHAR 02C1
ENCODING 705
SWIDTH 250 0
DWIDTH 4 0
BBX 3 7 1 4
BITMAP
60
80
80
80
40
40
40
ENDCHAR
STARTCHAR 02C2
ENCODING 706
SWIDTH 562 0
DWIDTH 9 0
BBX 7 7 1 2
BITMAP
02
1C
60
80
60
1C
02
ENDCHAR
STARTCHAR 02C3
ENCODING 707
SWIDTH 562 0
DWIDTH 9 0
BBX 7 7 1 2
BITMAP
80
70
0C
02
0C
70
80
ENDCHAR
STARTCHAR 02C4
ENCODING 708
SWIDTH 562 0
DWIDTH 9 0
BBX 7 8 1 1
BITMAP
10
28
28
44
44
44
82
82
ENDCHAR
STARTCHAR 02C5
ENCODING 709
SWIDTH 562 0
DWIDTH 9 0
BBX 7 8 1 1
BITMAP
82
82
44
44
44
28
28
10
ENDCHAR
STARTCHAR 02C6
ENCODING 710
SWIDTH 312 0
DWIDTH 5 0
BBX 5 3 0 8
BITMAP
20
50
88
ENDCHAR
STARTCHAR 02C7
ENCODING 711
SWIDTH 312 0
DWIDTH 5 0
BBX 5 3 0 8
BITMAP
88
50
20
ENDCHAR
STARTCHAR 02C8
ENCODING 712
SWIDTH 312 0
DWIDTH 5 0
BBX 1 3 2 8
BITMAP
80
80
80
ENDCHAR
STARTCHAR 02C9
ENCODING 713
SWIDTH 312 0
DWIDTH 5 0
BBX 5 1 0 10
BITMAP
F8
ENDCHAR
STARTCHAR 02CA
ENCODING 714
SWIDTH 312 0
DWIDTH 5 0
BBX 2 3 2 8
BITMAP
40
80
80
ENDCHAR
STARTCHAR 02CB
ENCODING 715
SWIDTH 312 0
DWIDTH 5 0
BBX 2 3 1 8
BITMAP
80
40
40
ENDCHAR
STARTCHAR 02CC
ENCODING 716
SWIDTH 312 0
DWIDTH 5 0
BBX 1 3 2 -4
BITMAP
80
80
80
ENDCHAR
STARTCHAR 02CD
ENCODING 717
SWIDTH 312 0
DWIDTH 5 0
BBX 5 1 0 -2
BITMAP
F8
ENDCHAR
STARTCHAR 02CE
ENCODING 718
SWIDTH 312 0
DWIDTH 5 0
BBX 2 3 1 -4
BITMAP
80
40
40
ENDCHAR
STARTCHAR 02CF
ENCODING 719
SWIDTH 312 0
DWIDTH 5 0
BBX 2 3 2 -4
BITMAP
40
80
80
ENDCHAR
STARTCHAR 02D0
ENCODING 720
SWIDTH 250 0
DWIDTH 4 0
BBX 3 7 1 0
BITMAP
E0
40
00
00
00
40
E0
ENDCHAR
STARTCHAR 02D1
ENCODING 721
SWIDTH 250 0
DWIDTH 4 0
BBX 3 2 1 5
BITMAP
E0
40
ENDCHAR
STARTCHAR 02D2
ENCODING 722
SWIDTH 312 0
DWIDTH 5 0
BBX 2 4 2 1
BITMAP
80
40
40
80
ENDCHAR
STARTCHAR 02D3
ENCODING 723
SWIDTH 312 0
DWIDTH 5 0
BBX 2 4 1 1
BITMAP
40
80
80
40
ENDCHAR
STARTCHAR 02D4
ENCODING 724
SWIDTH 312 0
DWIDTH 5 0
BBX 3 3 1 1
BITMAP
40
40
E0
ENDCHAR
STARTCHAR 02D5
ENCODING 725
SWIDTH 312 0
DWIDTH 5 0
BBX 3 3 1 1
BITMAP
E0
40
40
ENDCHAR
STARTCHAR 02D6
ENCODING 726
SWIDTH 312 0
DWIDTH 5 0
BBX 3 3 1 1
BITMAP
40
E0
40
ENDCHAR
STARTCHAR 02D7
ENCODING 727
SWIDTH 312 0
DWIDTH 5 0
BBX 5 1 0 3
BITMAP
F8
ENDCHAR
STARTCHAR 02D8
ENCODING 728
SWIDTH 312 0
DWIDTH 5 0
BBX 4 2 0 9
BITMAP
90
60
ENDCHAR
STARTCHAR 02D9
ENCODING 729
SWIDTH 312 0
DWIDTH 5 0
BBX 1 1 2 10
BITMAP
80
ENDCHAR
STARTCHAR 02DA
ENCODING 730
SWIDTH 312 0
DWIDTH 5 0
BBX 4 4 1 7
BITMAP
60
90
90
60
ENDCHAR
STARTCHAR 02DB
ENCODING 731
SWIDTH 312 0
DWIDTH 5 0
BBX 3 2 0 -2
BITMAP
80
E0
ENDCHAR
STARTCHAR 02DC
ENCODING 732
SWIDTH 312 0
DWIDTH 5 0
BBX 5 2 0 9
BITMAP
68
B0
ENDCHAR
STARTCHAR 02DD
ENCODING 733
SWIDTH 312 0
DWIDTH 5 0
BBX 4 2 1 8
BITMAP
50
A0
ENDCHAR
STARTCHAR 02DE
ENCODING 734
SWIDTH 312 0
DWIDTH 5 0
BBX 3 3 0 3
BITMAP
C0
40
20
ENDCHAR
STARTCHAR 02DF
ENCODING 735
SWIDTH 375 0
DWIDTH 6 0
BBX 5 5 0 6
BITMAP
88
50
20
50
88
ENDCHAR
STARTCHAR 02E0
ENCODING 736
SWIDTH 312 0
DWIDTH 5 0
BBX 5 6 0 2
BITMAP
D8
50
50
20
50
70
ENDCHAR
STARTCHAR 02E1
ENCODING 737
SWIDTH 187 0
DWIDTH 3 0
BBX 3 7 0 4
BITMAP
40
C0
40
40
40
40
E0
ENDCHAR
STARTCHAR 02E2
ENCODING 738
SWIDTH 187 0
DWIDTH 3 0
BBX 3 4 0 4
BITMAP
E0
C0
20
E0
ENDCHAR
STARTCHAR 02E3
ENCODING 739
SWIDTH 312 0
DWIDTH 5 0
BBX 5 4 0 4
BITMAP
D0
60
50
D8
ENDCHAR
STARTCHAR 02E4
ENCODING 740
SWIDTH 250 0
DWIDTH 4 0
BBX 3 7 1 4
BITMAP
60
80
80
80
40
40
E0
ENDCHAR
STARTCHAR 02E5
ENCODING 741
SWIDTH 375 0
DWIDTH 6 0
BBX 4 11 1 0
BITMAP
F0
10
10
10
10
10
10
10
10
10
10
ENDCHAR
STARTCHAR 02E6
ENCODING 742
SWIDTH 375 0
DWIDTH 6 0
BBX 4 11 1 0
BITMAP
10
10
10
F0
10
10
10
10
10
10
10
ENDCHAR
STARTCHAR 02E7
ENCODING 743
SWIDTH 375 0
DWIDTH 6 0
BBX 4 11 1 0
BITMAP
10
10
10
10
10
F0
10
10
10
10
10
ENDCHAR
STARTCHAR 02E8
ENCODING 744
SWIDTH 375 0
DWIDTH 6 0
BBX 4 11 1 0
BITMAP
10
10
10
10
10
10
10
10
F0
10
10
ENDCHAR
STARTCHAR 02E9
ENCODING 745
SWIDTH 375 0
DWIDTH 6 0
BBX 4 11 1 0
BITMAP
10
10
10
10
10
10
10
10
10
10
F0
ENDCHAR
STARTCHAR 02EA
ENCODING 746
SWIDTH 312 0
DWIDTH 5 0
BBX 3 7 1 0
BITMAP
80
80
80
80
80
80
E0
ENDCHAR
STARTCHAR 02EB
ENCODING 747
SWIDTH 312 0
DWIDTH 5 0
BBX 3 7 1 0
BITMAP
80
80
80
E0
80
80
80
ENDCHAR
STARTCHAR 02EC
ENCODING 748
SWIDTH 312 0
DWIDTH 5 0
BBX 5 3 0 -4
BITMAP
88
50
20
ENDCHAR
STARTCHAR 02ED
ENCODING 749
SWIDTH 312 0
DWIDTH 5 0
BBX 5 3 0 8
BITMAP
F8
00
F8
ENDCHAR
STARTCHAR 02EE
ENCODING 750
SWIDTH 437 0
DWIDTH 7 0
BBX 4 3 2 8
BITMAP
F0
50
A0
ENDCHAR
STARTCHAR 02EF
ENCODING 751
SWIDTH 312 0
DWIDTH 5 0
BBX 3 2 1 -3
BITMAP
A0
40
ENDCHAR
STARTCHAR 02F0
ENCODING 752
SWIDTH 312 0
DWIDTH 5 0
BBX 3 2 1 -3
BITMAP
40
A0
ENDCHAR
STARTCHAR 02F1
ENCODING 753
SWIDTH 312 0
DWIDTH 5 0
BBX 2 3 1 -4
BITMAP
40
80
40
ENDCHAR
STARTCHAR 02F2
ENCODING 754
SWIDTH 312 0
DWIDTH 5 0
BBX 2 3 2 -4
BITMAP
80
40
80
ENDCHAR
STARTCHAR 02F3
ENCODING 755
SWIDTH 312 0
DWIDTH 5 0
BBX 3 3 2 -4
BITMAP
40
A0
40
ENDCHAR
STARTCHAR 02F4
ENCODING 756
SWIDTH 312 0
DWIDTH 5 0
BBX 2 3 2 1
BITMAP
80
40
40
ENDCHAR
STARTCHAR 02F5
ENCODING 757
SWIDTH 312 0
DWIDTH 5 0
BBX 4 2 1 1
BITMAP
A0
50
ENDCHAR
STARTCHAR 02F6
ENCODING 758
SWIDTH 312 0
DWIDTH 5 0
BBX 4 2 1 1
BITMAP
50
A0
ENDCHAR
STARTCHAR 02F7
ENCODING 759
SWIDTH 312 0
DWIDTH 5 0
BBX 5 2 0 -3
BITMAP
48
B0
ENDCHAR
STARTCHAR 02F8
ENCODING 760
SWIDTH 250 0
DWIDTH 4 0
BBX 1 6 1 5
BITMAP
80
00
00
00
00
80
ENDCHAR
STARTCHAR 02F9
ENCODING 761
SWIDTH 312 0
DWIDTH 5 0
BBX 3 3 1 8
BITMAP
E0
80
80
ENDCHAR
STARTCHAR 02FA
ENCODING 762
SWIDTH 312 0
DWIDTH 5 0
BBX 3 3 1 8
BITMAP
E0
20
20
ENDCHAR
STARTCHAR 02FB
ENCODING 763
SWIDTH 312 0
DWIDTH 5 0
BBX 3 3 1 -3
BITMAP
80
80
E0
ENDCHAR
STARTCHAR 02FC
ENCODING 764
SWIDTH 312 0
DWIDTH 5 0
BBX 3 3 1 -3
BITMAP
20
20
E0
ENDCHAR
STARTCHAR 02FD
ENCODING 765
SWIDTH 375 0
DWIDTH 6 0
BBX 6 3 0 -4
BITMAP
84
84
FC
ENDCHAR
STARTCHAR 02FE
ENCODING 766
SWIDTH 375 0
DWIDTH 6 0
BBX 6 3 0 -3
BITMAP
80
80
FC
ENDCHAR
STARTCHAR 02FF
ENCODING 767
SWIDTH 312 0
DWIDTH 5 0
BBX 5 5 0 -3
BITMAP
20
40
F8
40
20
ENDCHAR
STARTCHAR 0300
ENCODING 768
SWIDTH 0 0
DWIDTH 0 0
BBX 2 3 -3 12
BITMAP
80
40
40
ENDCHAR
STARTCHAR 0301
ENCODING 769
SWIDTH 0 0
DWIDTH 0 0
BBX 2 3 -3 12
BITMAP
40
80
80
ENDCHAR
STARTCHAR 0302
ENCODING 770
SWIDTH 0 0
DWIDTH 0 0
BBX 5 3 -2 8
BITMAP
20
50
88
ENDCHAR
STARTCHAR 0303
ENCODING 771
SWIDTH 0 0
DWIDTH 0 0
BBX 6 2 -7 12
BITMAP
64
9C
ENDCHAR
STARTCHAR 0304
ENCODING 772
SWIDTH 0 0
DWIDTH 0 0
BBX 5 1 -3 10
BITMAP
F8
ENDCHAR
STARTCHAR 0305
ENCODING 773
SWIDTH 0 0
DWIDTH 0 0
BBX 8 1 -4 12
BITMAP
FF
ENDCHAR
STARTCHAR 0306
ENCODING 774
SWIDTH 0 0
DWIDTH 0 0
BBX 4 2 -2 8
BITMAP
90
60
ENDCHAR
STARTCHAR 0307
ENCODING 775
SWIDTH 0 0
DWIDTH 0 0
BBX 1 1 -1 9
BITMAP
80
ENDCHAR
STARTCHAR 0308
ENCODING 776
SWIDTH 0 0
DWIDTH 0 0
BBX 3 1 -2 9
BITMAP
A0
ENDCHAR
STARTCHAR 0309
ENCODING 777
SWIDTH 0 0
DWIDTH 0 0
BBX 3 3 -3 12
BITMAP
E0
20
40
ENDCHAR
STARTCHAR 030A
ENCODING 778
SWIDTH 0 0
DWIDTH 0 0
BBX 4 4 -2 8
BITMAP
60
90
90
60
ENDCHAR
STARTCHAR 030B
ENCODING 779
SWIDTH 0 0
DWIDTH 0 0
BBX 4 2 -2 8
BITMAP
50
A0
ENDCHAR
STARTCHAR 030C
ENCODING 780
SWIDTH 0 0
DWIDTH 0 0
BBX 5 3 -2 8
BITMAP
88
50
20
ENDCHAR
STARTCHAR 030D
ENCODING 781
SWIDTH 0 0
DWIDTH 0 0
BBX 1 3 0 8
BITMAP
80
80
80
ENDCHAR
STARTCHAR 030E
ENCODING 782
SWIDTH 0 0
DWIDTH 0 0
BBX 3 3 -2 8
BITMAP
A0
A0
A0
ENDCHAR
STARTCHAR 030F
ENCODING 783
SWIDTH 0 0
DWIDTH 0 0
BBX 4 2 -2 8
BITMAP
A0
50
ENDCHAR
STARTCHAR 0310
ENCODING 784
SWIDTH 0 0
DWIDTH 0 0
BBX 4 3 -2 8
BITMAP
40
90
60
ENDCHAR
STARTCHAR 0311
ENCODING 785
SWIDTH 0 0
DWIDTH 0 0
BBX 4 2 -2 8
BITMAP
60
90
ENDCHAR
STARTCHAR 0312
ENCODING 786
SWIDTH 0 0
DWIDTH 0 0
BBX 2 3 -1 8
BITMAP
40
80
C0
ENDCHAR
STARTCHAR 0313
ENCODING 787
SWIDTH 0 0
DWIDTH 0 0
BBX 2 3 -1 8
BITMAP
C0
40
80
ENDCHAR
STARTCHAR 0314
ENCODING 788
SWIDTH 0 0
DWIDTH 0 0
BBX 2 3 -1 8
BITMAP
C0
80
40
ENDCHAR
STARTCHAR 0315
ENCODING 789
SWIDTH 0 0
DWIDTH 0 0
BBX 2 3 0 8
BITMAP
C0
40
80
ENDCHAR
STARTCHAR 0316
ENCODING 790
SWIDTH 0 0
DWIDTH 0 0
BBX 2 3 -1 -4
BITMAP
80
40
40
ENDCHAR
STARTCHAR 0317
ENCODING 791
SWIDTH 0 0
DWIDTH 0 0
BBX 2 3 -1 -4
BITMAP
40
80
80
ENDCHAR
STARTCHAR 0318
ENCODING 792
SWIDTH 0 0
DWIDTH 0 0
BBX 3 3 -2 -4
BITMAP
20
E0
20
ENDCHAR
STARTCHAR 0319
ENCODING 793
SWIDTH 0 0
DWIDTH 0 0
BBX 3 3 -1 -4
BITMAP
80
E0
80
ENDCHAR
STARTCHAR 031A
ENCODING 794
SWIDTH 0 0
DWIDTH 0 0
BBX 6 4 -3 9
BITMAP
FC
04
04
04
ENDCHAR
STARTCHAR 031B
ENCODING 795
SWIDTH 0 0
DWIDTH 0 0
BBX 2 3 0 10
BITMAP
40
40
80
ENDCHAR
STARTCHAR 031C
ENCODING 796
SWIDTH 0 0
DWIDTH 0 0
BBX 2 3 -1 -4
BITMAP
40
80
40
ENDCHAR
STARTCHAR 031D
ENCODING 797
SWIDTH 0 0
DWIDTH 0 0
BBX 3 3 -1 -4
BITMAP
40
40
E0
ENDCHAR
STARTCHAR 031E
ENCODING 798
SWIDTH 0 0
DWIDTH 0 0
BBX 3 3 -1 -4
BITMAP
E0
40
40
ENDCHAR
STARTCHAR 031F
ENCODING 799
SWIDTH 0 0
DWIDTH 0 0
BBX 3 3 -1 -4
BITMAP
40
E0
40
ENDCHAR
STARTCHAR 0320
ENCODING 800
SWIDTH 0 0
DWIDTH 0 0
BBX 5 1 -3 -2
BITMAP
F8
ENDCHAR
STARTCHAR 0321
ENCODING 801
SWIDTH 0 0
DWIDTH 0 0
BBX 4 4 -3 -3
BITMAP
10
10
10
E0
ENDCHAR
STARTCHAR 0322
ENCODING 802
SWIDTH 0 0
DWIDTH 0 0
BBX 4 4 0 -3
BITMAP
80
80
80
70
ENDCHAR
STARTCHAR 0323
ENCODING 803
SWIDTH 0 0
DWIDTH 0 0
BBX 1 1 -7 -2
BITMAP
80
ENDCHAR
STARTCHAR 0324
ENCODING 804
SWIDTH 0 0
DWIDTH 0 0
BBX 3 1 -2 -2
BITMAP
A0
ENDCHAR
STARTCHAR 0325
ENCODING 805
SWIDTH 0 0
DWIDTH 0 0
BBX 3 3 -1 -4
BITMAP
40
A0
40
ENDCHAR
STARTCHAR 0326
ENCODING 806
SWIDTH 0 0
DWIDTH 0 0
BBX 2 3 -1 -4
BITMAP
C0
40
80
ENDCHAR
STARTCHAR 0327
ENCODING 807
SWIDTH 0 0
DWIDTH 0 0
BBX 2 3 -1 -3
BITMAP
40
40
C0
ENDCHAR
STARTCHAR 0328
ENCODING 808
SWIDTH 0 0
DWIDTH 0 0
BBX 3 2 -1 -2
BITMAP
80
E0
ENDCHAR
STARTCHAR 0329
ENCODING 809
SWIDTH 0 0
DWIDTH 0 0
BBX 1 3 0 -4
BITMAP
80
80
80
ENDCHAR
STARTCHAR 032A
ENCODING 810
SWIDTH 0 0
DWIDTH 0 0
BBX 6 3 -3 -4
BITMAP
FC
84
84
ENDCHAR
STARTCHAR 032B
ENCODING 811
SWIDTH 0 0
DWIDTH 0 0
BBX 5 2 -2 -3
BITMAP
A8
50
ENDCHAR
STARTCHAR 032C
ENCODING 812
SWIDTH 0 0
DWIDTH 0 0
BBX 5 3 -2 -4
BITMAP
88
50
20
ENDCHAR
STARTCHAR 032D
ENCODING 813
SWIDTH 0 0
DWIDTH 0 0
BBX 5 3 -2 -4
BITMAP
20
50
88
ENDCHAR
STARTCHAR 032E
ENCODING 814
SWIDTH 0 0
DWIDTH 0 0
BBX 4 2 -2 -3
BITMAP
90
60
ENDCHAR
STARTCHAR 032F
ENCODING 815
SWIDTH 0 0
DWIDTH 0 0
BBX 4 2 -2 -3
BITMAP
60
90
ENDCHAR
STARTCHAR 0330
ENCODING 816
SWIDTH 0 0
DWIDTH 0 0
BBX 5 2 -3 -3
BITMAP
48
B0
ENDCHAR
STARTCHAR 0331
ENCODING 817
SWIDTH 0 0
DWIDTH 0 0
BBX 5 1 -3 -2
BITMAP
F8
ENDCHAR
STARTCHAR 0332
ENCODING 818
SWIDTH 0 0
DWIDTH 0 0
BBX 8 1 -4 -2
BITMAP
FF
ENDCHAR
STARTCHAR 0333
ENCODING 819
SWIDTH 0 0
DWIDTH 0 0
BBX 6 3 -3 -4
BITMAP
FC
00
FC
ENDCHAR
STARTCHAR 0334
ENCODING 820
SWIDTH 0 0
DWIDTH 0 0
BBX 5 2 -3 4
BITMAP
48
B0
ENDCHAR
STARTCHAR 0335
ENCODING 821
SWIDTH 0 0
DWIDTH 0 0
BBX 5 1 -3 5
BITMAP
F8
ENDCHAR
STARTCHAR 0336
ENCODING 822
SWIDTH 0 0
DWIDTH 0 0
BBX 8 1 -4 5
BITMAP
FF
ENDCHAR
STARTCHAR 0337
ENCODING 823
SWIDTH 0 0
DWIDTH 0 0
BBX 7 7 -4 0
BITMAP
02
04
08
10
20
40
80
ENDCHAR
STARTCHAR 0338
ENCODING 824
SWIDTH 0 0
DWIDTH 0 0
BBX 5 11 -3 0
BITMAP
08
08
10
10
20
20
20
40
40
40
80
ENDCHAR
STARTCHAR 0339
ENCODING 825
SWIDTH 0 0
DWIDTH 0 0
BBX 2 3 -1 -4
BITMAP
80
40
80
ENDCHAR
STARTCHAR 033A
ENCODING 826
SWIDTH 0 0
DWIDTH 0 0
BBX 6 3 -3 -4
BITMAP
84
84
FC
ENDCHAR
STARTCHAR 033B
ENCODING 827
SWIDTH 0 0
DWIDTH 0 0
BBX 3 3 -1 -4
BITMAP
E0
A0
E0
ENDCHAR
STARTCHAR 033C
ENCODING 828
SWIDTH 0 0
DWIDTH 0 0
BBX 5 2 -2 -3
BITMAP
50
A8
ENDCHAR
STARTCHAR 033D
ENCODING 829
SWIDTH 0 0
DWIDTH 0 0
BBX 3 3 -2 8
BITMAP
A0
40
A0
ENDCHAR
STARTCHAR 033E
ENCODING 830
SWIDTH 0 0
DWIDTH 0 0
BBX 2 4 -1 8
BITMAP
C0
80
40
C0
ENDCHAR
STARTCHAR 033F
ENCODING 831
SWIDTH 0 0
DWIDTH 0 0
BBX 8 3 -4 12
BITMAP
FF
00
FF
ENDCHAR
STARTCHAR 0340
ENCODING 832
SWIDTH 0 0
DWIDTH 0 0
BBX 2 3 -2 8
BITMAP
80
40
40
ENDCHAR
STARTCHAR 0341
ENCODING 833
SWIDTH 0 0
DWIDTH 0 0
BBX 2 3 0 8
BITMAP
40
80
80
ENDCHAR
STARTCHAR 0342
ENCODING 834
SWIDTH 0 0
DWIDTH 0 0
BBX 5 2 -2 8
BITMAP
48
B0
ENDCHAR
STARTCHAR 0343
ENCODING 835
SWIDTH 0 0
DWIDTH 0 0
BBX 2 3 -1 8
BITMAP
C0
40
80
ENDCHAR
STARTCHAR 0344
ENCODING 836
SWIDTH 0 0
DWIDTH 0 0
BBX 5 3 -3 8
BITMAP
10
20
A8
ENDCHAR
STARTCHAR 0345
ENCODING 837
SWIDTH 0 0
DWIDTH 0 0
BBX 2 3 -1 -4
BITMAP
80
80
C0
ENDCHAR
STARTCHAR 0346
ENCODING 838
SWIDTH 0 0
DWIDTH 0 0
BBX 6 3 -3 10
BITMAP
FC
84
84
ENDCHAR
STARTCHAR 0347
ENCODING 839
SWIDTH 0 0
DWIDTH 0 0
BBX 8 3 -4 -4
BITMAP
FF
00
FF
ENDCHAR
STARTCHAR 0348
ENCODING 840
SWIDTH 0 0
DWIDTH 0 0
BBX 3 3 -2 -4
BITMAP
A0
A0
A0
ENDCHAR
STARTCHAR 0349
ENCODING 841
SWIDTH 0 0
DWIDTH 0 0
BBX 3 3 -1 -4
BITMAP
E0
20
20
ENDCHAR
STARTCHAR 034A
ENCODING 842
SWIDTH 0 0
DWIDTH 0 0
BBX 5 2 -2 8
BITMAP
68
B0
ENDCHAR
STARTCHAR 034B
ENCODING 843
SWIDTH 0 0
DWIDTH 0 0
BBX 5 4 -2 8
BITMAP
20
48
B0
20
ENDCHAR
STARTCHAR 034C
ENCODING 844
SWIDTH 0 0
DWIDTH 0 0
BBX 5 4 -2 8
BITMAP
48
B0
48
B0
ENDCHAR
STARTCHAR 034D
ENCODING 845
SWIDTH 0 0
DWIDTH 0 0
BBX 6 3 -3 -4
BITMAP
48
FC
48
ENDCHAR
STARTCHAR 034E
ENCODING 846
SWIDTH 0 0
DWIDTH 0 0
BBX 3 3 -1 -4
BITMAP
40
E0
40
ENDCHAR
STARTCHAR 034F
ENCODING 847
SWIDTH 0 0
DWIDTH 0 0
BBX 12 12 -6 0
BITMAP
E670
8010
8B10
1080
2040
A050
8010
2040
1080
8B10
8010
E670
ENDCHAR
STARTCHAR 0350
ENCODING 848
SWIDTH 0 0
DWIDTH 0 0
BBX 2 3 -1 8
BITMAP
80
40
80
ENDCHAR
STARTCHAR 0351
ENCODING 849
SWIDTH 0 0
DWIDTH 0 0
BBX 2 4 -1 8
BITMAP
40
80
80
40
ENDCHAR
STARTCHAR 0352
ENCODING 850
SWIDTH 0 0
DWIDTH 0 0
BBX 4 3 -2 9
BITMAP
60
90
20
ENDCHAR
STARTCHAR 0353
ENCODING 851
SWIDTH 0 0
DWIDTH 0 0
BBX 3 3 -2 -3
BITMAP
A0
40
A0
ENDCHAR
STARTCHAR 0354
ENCODING 852
SWIDTH 0 0
DWIDTH 0 0
BBX 2 3 -1 -4
BITMAP
40
80
40
ENDCHAR
STARTCHAR 0355
ENCODING 853
SWIDTH 0 0
DWIDTH 0 0
BBX 2 3 -1 -4
BITMAP
80
40
80
ENDCHAR
STARTCHAR 0356
ENCODING 854
SWIDTH 0 0
DWIDTH 0 0
BBX 5 3 -3 -4
BITMAP
90
68
80
ENDCHAR
STARTCHAR 0357
ENCODING 855
SWIDTH 0 0
DWIDTH 0 0
BBX 2 4 -1 8
BITMAP
80
40
40
80
ENDCHAR
STARTCHAR 0358
ENCODING 856
SWIDTH 0 0
DWIDTH 0 0
BBX 1 1 2 9
BITMAP
80
ENDCHAR
STARTCHAR 0359
ENCODING 857
SWIDTH 0 0
DWIDTH 0 0
BBX 5 3 -2 -3
BITMAP
20
F8
50
ENDCHAR
STARTCHAR 035A
ENCODING 858
SWIDTH 0 0
DWIDTH 0 0
BBX 7 4 -4 -4
BITMAP
6C
92
92
6C
ENDCHAR
STARTCHAR 035B
ENCODING 859
SWIDTH 0 0
DWIDTH 0 0
BBX 3 3 -2 9
BITMAP
40
E0
40
ENDCHAR
STARTCHAR 035C
ENCODING 860
SWIDTH 0 0
DWIDTH 0 0
BBX 11 2 0 -3
BITMAP
C060
3F80
ENDCHAR
STARTCHAR 035D
ENCODING 861
SWIDTH 0 0
DWIDTH 0 0
BBX 11 2 0 9
BITMAP
C060
3F80
ENDCHAR
STARTCHAR 035E
ENCODING 862
SWIDTH 0 0
DWIDTH 0 0
BBX 10 1 0 10
BITMAP
FFC0
ENDCHAR
STARTCHAR 035F
ENCODING 863
SWIDTH 0 0
DWIDTH 0 0
BBX 10 1 0 -2
BITMAP
FFC0
ENDCHAR
STARTCHAR 0360
ENCODING 864
SWIDTH 0 0
DWIDTH 0 0
BBX 10 2 -1 8
BITMAP
7840
8780
ENDCHAR
STARTCHAR 0361
ENCODING 865
SWIDTH 0 0
DWIDTH 0 0
BBX 10 2 0 8
BITMAP
3F00
C0C0
ENDCHAR
STARTCHAR 0362
ENCODING 866
SWIDTH 0 0
DWIDTH 0 0
BBX 10 3 -1 -4
BITMAP
0080
FFC0
0080
ENDCHAR
STARTCHAR 0363
ENCODING 867
SWIDTH 0 0
DWIDTH 0 0
BBX 4 4 -2 4
BITMAP
E0
60
A0
F0
ENDCHAR
STARTCHAR 0364
ENCODING 868
SWIDTH 0 0
DWIDTH 0 0
BBX 4 4 -2 4
BITMAP
60
F0
80
70
ENDCHAR
STARTCHAR 0365
ENCODING 869
SWIDTH 0 0
DWIDTH 0 0
BBX 3 7 -1 4
BITMAP
40
00
00
C0
40
40
E0
ENDCHAR
STARTCHAR 0366
ENCODING 870
SWIDTH 0 0
DWIDTH 0 0
BBX 4 4 -2 4
BITMAP
60
90
90
60
ENDCHAR
STARTCHAR 0367
ENCODING 871
SWIDTH 0 0
DWIDTH 0 0
BBX 5 4 -3 4
BITMAP
D0
50
50
78
ENDCHAR
STARTCHAR 0368
ENCODING 872
SWIDTH 0 0
DWIDTH 0 0
BBX 4 4 -2 4
BITMAP
70
90
80
70
ENDCHAR
STARTCHAR 0369
ENCODING 873
SWIDTH 0 0
DWIDTH 0 0
BBX 5 7 -2 4
BITMAP
10
30
10
70
90
90
78
ENDCHAR
STARTCHAR 036A
ENCODING 874
SWIDTH 0 0
DWIDTH 0 0
BBX 5 7 -3 4
BITMAP
C0
40
40
70
50
50
D8
ENDCHAR
STARTCHAR 036B
ENCODING 875
SWIDTH 0 0
DWIDTH 0 0
BBX 7 4 -3 4
BITMAP
FC
54
54
D6
ENDCHAR
STARTCHAR 036C
ENCODING 876
SWIDTH 0 0
DWIDTH 0 0
BBX 3 4 -1 4
BITMAP
E0
80
80
80
ENDCHAR
STARTCHAR 036D
ENCODING 877
SWIDTH 0 0
DWIDTH 0 0
BBX 3 6 -2 4
BITMAP
40
40
E0
40
40
60
ENDCHAR
STARTCHAR 036E
ENCODING 878
SWIDTH 0 0
DWIDTH 0 0
BBX 5 4 -2 4
BITMAP
D8
50
50
20
ENDCHAR
STARTCHAR 036F
ENCODING 879
SWIDTH 0 0
DWIDTH 0 0
BBX 5 4 -2 4
BITMAP
D0
60
50
D8
ENDCHAR
STARTCHAR 0374
ENCODING 884
SWIDTH 312 0
DWIDTH 5 0
BBX 2 3 2 8
BITMAP
40
80
80
ENDCHAR
STARTCHAR 0375
ENCODING 885
SWIDTH 312 0
DWIDTH 5 0
BBX 2 3 2 -4
BITMAP
40
40
80
ENDCHAR
STARTCHAR 037A
ENCODING 890
SWIDTH 312 0
DWIDTH 5 0
BBX 2 3 2 -4
BITMAP
80
80
C0
ENDCHAR
STARTCHAR 037B
ENCODING 891
SWIDTH 437 0
DWIDTH 7 0
BBX 5 7 1 0
BITMAP
60
90
08
08
08
90
60
ENDCHAR
STARTCHAR 037C
ENCODING 892
SWIDTH 437 0
DWIDTH 7 0
BBX 5 7 1 0
BITMAP
70
88
80
80
90
88
70
ENDCHAR
STARTCHAR 037D
ENCODING 893
SWIDTH 437 0
DWIDTH 7 0
BBX 5 7 1 0
BITMAP
60
90
08
28
08
90
60
ENDCHAR
STARTCHAR 037E
ENCODING 894
SWIDTH 250 0
DWIDTH 4 0
BBX 2 9 1 -2
BITMAP
80
00
00
00
00
00
C0
40
80
ENDCHAR
STARTCHAR 0384
ENCODING 900
SWIDTH 312 0
DWIDTH 5 0
BBX 2 3 2 8
BITMAP
40
80
80
ENDCHAR
STARTCHAR 0385
ENCODING 901
SWIDTH 312 0
DWIDTH 5 0
BBX 5 3 0 8
BITMAP
10
20
A8
ENDCHAR
STARTCHAR 0386
ENCODING 902
SWIDTH 687 0
DWIDTH 11 0
BBX 11 11 0 0
BITMAP
2400
4400
4A00
0A00
0A00
1100
1100
1F00
2080
2080
F1E0
ENDCHAR
STARTCHAR 0387
ENCODING 903
SWIDTH 250 0
DWIDTH 4 0
BBX 2 2 1 6
BITMAP
C0
C0
ENDCHAR
STARTCHAR 0388
ENCODING 904
SWIDTH 687 0
DWIDTH 11 0
BBX 12 11 -1 0
BITMAP
7FE0
8820
8800
0880
0880
0F80
0880
0880
0810
0820
3FE0
ENDCHAR
STARTCHAR 0389
ENCODING 905
SWIDTH 812 0
DWIDTH 13 0
BBX 13 11 -1 0
BITMAP
7EF8
8820
8820
0820
0820
0FE0
0820
0820
0820
0820
3EF8
ENDCHAR
STARTCHAR 038A
ENCODING 906
SWIDTH 437 0
DWIDTH 7 0
BBX 7 11 -1 0
BITMAP
7E
88
88
08
08
08
08
08
08
08
3E
ENDCHAR
STARTCHAR 038C
ENCODING 908
SWIDTH 750 0
DWIDTH 12 0
BBX 11 11 0 0
BITMAP
4F00
9080
A040
4020
4020
4020
4020
4020
2040
1080
0F00
ENDCHAR
STARTCHAR 038E
ENCODING 910
SWIDTH 812 0
DWIDTH 13 0
BBX 13 11 0 0
BITMAP
7C78
9020
8840
0880
0480
0500
0200
0200
0200
0200
0F80
ENDCHAR
STARTCHAR 038F
ENCODING 911
SWIDTH 750 0
DWIDTH 12 0
BBX 11 11 0 0
BITMAP
4F00
9080
A040
4020
4020
4020
4020
2040
1980
4920
79E0
ENDCHAR
STARTCHAR 0390
ENCODING 912
SWIDTH 250 0
DWIDTH 4 0
BBX 5 11 -1 0
BITMAP
10
20
A8
00
20
60
20
20
20
28
38
ENDCHAR
STARTCHAR 0391
ENCODING 913
SWIDTH 687 0
DWIDTH 11 0
BBX 11 11 0 0
BITMAP
0400
0400
0A00
0A00
0A00
1100
1100
1F00
2080
2080
F1E0
ENDCHAR
STARTCHAR 0392
ENCODING 914
SWIDTH 625 0
DWIDTH 10 0
BBX 9 11 0 0
BITMAP
FC00
2200
2100
2100
2200
3E00
2100
2080
2080
2100
FE00
ENDCHAR
STARTCHAR 0393
ENCODING 915
SWIDTH 562 0
DWIDTH 9 0
BBX 9 11 0 0
BITMAP
FF80
2080
2000
2000
2000
2000
2000
2000
2000
2000
F800
ENDCHAR
STARTCHAR 0394
ENCODING 916
SWIDTH 625 0
DWIDTH 10 0
BBX 9 11 1 0
BITMAP
0800
0800
1400
1400
2400
2200
2200
4200
4100
8100
FF80
ENDCHAR
STARTCHAR 0395
ENCODING 917
SWIDTH 562 0
DWIDTH 9 0
BBX 9 11 0 0
BITMAP
FF00
2100
2000
2000
2200
3E00
2200
2000
2080
2100
FF00
ENDCHAR
STARTCHAR 0396
ENCODING 918
SWIDTH 562 0
DWIDTH 9 0
BBX 9 11 0 0
BITMAP
7F00
4200
4200
0400
0800
0800
1000
2000
4080
4100
FF00
ENDCHAR
STARTCHAR 0397
ENCODING 919
SWIDTH 687 0
DWIDTH 11 0
BBX 11 11 0 0
BITMAP
FBE0
2080
2080
2080
2080
3F80
2080
2080
2080
2080
FBE0
ENDCHAR
STARTCHAR 0398
ENCODING 920
SWIDTH 750 0
DWIDTH 12 0
BBX 10 11 1 0
BITMAP
1E00
2100
4080
8040
9240
9E40
9240
8040
4080
2100
1E00
ENDCHAR
STARTCHAR 0399
ENCODING 921
SWIDTH 312 0
DWIDTH 5 0
BBX 5 11 0 0
BITMAP
F8
20
20
20
20
20
20
20
20
20
F8
ENDCHAR
STARTCHAR 039A
ENCODING 922
SWIDTH 750 0
DWIDTH 12 0
BBX 11 11 0 0
BITMAP
FBC0
2080
2100
2200
2400
3800
2400
2200
2100
2080
F9E0
ENDCHAR
STARTCHAR 039B
ENCODING 923
SWIDTH 750 0
DWIDTH 12 0
BBX 12 11 0 0
BITMAP
0400
0400
0A00
0A00
0900
1100
1080
2080
2080
2040
F0F0
ENDCHAR
STARTCHAR 039C
ENCODING 924
SWIDTH 875 0
DWIDTH 14 0
BBX 14 11 0 0
BITMAP
E01C
3030
3030
2850
2850
2450
2490
2490
2310
2110
F97C
ENDCHAR
STARTCHAR 039D
ENCODING 925
SWIDTH 750 0
DWIDTH 12 0
BBX 12 11 0 -1
BITMAP
E1F0
2040
3040
2840
2440
2240
2240
2140
20C0
2040
F840
ENDCHAR
STARTCHAR 039E
ENCODING 926
SWIDTH 625 0
DWIDTH 10 0
BBX 8 11 1 0
BITMAP
FF
81
00
00
24
3C
24
00
81
81
FF
ENDCHAR
STARTCHAR 039F
ENCODING 927
SWIDTH 750 0
DWIDTH 12 0
BBX 10 11 1 0
BITMAP
1E00
2100
4080
8040
8040
8040
8040
8040
4080
2100
1E00
ENDCHAR
STARTCHAR 03A0
ENCODING 928
SWIDTH 687 0
DWIDTH 11 0
BBX 11 11 0 0
BITMAP
FFE0
2080
2080
2080
2080
2080
2080
2080
2080
2080
FBE0
ENDCHAR
STARTCHAR 03A1
ENCODING 929
SWIDTH 562 0
DWIDTH 9 0
BBX 8 11 0 0
BITMAP
FC
22
21
21
21
22
3C
20
20
20
F8
ENDCHAR
STARTCHAR 03A3
ENCODING 931
SWIDTH 562 0
DWIDTH 9 0
BBX 9 11 0 0
BITMAP
FF80
4080
2080
1000
1000
0800
0800
1000
2080
4080
FF80
ENDCHAR
STARTCHAR 03A4
ENCODING 932
SWIDTH 562 0
DWIDTH 9 0
BBX 9 11 0 0
BITMAP
FF80
8880
8880
0800
0800
0800
0800
0800
0800
0800
3E00
ENDCHAR
STARTCHAR 03A5
ENCODING 933
SWIDTH 687 0
DWIDTH 11 0
BBX 10 11 1 0
BITMAP
F3C0
2180
2200
1200
1400
0800
0800
0800
0800
0800
3E00
ENDCHAR
STARTCHAR 03A6
ENCODING 934
SWIDTH 687 0
DWIDTH 11 0
BBX 9 11 1 0
BITMAP
3E00
0800
3E00
4900
8880
8880
8880
4900
3E00
0800
3E00
ENDCHAR
STARTCHAR 03A7
ENCODING 935
SWIDTH 687 0
DWIDTH 11 0
BBX 11 11 0 0
BITMAP
F9C0
2080
1100
0A00
0A00
0400
0A00
0A00
1100
2080
F1E0
ENDCHAR
STARTCHAR 03A8
ENCODING 936
SWIDTH 750 0
DWIDTH 12 0
BBX 11 11 1 0
BITMAP
9F20
4440
4440
4440
4440
3F80
0400
0400
0400
0400
1F00
ENDCHAR
STARTCHAR 03A9
ENCODING 937
SWIDTH 750 0
DWIDTH 12 0
BBX 10 11 1 0
BITMAP
1E00
2100
4080
8040
8040
8040
8040
4080
3300
9240
F3C0
ENDCHAR
STARTCHAR 03AA
ENCODING 938
SWIDTH 312 0
DWIDTH 5 0
BBX 5 13 0 0
BITMAP
50
00
F8
20
20
20
20
20
20
20
20
20
F8
ENDCHAR
STARTCHAR 03AB
ENCODING 939
SWIDTH 687 0
DWIDTH 11 0
BBX 10 13 1 0
BITMAP
1400
0000
F3C0
2180
2200
1200
1400
0800
0800
0800
0800
0800
3E00
ENDCHAR
STARTCHAR 03AC
ENCODING 940
SWIDTH 500 0
DWIDTH 8 0
BBX 8 11 1 0
BITMAP
08
10
10
00
74
94
8C
88
88
99
76
ENDCHAR
STARTCHAR 03AD
ENCODING 941
SWIDTH 437 0
DWIDTH 7 0
BBX 6 11 1 0
BITMAP
10
20
20
00
78
8C
80
78
80
84
78
ENDCHAR
STARTCHAR 03AE
ENCODING 942
SWIDTH 500 0
DWIDTH 8 0
BBX 7 14 0 -3
BITMAP
04
08
08
00
EC
B2
22
22
22
22
22
02
02
02
ENDCHAR
STARTCHAR 03AF
ENCODING 943
SWIDTH 250 0
DWIDTH 4 0
BBX 4 11 0 0
BITMAP
20
40
40
00
40
C0
40
40
40
50
70
ENDCHAR
STARTCHAR 03B0
ENCODING 944
SWIDTH 500 0
DWIDTH 8 0
BBX 7 11 0 0
BITMAP
08
10
54
00
E4
A2
22
22
22
24
18
ENDCHAR
STARTCHAR 03B1
ENCODING 945
SWIDTH 500 0
DWIDTH 8 0
BBX 8 7 1 0
BITMAP
74
94
8C
88
88
99
76
ENDCHAR
STARTCHAR 03B2
ENCODING 946
SWIDTH 500 0
DWIDTH 8 0
BBX 6 14 1 -3
BITMAP
70
88
88
88
B0
88
84
84
84
88
F0
80
80
80
ENDCHAR
STARTCHAR 03B3
ENCODING 947
SWIDTH 437 0
DWIDTH 7 0
BBX 7 10 0 -3
BITMAP
C2
A4
24
28
28
10
20
20
20
20
ENDCHAR
STARTCHAR 03B4
ENCODING 948
SWIDTH 500 0
DWIDTH 8 0
BBX 6 11 1 0
BITMAP
78
48
40
20
30
48
84
84
84
48
30
ENDCHAR
STARTCHAR 03B5
ENCODING 949
SWIDTH 437 0
DWIDTH 7 0
BBX 6 7 1 0
BITMAP
78
8C
80
78
80
84
78
ENDCHAR
STARTCHAR 03B6
ENCODING 950
SWIDTH 437 0
DWIDTH 7 0
BBX 6 14 1 -3
BITMAP
24
4C
70
20
40
80
80
80
80
80
7C
04
04
18
ENDCHAR
STARTCHAR 03B7
ENCODING 951
SWIDTH 500 0
DWIDTH 8 0
BBX 7 10 0 -3
BITMAP
EC
B2
22
22
22
22
22
02
02
02
ENDCHAR
STARTCHAR 03B8
ENCODING 952
SWIDTH 500 0
DWIDTH 8 0
BBX 6 11 1 0
BITMAP
30
48
84
84
84
FC
84
84
84
48
30
ENDCHAR
STARTCHAR 03B9
ENCODING 953
SWIDTH 250 0
DWIDTH 4 0
BBX 4 7 0 0
BITMAP
40
C0
40
40
40
50
70
ENDCHAR
STARTCHAR 03BA
ENCODING 954
SWIDTH 500 0
DWIDTH 8 0
BBX 7 7 1 0
BITMAP
46
C8
50
60
50
48
46
ENDCHAR
STARTCHAR 03BB
ENCODING 955
SWIDTH 500 0
DWIDTH 8 0
BBX 7 11 1 0
BITMAP
60
A0
90
10
10
30
28
48
48
4A
84
ENDCHAR
STARTCHAR 03BC
ENCODING 956
SWIDTH 562 0
DWIDTH 9 0
BBX 8 10 1 -3
BITMAP
88
88
88
88
88
99
EE
80
80
C0
ENDCHAR
STARTCHAR 03BD
ENCODING 957
SWIDTH 437 0
DWIDTH 7 0
BBX 7 7 0 0
BITMAP
46
C2
24
24
28
28
10
ENDCHAR
STARTCHAR 03BE
ENCODING 958
SWIDTH 437 0
DWIDTH 7 0
BBX 6 14 1 -3
BITMAP
28
48
70
40
38
40
80
80
80
80
7C
04
04
18
ENDCHAR
STARTCHAR 03BF
ENCODING 959
SWIDTH 500 0
DWIDTH 8 0
BBX 6 7 1 0
BITMAP
30
48
84
84
84
48
30
ENDCHAR
STARTCHAR 03C0
ENCODING 960
SWIDTH 500 0
DWIDTH 8 0
BBX 8 7 0 0
BITMAP
7F
A4
24
24
24
25
46
ENDCHAR
STARTCHAR 03C1
ENCODING 961
SWIDTH 500 0
DWIDTH 8 0
BBX 6 10 1 -3
BITMAP
70
88
84
84
84
88
F0
80
80
80
ENDCHAR
STARTCHAR 03C2
ENCODING 962
SWIDTH 437 0
DWIDTH 7 0
BBX 5 10 1 -3
BITMAP
38
40
80
80
80
80
78
08
08
30
ENDCHAR
STARTCHAR 03C3
ENCODING 963
SWIDTH 562 0
DWIDTH 9 0
BBX 8 7 1 0
BITMAP
3F
44
84
82
82
44
38
ENDCHAR
STARTCHAR 03C4
ENCODING 964
SWIDTH 375 0
DWIDTH 6 0
BBX 6 7 0 0
BITMAP
7C
90
20
20
20
24
38
ENDCHAR
STARTCHAR 03C5
ENCODING 965
SWIDTH 500 0
DWIDTH 8 0
BBX 7 7 0 0
BITMAP
E4
A2
22
22
22
24
18
ENDCHAR
STARTCHAR 03C6
ENCODING 966
SWIDTH 562 0
DWIDTH 9 0
BBX 7 10 1 -3
BITMAP
5C
92
92
92
92
54
38
10
10
10
ENDCHAR
STARTCHAR 03C7
ENCODING 967
SWIDTH 437 0
DWIDTH 7 0
BBX 7 10 0 -3
BITMAP
62
A4
14
18
10
10
30
50
4A
86
ENDCHAR
STARTCHAR 03C8
ENCODING 968
SWIDTH 625 0
DWIDTH 10 0
BBX 9 10 1 -3
BITMAP
C980
4900
4900
4900
2A00
2A00
1C00
0800
0800
0800
ENDCHAR
STARTCHAR 03C9
ENCODING 969
SWIDTH 687 0
DWIDTH 11 0
BBX 9 7 1 0
BITMAP
3600
4100
8880
8880
8880
8880
7700
ENDCHAR
STARTCHAR 03CA
ENCODING 970
SWIDTH 250 0
DWIDTH 4 0
BBX 4 9 0 0
BITMAP
A0
00
40
C0
40
40
40
50
70
ENDCHAR
STARTCHAR 03CB
ENCODING 971
SWIDTH 500 0
DWIDTH 8 0
BBX 7 9 0 0
BITMAP
14
00
E4
A2
22
22
22
24
18
ENDCHAR
STARTCHAR 03CC
ENCODING 972
SWIDTH 500 0
DWIDTH 8 0
BBX 6 11 1 0
BITMAP
08
10
10
00
30
48
84
84
84
48
30
ENDCHAR
STARTCHAR 03CD
ENCODING 973
SWIDTH 500 0
DWIDTH 8 0
BBX 7 11 0 0
BITMAP
04
08
08
00
E4
A2
22
22
22
24
18
ENDCHAR
STARTCHAR 03CE
ENCODING 974
SWIDTH 687 0
DWIDTH 11 0
BBX 9 11 1 0
BITMAP
0400
0800
0800
0000
3600
4100
8880
8880
8880
8880
7700
ENDCHAR
STARTCHAR 03D0
ENCODING 976
SWIDTH 500 0
DWIDTH 8 0
BBX 6 11 1 0
BITMAP
38
48
78
80
B8
C4
84
84
84
44
38
ENDCHAR
STARTCHAR 03D1
ENCODING 977
SWIDTH 500 0
DWIDTH 8 0
BBX 9 11 0 0
BITMAP
3800
4400
4200
4200
4200
2200
1F00
C280
4200
4400
3800
ENDCHAR
STARTCHAR 03D2
ENCODING 978
SWIDTH 750 0
DWIDTH 12 0
BBX 12 11 0 0
BITMAP
E060
1190
0910
0A00
0600
0400
0400
0400
0400
0400
1F00
ENDCHAR
STARTCHAR 03D3
ENCODING 979
SWIDTH 875 0
DWIDTH 14 0
BBX 15 11 -1 0
BITMAP
5C0C
8232
8122
0140
00C0
0080
0080
0080
0080
0080
03E0
ENDCHAR
STARTCHAR 03D4
ENCODING 980
SWIDTH 750 0
DWIDTH 12 0
BBX 12 13 0 0
BITMAP
0A00
0000
E060
1190
0910
0A00
0600
0400
0400
0400
0400
0400
1F00
ENDCHAR
STARTCHAR 03D5
ENCODING 981
SWIDTH 500 0
DWIDTH 8 0
BBX 7 14 1 -3
BITMAP
10
10
10
10
38
54
92
92
92
54
38
10
10
10
ENDCHAR
STARTCHAR 03D6
ENCODING 982
SWIDTH 687 0
DWIDTH 11 0
BBX 10 7 0 0
BITMAP
7FC0
A080
4440
4440
4440
44C0
3B80
ENDCHAR
STARTCHAR 03D7
ENCODING 983
SWIDTH 562 0
DWIDTH 9 0
BBX 9 10 0 -3
BITMAP
C100
A300
2600
2A00
3200
6280
4180
0080
0080
0700
ENDCHAR
STARTCHAR 03D8
ENCODING 984
SWIDTH 750 0
DWIDTH 12 0
BBX 10 14 1 -3
BITMAP
1E00
2100
4080
8040
8040
8040
8040
8040
4080
2100
1E00
0800
0800
3E00
ENDCHAR
STARTCHAR 03D9
ENCODING 985
SWIDTH 500 0
DWIDTH 8 0
BBX 6 10 1 -3
BITMAP
30
C8
84
84
84
48
30
20
20
70
ENDCHAR
STARTCHAR 03DA
ENCODING 986
SWIDTH 687 0
DWIDTH 11 0
BBX 9 11 1 0
BITMAP
3E00
4100
8080
8000
8000
8000
8000
6000
1C00
0400
1F00
ENDCHAR
STARTCHAR 03DB
ENCODING 987
SWIDTH 437 0
DWIDTH 7 0
BBX 8 11 0 -3
BITMAP
01
3E
40
80
80
80
C0
7C
04
04
38
ENDCHAR
STARTCHAR 03DC
ENCODING 988
SWIDTH 562 0
DWIDTH 9 0
BBX 8 11 0 0
BITMAP
FF
21
20
20
20
3E
22
20
20
20
F8
ENDCHAR
STARTCHAR 03DD
ENCODING 989
SWIDTH 437 0
DWIDTH 7 0
BBX 6 10 0 -3
BITMAP
FC
44
40
48
78
48
40
40
40
40
ENDCHAR
STARTCHAR 03DE
ENCODING 990
SWIDTH 562 0
DWIDTH 9 0
BBX 9 11 0 0
BITMAP
C000
2000
2000
2100
2700
2900
5200
6200
0200
0200
0180
ENDCHAR
STARTCHAR 03DF
ENCODING 991
SWIDTH 437 0
DWIDTH 7 0
BBX 6 11 0 0
BITMAP
20
40
40
40
80
FC
04
08
08
08
10
ENDCHAR
STARTCHAR 03E0
ENCODING 992
SWIDTH 750 0
DWIDTH 12 0
BBX 11 14 0 -2
BITMAP
3C00
D300
1080
1140
1240
0260
0220
0220
0220
0220
0220
0020
0040
0040
ENDCHAR
STARTCHAR 03E1
ENCODING 993
SWIDTH 562 0
DWIDTH 9 0
BBX 8 12 0 -2
BITMAP
E0
18
0C
06
1A
03
05
09
01
01
02
02
ENDCHAR
STARTCHAR 03E2
ENCODING 994
SWIDTH 812 0
DWIDTH 13 0
BBX 13 14 0 -3
BITMAP
E738
4210
4210
4210
4210
4210
4210
4210
4210
4630
39D0
0010
3C20
23C0
ENDCHAR
STARTCHAR 03E3
ENCODING 995
SWIDTH 750 0
DWIDTH 12 0
BBX 11 10 0 -3
BITMAP
EEE0
4440
4440
4440
4440
4CC0
3340
0040
3C40
2380
ENDCHAR
STARTCHAR 03E4
ENCODING 996
SWIDTH 625 0
DWIDTH 10 0
BBX 9 11 1 0
BITMAP
7780
8200
8200
8200
8200
4200
3E00
0200
0200
0200
0F80
ENDCHAR
STARTCHAR 03E5
ENCODING 997
SWIDTH 500 0
DWIDTH 8 0
BBX 7 11 1 0
BITMAP
76
84
84
84
84
8C
74
04
04
04
0E
ENDCHAR
STARTCHAR 03E6
ENCODING 998
SWIDTH 687 0
DWIDTH 11 0
BBX 10 14 0 -3
BITMAP
F800
2000
2000
2000
2F00
3080
2040
2040
2040
2040
F840
0040
F080
8F00
ENDCHAR
STARTCHAR 03E7
ENCODING 999
SWIDTH 437 0
DWIDTH 7 0
BBX 6 7 0 0
BITMAP
3C
48
34
04
04
64
98
ENDCHAR
STARTCHAR 03E8
ENCODING 1000
SWIDTH 562 0
DWIDTH 9 0
BBX 7 11 1 0
BITMAP
38
44
44
04
18
20
44
82
82
44
38
ENDCHAR
STARTCHAR 03E9
ENCODING 1001
SWIDTH 562 0
DWIDTH 9 0
BBX 7 11 1 0
BITMAP
38
44
44
04
08
30
40
80
82
84
78
ENDCHAR
STARTCHAR 03EA
ENCODING 1002
SWIDTH 687 0
DWIDTH 11 0
BBX 9 11 1 0
BITMAP
C180
A280
1400
1400
0800
1400
1400
2200
2200
4100
FF80
ENDCHAR
STARTCHAR 03EB
ENCODING 1003
SWIDTH 562 0
DWIDTH 9 0
BBX 9 7 0 0
BITMAP
E380
9480
1400
0800
1400
1400
3E00
ENDCHAR
STARTCHAR 03EC
ENCODING 1004
SWIDTH 687 0
DWIDTH 11 0
BBX 9 11 1 0
BITMAP
1F00
6000
4000
BE00
C100
8080
8080
8080
4080
6100
1E00
ENDCHAR
STARTCHAR 03ED
ENCODING 1005
SWIDTH 500 0
DWIDTH 8 0
BBX 6 7 1 0
BITMAP
7C
80
B8
84
84
44
38
ENDCHAR
STARTCHAR 03EE
ENCODING 1006
SWIDTH 500 0
DWIDTH 8 0
BBX 7 11 0 0
BITMAP
7C
10
FE
92
54
10
10
10
10
10
7C
ENDCHAR
STARTCHAR 03EF
ENCODING 1007
SWIDTH 375 0
DWIDTH 6 0
BBX 6 11 0 0
BITMAP
10
18
10
10
7C
90
10
10
10
30
10
ENDCHAR
STARTCHAR 03F0
ENCODING 1008
SWIDTH 562 0
DWIDTH 9 0
BBX 9 7 0 0
BITMAP
C100
A300
2600
2A00
3200
6280
4180
ENDCHAR
STARTCHAR 03F1
ENCODING 1009
SWIDTH 500 0
DWIDTH 8 0
BBX 6 10 1 -3
BITMAP
30
48
84
84
84
C8
B0
40
38
04
ENDCHAR
STARTCHAR 03F2
ENCODING 1010
SWIDTH 437 0
DWIDTH 7 0
BBX 5 7 1 0
BITMAP
70
88
80
80
80
88
70
ENDCHAR
STARTCHAR 03F3
ENCODING 1011
SWIDTH 250 0
DWIDTH 4 0
BBX 4 14 -1 -3
BITMAP
10
00
00
00
10
30
10
10
10
10
10
10
10
E0
ENDCHAR
STARTCHAR 03F4
ENCODING 1012
SWIDTH 750 0
DWIDTH 12 0
BBX 10 11 1 0
BITMAP
1E00
2100
4080
8040
8040
FFC0
8040
8040
4080
2100
1E00
ENDCHAR
STARTCHAR 03F5
ENCODING 1013
SWIDTH 375 0
DWIDTH 6 0
BBX 5 7 1 0
BITMAP
38
40
80
E0
80
40
38
ENDCHAR
STARTCHAR 03F6
ENCODING 1014
SWIDTH 375 0
DWIDTH 6 0
BBX 5 7 0 0
BITMAP
E0
10
08
38
08
10
E0
ENDCHAR
STARTCHAR 03F7
ENCODING 1015
SWIDTH 625 0
DWIDTH 10 0
BBX 9 11 0 0
BITMAP
F800
2000
3E00
2100
2080
2080
2080
2100
3E00
2000
F800
ENDCHAR
STARTCHAR 03F8
ENCODING 1016
SWIDTH 500 0
DWIDTH 8 0
BBX 7 14 0 -3
BITMAP
40
C0
40
40
5C
66
42
42
42
64
58
40
40
E0
ENDCHAR
STARTCHAR 03F9
ENCODING 1017
SWIDTH 687 0
DWIDTH 11 0
BBX 9 11 1 0
BITMAP
1E00
2100
4080
8000
8000
8000
8000
8000
4080
2100
1E00
ENDCHAR
STARTCHAR 03FA
ENCODING 1018
SWIDTH 875 0
DWIDTH 14 0
BBX 14 11 0 0
BITMAP
E01C
3030
2850
2490
2310
2010
2010
2010
2010
2010
F87C
ENDCHAR
STARTCHAR 03FB
ENCODING 1019
SWIDTH 625 0
DWIDTH 10 0
BBX 9 10 1 -3
BITMAP
E380
6300
5500
5500
5500
4900
4B80
4000
4000
E000
ENDCHAR
STARTCHAR 03FC
ENCODING 1020
SWIDTH 500 0
DWIDTH 8 0
BBX 7 10 0 -3
BITMAP
38
44
42
42
42
44
78
40
F0
40
ENDCHAR
STARTCHAR 03FD
ENCODING 1021
SWIDTH 687 0
DWIDTH 11 0
BBX 9 11 1 0
BITMAP
3C00
4200
8100
0080
0080
0080
0080
0080
8100
4200
3C00
ENDCHAR
STARTCHAR 03FE
ENCODING 1022
SWIDTH 687 0
DWIDTH 11 0
BBX 9 11 1 0
BITMAP
1E00
2100
4080
8000
8C00
8C00
8000
8000
4080
2100
1E00
ENDCHAR
STARTCHAR 03FF
ENCODING 1023
SWIDTH 687 0
DWIDTH 11 0
BBX 9 11 1 0
BITMAP
3C00
4200
8100
0080
1880
1880
0080
0080
8100
4200
3C00
ENDCHAR
STARTCHAR 0400
ENCODING 1024
SWIDTH 562 0
DWIDTH 9 0
BBX 9 15 0 0
BITMAP
1000
0800
0800
0000
FF00
2100
2000
2000
2200
3E00
2200
2000
2080
2100
FF00
ENDCHAR
STARTCHAR 0401
ENCODING 1025
SWIDTH 562 0
DWIDTH 9 0
BBX 9 13 0 0
BITMAP
1400
0000
FF00
2100
2000
2000
2200
3E00
2200
2000
2080
2100
FF00
ENDCHAR
STARTCHAR 0402
ENCODING 1026
SWIDTH 750 0
DWIDTH 12 0
BBX 10 11 1 0
BITMAP
FE00
9200
1000
1000
1700
1880
1040
1040
1040
1040
7D80
ENDCHAR
STARTCHAR 0403
ENCODING 1027
SWIDTH 562 0
DWIDTH 9 0
BBX 9 15 0 0
BITMAP
0200
0400
0400
0000
FF80
2080
2000
2000
2000
2000
2000
2000
2000
2000
F800
ENDCHAR
STARTCHAR 0404
ENCODING 1028
SWIDTH 687 0
DWIDTH 11 0
BBX 9 11 1 0
BITMAP
1E80
2180
4080
8080
8000
F800
8000
8000
4080
2100
1E00
ENDCHAR
STARTCHAR 0405
ENCODING 1029
SWIDTH 562 0
DWIDTH 9 0
BBX 7 11 1 0
BITMAP
3A
46
82
80
60
18
04
02
82
C4
B8
ENDCHAR
STARTCHAR 0406
ENCODING 1030
SWIDTH 312 0
DWIDTH 5 0
BBX 5 11 0 0
BITMAP
F8
20
20
20
20
20
20
20
20
20
F8
ENDCHAR
STARTCHAR 0407
ENCODING 1031
SWIDTH 312 0
DWIDTH 5 0
BBX 5 13 0 0
BITMAP
50
00
F8
20
20
20
20
20
20
20
20
20
F8
ENDCHAR
STARTCHAR 0408
ENCODING 1032
SWIDTH 375 0
DWIDTH 6 0
BBX 6 11 0 0
BITMAP
7C
10
10
10
10
10
10
10
10
90
E0
ENDCHAR
STARTCHAR 0409
ENCODING 1033
SWIDTH 875 0
DWIDTH 14 0
BBX 13 11 0 0
BITMAP
7FC0
1100
1100
1100
1100
11E0
1110
1108
1108
A110
E7E0
ENDCHAR
STARTCHAR 040A
ENCODING 1034
SWIDTH 875 0
DWIDTH 14 0
BBX 13 11 0 0
BITMAP
F7C0
2100
2100
2100
2100
3FE0
2110
2108
2108
2110
F7E0
ENDCHAR
STARTCHAR 040B
ENCODING 1035
SWIDTH 750 0
DWIDTH 12 0
BBX 11 11 1 0
BITMAP
FE00
9200
1000
1000
1700
1880
1080
1080
1080
1080
7BE0
ENDCHAR
STARTCHAR 040C
ENCODING 1036
SWIDTH 687 0
DWIDTH 11 0
BBX 10 15 0 0
BITMAP
0200
0400
0400
0000
F9C0
2240
2200
2200
2400
3800
2800
2400
2200
2100
F9C0
ENDCHAR
STARTCHAR 040D
ENCODING 1037
SWIDTH 687 0
DWIDTH 11 0
BBX 11 15 0 0
BITMAP
0800
0400
0400
0000
FBE0
2080
2080
2180
2280
2480
2880
3080
2080
2080
FBE0
ENDCHAR
STARTCHAR 040E
ENCODING 1038
SWIDTH 687 0
DWIDTH 11 0
BBX 11 15 0 0
BITMAP
1100
1100
0E00
0000
F1E0
2080
1080
1100
0900
0500
0500
0200
0200
0400
3800
ENDCHAR
STARTCHAR 040F
ENCODING 1039
SWIDTH 687 0
DWIDTH 11 0
BBX 11 14 0 -3
BITMAP
FBE0
2080
2080
2080
2080
2080
2080
2080
2080
2080
FFE0
0400
0400
0400
ENDCHAR
STARTCHAR 0410
ENCODING 1040
SWIDTH 687 0
DWIDTH 11 0
BBX 11 11 0 0
BITMAP
0400
0400
0A00
0A00
0A00
1100
1100
1F00
2080
2080
F1E0
ENDCHAR
STARTCHAR 0411
ENCODING 1041
SWIDTH 562 0
DWIDTH 9 0
BBX 9 11 0 0
BITMAP
FF00
2100
2000
2000
2000
3E00
2100
2080
2080
2100
FE00
ENDCHAR
STARTCHAR 0412
ENCODING 1042
SWIDTH 625 0
DWIDTH 10 0
BBX 9 11 0 0
BITMAP
FC00
2200
2100
2100
2200
3E00
2100
2080
2080
2100
FE00
ENDCHAR
STARTCHAR 0413
ENCODING 1043
SWIDTH 562 0
DWIDTH 9 0
BBX 9 11 0 0
BITMAP
FF80
2080
2000
2000
2000
2000
2000
2000
2000
2000
F800
ENDCHAR
STARTCHAR 0414
ENCODING 1044
SWIDTH 687 0
DWIDTH 11 0
BBX 10 14 1 -3
BITMAP
7FC0
1100
1100
1100
1100
1100
2100
2100
2100
4100
FF80
8080
8080
8080
ENDCHAR
STARTCHAR 0415
ENCODING 1045
SWIDTH 562 0
DWIDTH 9 0
BBX 9 11 0 0
BITMAP
FF00
2100
2000
2000
2200
3E00
2200
2000
2080
2100
FF00
ENDCHAR
STARTCHAR 0416
ENCODING 1046
SWIDTH 875 0
DWIDTH 14 0
BBX 15 11 0 0
BITMAP
E7CE
1110
1110
0920
0920
07C0
0940
0920
1110
1110
E7CE
ENDCHAR
STARTCHAR 0417
ENCODING 1047
SWIDTH 500 0
DWIDTH 8 0
BBX 7 11 0 0
BITMAP
5C
62
42
04
18
04
02
02
82
44
38
ENDCHAR
STARTCHAR 0418
ENCODING 1048
SWIDTH 687 0
DWIDTH 11 0
BBX 11 11 0 0
BITMAP
FBE0
2080
2080
2180
2280
2480
2880
3080
2080
2080
FBE0
ENDCHAR
STARTCHAR 0419
ENCODING 1049
SWIDTH 687 0
DWIDTH 11 0
BBX 11 15 0 0
BITMAP
2080
3180
1F00
0000
FBE0
2080
2080
2180
2280
2480
2880
3080
2080
2080
FBE0
ENDCHAR
STARTCHAR 041A
ENCODING 1050
SWIDTH 687 0
DWIDTH 11 0
BBX 10 11 0 0
BITMAP
F9C0
2240
2200
2200
2400
3800
2800
2400
2200
2100
F9C0
ENDCHAR
STARTCHAR 041B
ENCODING 1051
SWIDTH 687 0
DWIDTH 11 0
BBX 10 11 1 0
BITMAP
7FC0
1100
1100
1100
1100
1100
1100
1100
1100
A100
E7C0
ENDCHAR
STARTCHAR 041C
ENCODING 1052
SWIDTH 875 0
DWIDTH 14 0
BBX 14 11 0 0
BITMAP
E01C
3030
3030
2850
2850
2450
2490
2490
2310
2110
F97C
ENDCHAR
STARTCHAR 041D
ENCODING 1053
SWIDTH 687 0
DWIDTH 11 0
BBX 11 11 0 0
BITMAP
FBE0
2080
2080
2080
2080
3F80
2080
2080
2080
2080
FBE0
ENDCHAR
STARTCHAR 041E
ENCODING 1054
SWIDTH 750 0
DWIDTH 12 0
BBX 10 11 1 0
BITMAP
1E00
2100
4080
8040
8040
8040
8040
8040
4080
2100
1E00
ENDCHAR
STARTCHAR 041F
ENCODING 1055
SWIDTH 687 0
DWIDTH 11 0
BBX 11 11 0 0
BITMAP
FFE0
2080
2080
2080
2080
2080
2080
2080
2080
2080
FBE0
ENDCHAR
STARTCHAR 0420
ENCODING 1056
SWIDTH 562 0
DWIDTH 9 0
BBX 8 11 0 0
BITMAP
FC
22
21
21
21
22
3C
20
20
20
F8
ENDCHAR
STARTCHAR 0421
ENCODING 1057
SWIDTH 687 0
DWIDTH 11 0
BBX 9 11 1 0
BITMAP
1E80
2180
4080
8080
8000
8000
8000
8000
4080
2100
1E00
ENDCHAR
STARTCHAR 0422
ENCODING 1058
SWIDTH 562 0
DWIDTH 9 0
BBX 9 11 0 0
BITMAP
FF80
8880
8880
0800
0800
0800
0800
0800
0800
0800
3E00
ENDCHAR
STARTCHAR 0423
ENCODING 1059
SWIDTH 687 0
DWIDTH 11 0
BBX 11 11 0 0
BITMAP
F1E0
2080
1080
1100
0900
0500
0500
0200
0200
0400
3800
ENDCHAR
STARTCHAR 0424
ENCODING 1060
SWIDTH 812 0
DWIDTH 13 0
BBX 11 11 1 0
BITMAP
1F00
0400
3F80
4440
8420
8420
8420
4440
3F80
0400
1F00
ENDCHAR
STARTCHAR 0425
ENCODING 1061
SWIDTH 687 0
DWIDTH 11 0
BBX 11 11 0 0
BITMAP
F9C0
2080
1100
0A00
0A00
0400
0A00
0A00
1100
2080
F1E0
ENDCHAR
STARTCHAR 0426
ENCODING 1062
SWIDTH 687 0
DWIDTH 11 0
BBX 11 14 0 -3
BITMAP
FBE0
2080
2080
2080
2080
2080
2080
2080
2080
2080
FF80
0060
0020
0020
ENDCHAR
STARTCHAR 0427
ENCODING 1063
SWIDTH 625 0
DWIDTH 10 0
BBX 10 11 0 0
BITMAP
F7C0
2100
2100
2100
2100
2300
1D00
0100
0100
0100
07C0
ENDCHAR
STARTCHAR 0428
ENCODING 1064
SWIDTH 937 0
DWIDTH 15 0
BBX 15 11 0 0
BITMAP
F7DE
2108
2108
2108
2108
2108
2108
2108
2108
2108
FFFE
ENDCHAR
STARTCHAR 0429
ENCODING 1065
SWIDTH 937 0
DWIDTH 15 0
BBX 15 14 0 -3
BITMAP
F7DE
2108
2108
2108
2108
2108
2108
2108
2108
2108
FFF8
000C
0004
0004
ENDCHAR
STARTCHAR 042A
ENCODING 1066
SWIDTH 687 0
DWIDTH 11 0
BBX 10 11 1 0
BITMAP
FC00
9000
1000
1000
1000
1F00
1080
1040
1040
1080
7F00
ENDCHAR
STARTCHAR 042B
ENCODING 1067
SWIDTH 875 0
DWIDTH 14 0
BBX 14 11 0 0
BITMAP
F87C
2010
2010
2010
2010
3E10
2110
2090
2090
2110
FE7C
ENDCHAR
STARTCHAR 042C
ENCODING 1068
SWIDTH 562 0
DWIDTH 9 0
BBX 9 11 0 0
BITMAP
F800
2000
2000
2000
2000
3E00
2100
2080
2080
2100
FE00
ENDCHAR
STARTCHAR 042D
ENCODING 1069
SWIDTH 687 0
DWIDTH 11 0
BBX 9 11 1 0
BITMAP
BC00
C200
8100
8080
0080
0F80
0080
0080
8100
4200
3C00
ENDCHAR
STARTCHAR 042E
ENCODING 1070
SWIDTH 1000 0
DWIDTH 16 0
BBX 15 11 0 0
BITMAP
F8F0
2108
2204
2402
2402
3C02
2402
2402
2204
2108
F8F0
ENDCHAR
STARTCHAR 042F
ENCODING 1071
SWIDTH 687 0
DWIDTH 11 0
BBX 10 11 1 0
BITMAP
0FC0
1100
2100
2100
1100
0F00
0900
1100
2100
2100
C7C0
ENDCHAR
STARTCHAR 0430
ENCODING 1072
SWIDTH 437 0
DWIDTH 7 0
BBX 6 7 1 0
BITMAP
70
88
18
68
88
98
6C
ENDCHAR
STARTCHAR 0431
ENCODING 1073
SWIDTH 500 0
DWIDTH 8 0
BBX 6 11 1 0
BITMAP
3C
40
80
80
B0
48
84
84
84
48
30
ENDCHAR
STARTCHAR 0432
ENCODING 1074
SWIDTH 500 0
DWIDTH 8 0
BBX 7 7 0 0
BITMAP
FC
42
42
7C
42
42
FC
ENDCHAR
STARTCHAR 0433
ENCODING 1075
SWIDTH 375 0
DWIDTH 6 0
BBX 6 7 0 0
BITMAP
F8
44
40
40
40
40
E0
ENDCHAR
STARTCHAR 0434
ENCODING 1076
SWIDTH 500 0
DWIDTH 8 0
BBX 7 9 0 -2
BITMAP
7E
24
24
24
24
44
FE
82
82
ENDCHAR
STARTCHAR 0435
ENCODING 1077
SWIDTH 437 0
DWIDTH 7 0
BBX 5 7 1 0
BITMAP
70
88
F8
80
80
88
70
ENDCHAR
STARTCHAR 0436
ENCODING 1078
SWIDTH 687 0
DWIDTH 11 0
BBX 9 7 1 0
BITMAP
DD80
4900
2A00
1C00
2A00
4900
DD80
ENDCHAR
STARTCHAR 0437
ENCODING 1079
SWIDTH 375 0
DWIDTH 6 0
BBX 5 7 0 0
BITMAP
B0
C8
08
30
08
88
70
ENDCHAR
STARTCHAR 0438
ENCODING 1080
SWIDTH 562 0
DWIDTH 9 0
BBX 7 7 1 0
BITMAP
EE
44
4C
54
64
44
EE
ENDCHAR
STARTCHAR 0439
ENCODING 1081
SWIDTH 562 0
DWIDTH 9 0
BBX 7 10 1 0
BITMAP
44
38
00
EE
44
4C
54
64
44
EE
ENDCHAR
STARTCHAR 043A
ENCODING 1082
SWIDTH 437 0
DWIDTH 7 0
BBX 7 7 0 0
BITMAP
E6
48
48
70
50
48
E6
ENDCHAR
STARTCHAR 043B
ENCODING 1083
SWIDTH 500 0
DWIDTH 8 0
BBX 7 7 0 0
BITMAP
7E
24
24
24
24
A4
CE
ENDCHAR
STARTCHAR 043C
ENCODING 1084
SWIDTH 625 0
DWIDTH 10 0
BBX 9 7 1 0
BITMAP
E380
6300
5500
5500
5500
4900
EB80
ENDCHAR
STARTCHAR 043D
ENCODING 1085
SWIDTH 562 0
DWIDTH 9 0
BBX 7 7 1 0
BITMAP
EE
44
44
7C
44
44
EE
ENDCHAR
STARTCHAR 043E
ENCODING 1086
SWIDTH 500 0
DWIDTH 8 0
BBX 6 7 1 0
BITMAP
30
48
84
84
84
48
30
ENDCHAR
STARTCHAR 043F
ENCODING 1087
SWIDTH 562 0
DWIDTH 9 0
BBX 7 7 1 0
BITMAP
FE
44
44
44
44
44
EE
ENDCHAR
STARTCHAR 0440
ENCODING 1088
SWIDTH 500 0
DWIDTH 8 0
BBX 7 10 0 -3
BITMAP
58
E4
42
42
42
64
58
40
40
E0
ENDCHAR
STARTCHAR 0441
ENCODING 1089
SWIDTH 437 0
DWIDTH 7 0
BBX 5 7 1 0
BITMAP
70
88
80
80
80
88
70
ENDCHAR
STARTCHAR 0442
ENCODING 1090
SWIDTH 437 0
DWIDTH 7 0
BBX 7 7 0 0
BITMAP
7C
92
10
10
10
10
38
ENDCHAR
STARTCHAR 0443
ENCODING 1091
SWIDTH 437 0
DWIDTH 7 0
BBX 7 10 0 -3
BITMAP
EE
44
44
28
28
18
10
10
20
C0
ENDCHAR
STARTCHAR 0444
ENCODING 1092
SWIDTH 562 0
DWIDTH 9 0
BBX 7 14 1 -3
BITMAP
10
10
10
10
7C
92
92
92
92
92
7C
10
10
38
ENDCHAR
STARTCHAR 0445
ENCODING 1093
SWIDTH 437 0
DWIDTH 7 0
BBX 7 7 0 0
BITMAP
EE
44
28
10
28
44
EE
ENDCHAR
STARTCHAR 0446
ENCODING 1094
SWIDTH 562 0
DWIDTH 9 0
BBX 7 9 1 -2
BITMAP
EE
44
44
44
44
44
FC
06
02
ENDCHAR
STARTCHAR 0447
ENCODING 1095
SWIDTH 500 0
DWIDTH 8 0
BBX 7 7 0 0
BITMAP
EE
44
44
7C
04
04
0E
ENDCHAR
STARTCHAR 0448
ENCODING 1096
SWIDTH 687 0
DWIDTH 11 0
BBX 11 7 0 0
BITMAP
EEE0
4440
4440
4440
4440
4440
FFE0
ENDCHAR
STARTCHAR 0449
ENCODING 1097
SWIDTH 687 0
DWIDTH 11 0
BBX 11 9 0 -2
BITMAP
EEE0
4440
4440
4440
4440
4440
FFC0
0060
0020
ENDCHAR
STARTCHAR 044A
ENCODING 1098
SWIDTH 500 0
DWIDTH 8 0
BBX 7 7 0 0
BITMAP
70
A0
20
3C
22
22
7C
ENDCHAR
STARTCHAR 044B
ENCODING 1099
SWIDTH 687 0
DWIDTH 11 0
BBX 9 7 1 0
BITMAP
E380
4100
4100
7900
4500
4500
FB80
ENDCHAR
STARTCHAR 044C
ENCODING 1100
SWIDTH 437 0
DWIDTH 7 0
BBX 6 7 0 0
BITMAP
E0
40
40
78
44
44
F8
ENDCHAR
STARTCHAR 044D
ENCODING 1101
SWIDTH 437 0
DWIDTH 7 0
BBX 6 7 0 0
BITMAP
58
64
04
3C
04
88
70
ENDCHAR
STARTCHAR 044E
ENCODING 1102
SWIDTH 750 0
DWIDTH 12 0
BBX 11 7 0 0
BITMAP
E380
4440
4820
7820
4820
4440
E380
ENDCHAR
STARTCHAR 044F
ENCODING 1103
SWIDTH 437 0
DWIDTH 7 0
BBX 7 7 0 0
BITMAP
3E
44
44
3C
24
44
CE
ENDCHAR
STARTCHAR 0450
ENCODING 1104
SWIDTH 437 0
DWIDTH 7 0
BBX 5 11 1 0
BITMAP
20
10
10
00
70
88
F8
80
80
88
70
ENDCHAR
STARTCHAR 0451
ENCODING 1105
SWIDTH 437 0
DWIDTH 7 0
BBX 5 9 1 0
BITMAP
50
00
70
88
F8
80
80
88
70
ENDCHAR
STARTCHAR 0452
ENCODING 1106
SWIDTH 437 0
DWIDTH 7 0
BBX 6 14 0 -3
BITMAP
C0
40
F8
40
58
64
44
44
44
44
E4
08
08
30
ENDCHAR
STARTCHAR 0453
ENCODING 1107
SWIDTH 375 0
DWIDTH 6 0
BBX 6 11 0 0
BITMAP
08
10
10
00
F8
44
40
40
40
40
E0
ENDCHAR
STARTCHAR 0454
ENCODING 1108
SWIDTH 437 0
DWIDTH 7 0
BBX 6 7 1 0
BITMAP
68
98
80
F0
80
84
78
ENDCHAR
STARTCHAR 0455
ENCODING 1109
SWIDTH 375 0
DWIDTH 6 0
BBX 4 7 1 1
BITMAP
70
90
80
60
10
90
E0
ENDCHAR
STARTCHAR 0456
ENCODING 1110
SWIDTH 187 0
DWIDTH 3 0
BBX 3 11 0 0
BITMAP
40
00
00
00
40
C0
40
40
40
40
E0
ENDCHAR
STARTCHAR 0457
ENCODING 1111
SWIDTH 187 0
DWIDTH 3 0
BBX 3 9 0 0
BITMAP
A0
00
40
C0
40
40
40
40
E0
ENDCHAR
STARTCHAR 0458
ENCODING 1112
SWIDTH 250 0
DWIDTH 4 0
BBX 4 14 -1 -3
BITMAP
10
00
00
00
10
30
10
10
10
10
10
10
10
E0
ENDCHAR
STARTCHAR 0459
ENCODING 1113
SWIDTH 750 0
DWIDTH 12 0
BBX 11 7 0 0
BITMAP
3F00
1200
1200
13C0
1220
9220
E7C0
ENDCHAR
STARTCHAR 045A
ENCODING 1114
SWIDTH 750 0
DWIDTH 12 0
BBX 10 7 1 0
BITMAP
EE00
4400
4400
7F80
4440
4440
EF80
ENDCHAR
STARTCHAR 045B
ENCODING 1115
SWIDTH 437 0
DWIDTH 7 0
BBX 7 11 0 0
BITMAP
C0
40
F8
40
58
64
44
44
44
44
EE
ENDCHAR
STARTCHAR 045C
ENCODING 1116
SWIDTH 437 0
DWIDTH 7 0
BBX 7 11 0 0
BITMAP
08
10
10
00
E6
48
48
70
50
48
E6
ENDCHAR
STARTCHAR 045D
ENCODING 1117
SWIDTH 562 0
DWIDTH 9 0
BBX 7 11 1 0
BITMAP
20
10
10
00
EE
44
4C
54
64
44
EE
ENDCHAR
STARTCHAR 045E
ENCODING 1118
SWIDTH 500 0
DWIDTH 8 0
BBX 8 13 0 -3
BITMAP
22
1C
00
E7
42
22
24
14
18
08
10
10
E0
ENDCHAR
STARTCHAR 045F
ENCODING 1119
SWIDTH 562 0
DWIDTH 9 0
BBX 7 9 1 -2
BITMAP
EE
44
44
44
44
44
FE
10
10
ENDCHAR
STARTCHAR 0460
ENCODING 1120
SWIDTH 1187 0
DWIDTH 19 0
BBX 17 11 1 0
BITMAP
1F7C00
214200
400100
800080
800080
83E080
808080
808080
408100
61C300
1E3C00
ENDCHAR
STARTCHAR 0461
ENCODING 1121
SWIDTH 625 0
DWIDTH 10 0
BBX 10 7 0 0
BITMAP
8440
8440
4C80
4A80
5280
2100
2100
ENDCHAR
STARTCHAR 0462
ENCODING 1122
SWIDTH 687 0
DWIDTH 11 0
BBX 10 11 0 0
BITMAP
7C00
1000
FF00
9100
1000
1F00
10C0
1040
1040
1080
7F00
ENDCHAR
STARTCHAR 0463
ENCODING 1123
SWIDTH 562 0
DWIDTH 9 0
BBX 8 11 0 0
BITMAP
10
30
10
10
FE
92
10
1E
11
11
3E
ENDCHAR
STARTCHAR 0464
ENCODING 1124
SWIDTH 937 0
DWIDTH 15 0
BBX 14 11 0 0
BITMAP
F8E4
211C
2204
2404
2400
3FC0
2400
2400
2204
2108
F8F0
ENDCHAR
STARTCHAR 0465
ENCODING 1125
SWIDTH 687 0
DWIDTH 11 0
BBX 10 7 0 0
BITMAP
E680
4980
4800
7F00
4800
4840
E780
ENDCHAR
STARTCHAR 0466
ENCODING 1126
SWIDTH 750 0
DWIDTH 12 0
BBX 11 11 0 0
BITMAP
0400
0400
0A00
0A00
1100
1F00
2480
2480
4440
4440
EEE0
ENDCHAR
STARTCHAR 0467
ENCODING 1127
SWIDTH 562 0
DWIDTH 9 0
BBX 9 7 0 0
BITMAP
0800
1400
1400
3E00
2900
4900
FF80
ENDCHAR
STARTCHAR 0468
ENCODING 1128
SWIDTH 1062 0
DWIDTH 17 0
BBX 17 11 0 0
BITMAP
F82000
203000
205000
204800
208800
3FF800
212400
212400
222200
222200
FF7780
ENDCHAR
STARTCHAR 0469
ENCODING 1129
SWIDTH 812 0
DWIDTH 13 0
BBX 12 7 0 0
BITMAP
E100
4280
4280
7FC0
4520
4920
FFF0
ENDCHAR
STARTCHAR 046A
ENCODING 1130
SWIDTH 875 0
DWIDTH 14 0
BBX 14 11 0 0
BITMAP
3FF0
1020
0840
0880
0500
0F80
1240
2220
2220
4210
CF8C
ENDCHAR
STARTCHAR 046B
ENCODING 1131
SWIDTH 687 0
DWIDTH 11 0
BBX 11 7 0 0
BITMAP
1F00
0A00
0A00
1F00
2480
2480
CE60
ENDCHAR
STARTCHAR 046C
ENCODING 1132
SWIDTH 1187 0
DWIDTH 19 0
BBX 19 11 0 0
BITMAP
F9FF80
208100
204200
204400
202800
3FFC00
209200
211100
211100
221080
F67C60
ENDCHAR
STARTCHAR 046D
ENCODING 1133
SWIDTH 937 0
DWIDTH 15 0
BBX 15 7 0 0
BITMAP
E1F0
40A0
40A0
7FF0
4248
4248
ECE6
ENDCHAR
STARTCHAR 046E
ENCODING 1134
SWIDTH 500 0
DWIDTH 8 0
BBX 7 16 0 -3
BITMAP
32
14
5C
62
42
02
04
18
06
02
02
02
7C
80
8E
F2
ENDCHAR
STARTCHAR 046F
ENCODING 1135
SWIDTH 375 0
DWIDTH 6 0
BBX 6 12 0 -3
BITMAP
64
28
78
48
48
10
08
08
70
80
98
E8
ENDCHAR
STARTCHAR 0470
ENCODING 1136
SWIDTH 750 0
DWIDTH 12 0
BBX 12 11 0 0
BITMAP
9F10
4420
4420
2420
2440
1F80
0400
0400
0400
0400
1F00
ENDCHAR
STARTCHAR 0471
ENCODING 1137
SWIDTH 625 0
DWIDTH 10 0
BBX 10 10 0 -3
BITMAP
C4C0
4480
4480
2480
2480
2500
1E00
0400
0400
0400
ENDCHAR
STARTCHAR 0472
ENCODING 1138
SWIDTH 750 0
DWIDTH 12 0
BBX 10 11 1 0
BITMAP
1E00
2100
4080
8040
B840
C7C0
8040
8040
4080
2100
1E00
ENDCHAR
STARTCHAR 0473
ENCODING 1139
SWIDTH 500 0
DWIDTH 8 0
BBX 6 7 1 0
BITMAP
30
48
E4
9C
84
C8
30
ENDCHAR
STARTCHAR 0474
ENCODING 1140
SWIDTH 812 0
DWIDTH 13 0
BBX 13 11 1 0
BITMAP
F038
2040
2040
1080
1080
1100
0900
0A00
0A00
0400
0400
ENDCHAR
STARTCHAR 0475
ENCODING 1141
SWIDTH 562 0
DWIDTH 9 0
BBX 8 7 1 0
BITMAP
E3
44
48
28
28
10
10
ENDCHAR
STARTCHAR 0476
ENCODING 1142
SWIDTH 812 0
DWIDTH 13 0
BBX 13 15 1 0
BITMAP
0A00
0A00
0500
0000
F038
2040
2040
1080
1080
1100
0900
0A00
0A00
0400
0400
ENDCHAR
STARTCHAR 0477
ENCODING 1143
SWIDTH 562 0
DWIDTH 9 0
BBX 8 11 1 0
BITMAP
50
50
28
00
E3
44
48
28
28
10
10
ENDCHAR
STARTCHAR 0478
ENCODING 1144
SWIDTH 1125 0
DWIDTH 18 0
BBX 17 14 1 -3
BITMAP
1C0000
630000
410000
808000
80BB80
809100
809100
808A00
410A00
630C00
1C0400
000400
000800
003000
ENDCHAR
STARTCHAR 0479
ENCODING 1145
SWIDTH 875 0
DWIDTH 14 0
BBX 13 10 1 -3
BITMAP
33B8
4910
8510
84A0
84A0
48C0
3040
0040
0080
0300
ENDCHAR
STARTCHAR 047A
ENCODING 1146
SWIDTH 750 0
DWIDTH 12 0
BBX 10 13 1 -1
BITMAP
0C00
3F00
4C80
4080
8040
8040
8040
8040
8040
4080
4C80
3F00
0C00
ENDCHAR
STARTCHAR 047B
ENCODING 1147
SWIDTH 562 0
DWIDTH 9 0
BBX 7 9 1 -1
BITMAP
10
38
54
82
82
82
54
38
10
ENDCHAR
STARTCHAR 047C
ENCODING 1148
SWIDTH 1187 0
DWIDTH 19 0
BBX 17 16 1 0
BITMAP
00C000
013000
02CC00
004000
008000
1C1C00
222200
422100
800080
800080
800080
800080
800080
408100
214200
1E3C00
ENDCHAR
STARTCHAR 047D
ENCODING 1149
SWIDTH 812 0
DWIDTH 13 0
BBX 11 12 1 0
BITMAP
0600
0980
1660
0200
0400
2080
4040
8020
8020
8020
4440
3B80
ENDCHAR
STARTCHAR 047E
ENCODING 1150
SWIDTH 1187 0
DWIDTH 19 0
BBX 17 14 1 0
BITMAP
07F000
049000
000000
1F7C00
214200
400100
800080
800080
83E080
808080
808080
408100
61C300
1E3C00
ENDCHAR
STARTCHAR 047F
ENCODING 1151
SWIDTH 625 0
DWIDTH 10 0
BBX 10 10 0 0
BITMAP
3F80
2480
0000
8440
8440
4C80
4A80
5280
2100
2100
ENDCHAR
STARTCHAR 0480
ENCODING 1152
SWIDTH 687 0
DWIDTH 11 0
BBX 9 14 1 -3
BITMAP
1E80
2180
4080
8080
8000
8000
8000
8000
4000
2000
1C00
0400
0400
1F00
ENDCHAR
STARTCHAR 0481
ENCODING 1153
SWIDTH 437 0
DWIDTH 7 0
BBX 5 10 1 -3
BITMAP
70
88
80
80
80
80
60
20
20
70
ENDCHAR
STARTCHAR 0482
ENCODING 1154
SWIDTH 312 0
DWIDTH 5 0
BBX 5 11 0 0
BITMAP
08
10
10
50
38
A0
70
40
40
40
80
ENDCHAR
STARTCHAR 0483
ENCODING 1155
SWIDTH 0 0
DWIDTH 0 0
BBX 5 3 -2 8
BITMAP
08
F8
80
ENDCHAR
STARTCHAR 0484
ENCODING 1156
SWIDTH 0 0
DWIDTH 0 0
BBX 5 2 -3 10
BITMAP
38
C8
ENDCHAR
STARTCHAR 0485
ENCODING 1157
SWIDTH 0 0
DWIDTH 0 0
BBX 2 3 -1 8
BITMAP
C0
80
40
ENDCHAR
STARTCHAR 0486
ENCODING 1158
SWIDTH 0 0
DWIDTH 0 0
BBX 2 3 -1 8
BITMAP
C0
40
80
ENDCHAR
STARTCHAR 0487
ENCODING 1159
SWIDTH 0 0
DWIDTH 0 0
BBX 8 3 -4 10
BITMAP
30
4C
83
ENDCHAR
STARTCHAR 0488
ENCODING 1160
SWIDTH 0 0
DWIDTH 0 0
BBX 18 14 -9 -2
BITMAP
00E000
012000
380700
480480
000000
000000
700380
900240
000000
000000
380700
480480
00E000
012000
ENDCHAR
STARTCHAR 0489
ENCODING 1161
SWIDTH 0 0
DWIDTH 0 0
BBX 16 16 -8 -3
BITMAP
0080
2100
2187
300C
1000
0000
0000
A006
6005
0000
0008
300C
E004
0184
0080
0100
ENDCHAR
STARTCHAR 048A
ENCODING 1162
SWIDTH 750 0
DWIDTH 12 0
BBX 12 18 0 -3
BITMAP
1080
1080
0F00
0000
F9F0
2040
2040
20C0
2140
2240
2440
2840
3040
2040
F9F0
0010
0010
0010
ENDCHAR
STARTCHAR 048B
ENCODING 1163
SWIDTH 562 0
DWIDTH 9 0
BBX 7 12 1 -2
BITMAP
44
38
00
EE
44
4C
54
64
44
EE
02
02
ENDCHAR
STARTCHAR 048C
ENCODING 1164
SWIDTH 562 0
DWIDTH 9 0
BBX 9 11 0 0
BITMAP
2000
F800
2000
2000
2000
3E00
2180
2080
2080
2100
FE00
ENDCHAR
STARTCHAR 048D
ENCODING 1165
SWIDTH 500 0
DWIDTH 8 0
BBX 6 11 1 0
BITMAP
40
40
E0
40
40
40
40
78
44
44
F8
ENDCHAR
STARTCHAR 048E
ENCODING 1166
SWIDTH 562 0
DWIDTH 9 0
BBX 8 11 0 0
BITMAP
FC
22
21
21
25
22
3E
21
20
20
F8
ENDCHAR
STARTCHAR 048F
ENCODING 1167
SWIDTH 500 0
DWIDTH 8 0
BBX 7 10 0 -3
BITMAP
58
E4
42
42
4A
44
7C
42
40
E0
ENDCHAR
STARTCHAR 0490
ENCODING 1168
SWIDTH 437 0
DWIDTH 7 0
BBX 7 13 0 0
BITMAP
02
02
FE
20
20
20
20
20
20
20
20
20
F8
ENDCHAR
STARTCHAR 0491
ENCODING 1169
SWIDTH 375 0
DWIDTH 6 0
BBX 5 8 1 0
BITMAP
08
F8
40
40
40
40
40
E0
ENDCHAR
STARTCHAR 0492
ENCODING 1170
SWIDTH 562 0
DWIDTH 9 0
BBX 9 11 0 0
BITMAP
FF80
2080
2000
2000
FC00
2000
2000
2000
2000
2000
F800
ENDCHAR
STARTCHAR 0493
ENCODING 1171
SWIDTH 375 0
DWIDTH 6 0
BBX 6 7 0 0
BITMAP
F8
44
40
F0
40
40
E0
ENDCHAR
STARTCHAR 0494
ENCODING 1172
SWIDTH 625 0
DWIDTH 10 0
BBX 9 14 0 -3
BITMAP
FF00
2100
2000
2000
2E00
3100
2080
2080
2080
2080
F880
0080
1100
1E00
ENDCHAR
STARTCHAR 0495
ENCODING 1173
SWIDTH 500 0
DWIDTH 8 0
BBX 7 10 0 -3
BITMAP
FC
44
40
78
44
42
E2
02
04
38
ENDCHAR
STARTCHAR 0496
ENCODING 1174
SWIDTH 875 0
DWIDTH 14 0
BBX 15 14 0 -3
BITMAP
E7CE
1110
1110
0920
0920
07C0
0920
0920
1110
1110
E7C8
0006
0002
0002
ENDCHAR
STARTCHAR 0497
ENCODING 1175
SWIDTH 687 0
DWIDTH 11 0
BBX 9 9 1 -2
BITMAP
DD80
4900
2A00
1C00
2A00
4900
DD80
0080
0080
ENDCHAR
STARTCHAR 0498
ENCODING 1176
SWIDTH 500 0
DWIDTH 8 0
BBX 7 14 0 -3
BITMAP
5C
62
42
04
18
04
02
02
82
44
38
10
10
60
ENDCHAR
STARTCHAR 0499
ENCODING 1177
SWIDTH 375 0
DWIDTH 6 0
BBX 5 10 0 -3
BITMAP
B0
C8
08
30
08
88
70
10
10
60
ENDCHAR
STARTCHAR 049A
ENCODING 1178
SWIDTH 687 0
DWIDTH 11 0
BBX 11 14 0 -3
BITMAP
F9C0
2240
2200
2200
2400
3800
2800
2400
2200
2100
F9C0
0060
0020
0020
ENDCHAR
STARTCHAR 049B
ENCODING 1179
SWIDTH 437 0
DWIDTH 7 0
BBX 8 9 0 -2
BITMAP
E6
48
58
70
50
48
E7
01
01
ENDCHAR
STARTCHAR 049C
ENCODING 1180
SWIDTH 687 0
DWIDTH 11 0
BBX 10 11 0 0
BITMAP
F9C0
2240
2A00
2A00
2C00
3800
2C00
2A00
2A00
2100
F8C0
ENDCHAR
STARTCHAR 049D
ENCODING 1181
SWIDTH 437 0
DWIDTH 7 0
BBX 8 7 0 0
BITMAP
E6
54
5C
70
58
54
E3
ENDCHAR
STARTCHAR 049E
ENCODING 1182
SWIDTH 687 0
DWIDTH 11 0
BBX 11 11 0 0
BITMAP
F9C0
2240
FA00
2400
2400
3800
2400
2200
2100
2080
F8E0
ENDCHAR
STARTCHAR 049F
ENCODING 1183
SWIDTH 500 0
DWIDTH 8 0
BBX 8 11 0 0
BITMAP
40
C0
40
F0
46
48
50
70
48
44
E3
ENDCHAR
STARTCHAR 04A0
ENCODING 1184
SWIDTH 812 0
DWIDTH 13 0
BBX 13 11 0 0
BITMAP
FE70
8890
0880
0900
0900
0E00
0900
0880
0840
0820
3E38
ENDCHAR
STARTCHAR 04A1
ENCODING 1185
SWIDTH 562 0
DWIDTH 9 0
BBX 9 7 0 0
BITMAP
FB00
9200
1400
1C00
1200
1200
3980
ENDCHAR
STARTCHAR 04A2
ENCODING 1186
SWIDTH 687 0
DWIDTH 11 0
BBX 11 14 0 -3
BITMAP
FBE0
2080
2080
2080
2080
3F80
2080
2080
2080
2080
FBE0
0060
0020
0020
ENDCHAR
STARTCHAR 04A3
ENCODING 1187
SWIDTH 562 0
DWIDTH 9 0
BBX 7 9 1 -2
BITMAP
EE
44
44
7C
44
44
EE
02
02
ENDCHAR
STARTCHAR 04A4
ENCODING 1188
SWIDTH 875 0
DWIDTH 14 0
BBX 14 11 0 0
BITMAP
F9FC
2044
2040
2040
2040
3FC0
2040
2040
2040
2040
F9F0
ENDCHAR
STARTCHAR 04A5
ENCODING 1189
SWIDTH 625 0
DWIDTH 10 0
BBX 10 7 0 0
BITMAP
E7C0
4240
4200
7E00
4200
4200
E700
ENDCHAR
STARTCHAR 04A6
ENCODING 1190
SWIDTH 1062 0
DWIDTH 17 0
BBX 16 14 0 -3
BITMAP
FFF0
2040
2040
2040
205C
2062
2041
2041
2041
2041
F9F1
0001
0022
003C
ENDCHAR
STARTCHAR 04A7
ENCODING 1191
SWIDTH 812 0
DWIDTH 13 0
BBX 12 10 0 -3
BITMAP
FF00
4200
4200
43C0
4220
4210
E710
0010
0020
01C0
ENDCHAR
STARTCHAR 04A8
ENCODING 1192
SWIDTH 687 0
DWIDTH 11 0
BBX 10 11 1 0
BITMAP
3000
4600
8900
9080
9080
9080
9080
9080
4900
4640
3F80
ENDCHAR
STARTCHAR 04A9
ENCODING 1193
SWIDTH 437 0
DWIDTH 7 0
BBX 5 7 1 0
BITMAP
40
90
A8
A8
A8
90
78
ENDCHAR
STARTCHAR 04AA
ENCODING 1194
SWIDTH 687 0
DWIDTH 11 0
BBX 9 14 1 -3
BITMAP
1E80
2180
4080
8080
8000
8000
8000
8000
4080
6100
1E00
0400
0400
1800
ENDCHAR
STARTCHAR 04AB
ENCODING 1195
SWIDTH 437 0
DWIDTH 7 0
BBX 5 10 1 -3
BITMAP
70
88
80
80
80
88
70
10
10
60
ENDCHAR
STARTCHAR 04AC
ENCODING 1196
SWIDTH 625 0
DWIDTH 10 0
BBX 9 14 0 -3
BITMAP
FF80
8880
8880
0800
0800
0800
0800
0800
0800
0800
3E00
0200
0200
0200
ENDCHAR
STARTCHAR 04AD
ENCODING 1197
SWIDTH 437 0
DWIDTH 7 0
BBX 7 9 0 -2
BITMAP
FE
92
10
10
10
10
38
08
08
ENDCHAR
STARTCHAR 04AE
ENCODING 1198
SWIDTH 687 0
DWIDTH 11 0
BBX 10 11 1 0
BITMAP
F3C0
2180
2200
1200
1400
0800
0800
0800
0800
0800
3E00
ENDCHAR
STARTCHAR 04AF
ENCODING 1199
SWIDTH 500 0
DWIDTH 8 0
BBX 8 10 0 -3
BITMAP
E7
42
44
28
28
10
10
10
10
38
ENDCHAR
STARTCHAR 04B0
ENCODING 1200
SWIDTH 687 0
DWIDTH 11 0
BBX 10 11 1 0
BITMAP
F3C0
2100
2200
1200
1400
0800
0800
7F00
0800
0800
3E00
ENDCHAR
STARTCHAR 04B1
ENCODING 1201
SWIDTH 500 0
DWIDTH 8 0
BBX 8 10 0 -3
BITMAP
E7
42
44
28
28
10
FF
10
10
38
ENDCHAR
STARTCHAR 04B2
ENCODING 1202
SWIDTH 687 0
DWIDTH 11 0
BBX 11 14 0 -3
BITMAP
F9C0
2080
1100
0A00
0A00
0400
0A00
0A00
1100
2080
F1E0
0060
0020
0020
ENDCHAR
STARTCHAR 04B3
ENCODING 1203
SWIDTH 437 0
DWIDTH 7 0
BBX 7 9 0 -2
BITMAP
EE
44
28
10
28
44
EE
02
02
ENDCHAR
STARTCHAR 04B4
ENCODING 1204
SWIDTH 812 0
DWIDTH 13 0
BBX 13 14 0 -3
BITMAP
FEF8
9220
9220
1020
1020
1020
1020
1020
1020
1020
7FF8
0008
0008
0008
ENDCHAR
STARTCHAR 04B5
ENCODING 1205
SWIDTH 625 0
DWIDTH 10 0
BBX 9 9 0 -2
BITMAP
FB80
A900
2100
2100
2100
2100
7F80
0080
0080
ENDCHAR
STARTCHAR 04B6
ENCODING 1206
SWIDTH 625 0
DWIDTH 10 0
BBX 10 14 0 -3
BITMAP
F7C0
2100
2100
2100
2100
2300
1D00
0100
0100
0100
07C0
0040
0040
0040
ENDCHAR
STARTCHAR 04B7
ENCODING 1207
SWIDTH 500 0
DWIDTH 8 0
BBX 7 9 0 -2
BITMAP
EE
44
44
7C
04
04
0E
02
02
ENDCHAR
STARTCHAR 04B8
ENCODING 1208
SWIDTH 625 0
DWIDTH 10 0
BBX 10 11 0 0
BITMAP
F7C0
2100
2900
2900
2900
2B00
1D00
0900
0900
0100
07C0
ENDCHAR
STARTCHAR 04B9
ENCODING 1209
SWIDTH 500 0
DWIDTH 8 0
BBX 7 7 0 0
BITMAP
EE
54
54
7C
14
04
0E
ENDCHAR
STARTCHAR 04BA
ENCODING 1210
SWIDTH 625 0
DWIDTH 10 0
BBX 10 11 0 0
BITMAP
F800
2000
2000
2000
2E00
3100
2100
2100
2100
2100
FBC0
ENDCHAR
STARTCHAR 04BB
ENCODING 1211
SWIDTH 437 0
DWIDTH 7 0
BBX 7 11 0 0
BITMAP
40
C0
40
40
58
64
44
44
44
44
EE
ENDCHAR
STARTCHAR 04BC
ENCODING 1212
SWIDTH 875 0
DWIDTH 14 0
BBX 13 11 0 0
BITMAP
03C0
0C20
0810
D008
9008
7FF8
1000
1000
0810
0420
03C0
ENDCHAR
STARTCHAR 04BD
ENCODING 1213
SWIDTH 562 0
DWIDTH 9 0
BBX 8 7 0 0
BITMAP
CE
91
7F
10
10
19
0E
ENDCHAR
STARTCHAR 04BE
ENCODING 1214
SWIDTH 875 0
DWIDTH 14 0
BBX 13 13 0 -2
BITMAP
03C0
0420
C810
D008
9008
7FF8
1000
1000
0810
0420
03C0
0080
0080
ENDCHAR
STARTCHAR 04BF
ENCODING 1215
SWIDTH 562 0
DWIDTH 9 0
BBX 9 10 -1 -2
BITMAP
6000
EF00
9080
7F80
1000
1000
0880
0700
0200
0200
ENDCHAR
STARTCHAR 04C0
ENCODING 1216
SWIDTH 312 0
DWIDTH 5 0
BBX 5 11 0 0
BITMAP
F8
20
20
20
20
20
20
20
20
20
F8
ENDCHAR
STARTCHAR 04C1
ENCODING 1217
SWIDTH 875 0
DWIDTH 14 0
BBX 15 14 0 0
BITMAP
0440
0380
0000
E7CE
1110
1110
0920
0920
07C0
0940
0920
1110
1110
E7CE
ENDCHAR
STARTCHAR 04C2
ENCODING 1218
SWIDTH 687 0
DWIDTH 11 0
BBX 9 10 1 0
BITMAP
2200
1C00
0000
DD80
4900
2A00
1C00
2A00
4900
DD80
ENDCHAR
STARTCHAR 04C3
ENCODING 1219
SWIDTH 687 0
DWIDTH 11 0
BBX 10 14 0 -3
BITMAP
F9C0
2240
2200
2400
2400
3F00
2080
2040
2040
2040
F840
0040
1880
1700
ENDCHAR
STARTCHAR 04C4
ENCODING 1220
SWIDTH 500 0
DWIDTH 8 0
BBX 7 10 0 -3
BITMAP
E6
48
50
78
44
42
E2
02
04
38
ENDCHAR
STARTCHAR 04C5
ENCODING 1221
SWIDTH 687 0
DWIDTH 11 0
BBX 11 14 0 -3
BITMAP
7FE0
1080
1080
1080
1080
1080
1080
1080
1080
A080
E3E0
0020
0020
0020
ENDCHAR
STARTCHAR 04C6
ENCODING 1222
SWIDTH 500 0
DWIDTH 8 0
BBX 8 9 0 -2
BITMAP
7F
22
22
22
22
A2
C7
01
01
ENDCHAR
STARTCHAR 04C7
ENCODING 1223
SWIDTH 750 0
DWIDTH 12 0
BBX 12 14 0 -3
BITMAP
F9F0
2040
2040
2040
2040
3FC0
2040
2040
2040
2040
F840
0040
1880
1700
ENDCHAR
STARTCHAR 04C8
ENCODING 1224
SWIDTH 562 0
DWIDTH 9 0
BBX 7 10 1 -3
BITMAP
EE
44
44
7C
44
44
E4
04
04
78
ENDCHAR
STARTCHAR 04C9
ENCODING 1225
SWIDTH 750 0
DWIDTH 12 0
BBX 12 14 0 -3
BITMAP
F9F0
2040
2040
2040
2040
3FC0
2040
2040
2040
2040
F9F0
0010
0010
0010
ENDCHAR
STARTCHAR 04CA
ENCODING 1226
SWIDTH 562 0
DWIDTH 9 0
BBX 7 9 1 -2
BITMAP
EE
44
44
7C
44
44
EE
02
02
ENDCHAR
STARTCHAR 04CB
ENCODING 1227
SWIDTH 625 0
DWIDTH 10 0
BBX 10 14 0 -3
BITMAP
F7C0
2100
2100
2100
2100
2300
1D00
0100
0100
0100
07C0
0400
0400
0400
ENDCHAR
STARTCHAR 04CC
ENCODING 1228
SWIDTH 500 0
DWIDTH 8 0
BBX 7 9 0 -2
BITMAP
EE
44
44
7C
04
04
0E
08
08
ENDCHAR
STARTCHAR 04CD
ENCODING 1229
SWIDTH 875 0
DWIDTH 14 0
BBX 14 14 0 -3
BITMAP
E01C
3030
3030
2850
2850
2450
2490
2490
2290
2310
F97C
0004
0004
0004
ENDCHAR
STARTCHAR 04CE
ENCODING 1230
SWIDTH 625 0
DWIDTH 10 0
BBX 9 9 0 -2
BITMAP
E380
6300
5500
5500
5500
4900
EB80
0080
0080
ENDCHAR
STARTCHAR 04CF
ENCODING 1231
SWIDTH 187 0
DWIDTH 3 0
BBX 3 11 0 0
BITMAP
40
C0
40
40
40
40
40
40
40
40
E0
ENDCHAR
STARTCHAR 04D0
ENCODING 1232
SWIDTH 687 0
DWIDTH 11 0
BBX 11 14 0 0
BITMAP
1100
0E00
0000
0400
0400
0A00
0A00
0A00
1100
1100
1F00
2080
2080
F1E0
ENDCHAR
STARTCHAR 04D1
ENCODING 1233
SWIDTH 437 0
DWIDTH 7 0
BBX 6 10 1 0
BITMAP
88
70
00
70
88
18
68
88
98
6C
ENDCHAR
STARTCHAR 04D2
ENCODING 1234
SWIDTH 687 0
DWIDTH 11 0
BBX 11 13 0 0
BITMAP
0A00
0000
0400
0400
0A00
0A00
0A00
1100
1100
1F00
2080
2080
F1E0
ENDCHAR
STARTCHAR 04D3
ENCODING 1235
SWIDTH 437 0
DWIDTH 7 0
BBX 6 9 1 0
BITMAP
50
00
70
88
18
68
88
98
6C
ENDCHAR
STARTCHAR 04D4
ENCODING 1236
SWIDTH 812 0
DWIDTH 13 0
BBX 13 11 0 0
BITMAP
1FF8
0608
0A00
0A20
1220
13E0
3E20
2220
4208
4218
EFF0
ENDCHAR
STARTCHAR 04D5
ENCODING 1237
SWIDTH 687 0
DWIDTH 11 0
BBX 9 7 1 0
BITMAP
7F00
8880
1F80
6800
8800
8880
F700
ENDCHAR
STARTCHAR 04D6
ENCODING 1238
SWIDTH 562 0
DWIDTH 9 0
BBX 9 14 0 0
BITMAP
2200
1C00
0000
FF00
2100
2000
2000
2200
3E00
2200
2000
2080
2100
FF00
ENDCHAR
STARTCHAR 04D7
ENCODING 1239
SWIDTH 437 0
DWIDTH 7 0
BBX 5 10 1 0
BITMAP
88
70
00
70
88
F8
80
80
88
70
ENDCHAR
STARTCHAR 04D8
ENCODING 1240
SWIDTH 750 0
DWIDTH 12 0
BBX 10 11 1 0
BITMAP
9E00
E100
8080
8040
0040
FFC0
8040
8040
4080
2100
1E00
ENDCHAR
STARTCHAR 04D9
ENCODING 1241
SWIDTH 437 0
DWIDTH 7 0
BBX 5 7 1 0
BITMAP
70
88
08
08
F8
88
70
ENDCHAR
STARTCHAR 04DA
ENCODING 1242
SWIDTH 750 0
DWIDTH 12 0
BBX 10 13 1 0
BITMAP
1400
0000
9E00
E100
8080
8040
0040
FFC0
8040
8040
4080
2100
1E00
ENDCHAR
STARTCHAR 04DB
ENCODING 1243
SWIDTH 437 0
DWIDTH 7 0
BBX 5 9 1 0
BITMAP
50
00
70
88
08
08
F8
88
70
ENDCHAR
STARTCHAR 04DC
ENCODING 1244
SWIDTH 875 0
DWIDTH 14 0
BBX 15 13 0 0
BITMAP
0280
0000
E7CE
1110
1110
0920
0920
07C0
0940
0920
1110
1110
E7CE
ENDCHAR
STARTCHAR 04DD
ENCODING 1245
SWIDTH 687 0
DWIDTH 11 0
BBX 9 9 1 0
BITMAP
1400
0000
DD80
4900
2A00
1C00
2A00
4900
DD80
ENDCHAR
STARTCHAR 04DE
ENCODING 1246
SWIDTH 500 0
DWIDTH 8 0
BBX 7 13 0 0
BITMAP
14
00
5C
62
42
04
18
04
02
02
82
44
38
ENDCHAR
STARTCHAR 04DF
ENCODING 1247
SWIDTH 375 0
DWIDTH 6 0
BBX 5 9 0 0
BITMAP
50
00
B0
C8
08
30
08
88
70
ENDCHAR
STARTCHAR 04E0
ENCODING 1248
SWIDTH 500 0
DWIDTH 8 0
BBX 6 11 1 0
BITMAP
FC
88
90
20
30
08
04
04
04
88
70
ENDCHAR
STARTCHAR 04E1
ENCODING 1249
SWIDTH 437 0
DWIDTH 7 0
BBX 6 10 0 -3
BITMAP
7C
48
10
10
38
04
04
04
88
70
ENDCHAR
STARTCHAR 04E2
ENCODING 1250
SWIDTH 687 0
DWIDTH 11 0
BBX 11 13 0 0
BITMAP
1F00
0000
FBE0
2080
2080
2180
2280
2480
2880
3080
2080
2080
FBE0
ENDCHAR
STARTCHAR 04E3
ENCODING 1251
SWIDTH 562 0
DWIDTH 9 0
BBX 7 9 1 0
BITMAP
7C
00
EE
44
4C
54
64
44
EE
ENDCHAR
STARTCHAR 04E4
ENCODING 1252
SWIDTH 687 0
DWIDTH 11 0
BBX 11 13 0 0
BITMAP
0A00
0000
FBE0
2080
2080
2180
2280
2480
2880
3080
2080
2080
FBE0
ENDCHAR
STARTCHAR 04E5
ENCODING 1253
SWIDTH 562 0
DWIDTH 9 0
BBX 7 9 1 0
BITMAP
28
00
EE
44
4C
54
64
44
EE
ENDCHAR
STARTCHAR 04E6
ENCODING 1254
SWIDTH 750 0
DWIDTH 12 0
BBX 10 13 1 0
BITMAP
0A00
0000
1E00
2100
4080
8040
8040
8040
8040
8040
4080
2100
1E00
ENDCHAR
STARTCHAR 04E7
ENCODING 1255
SWIDTH 500 0
DWIDTH 8 0
BBX 6 9 1 0
BITMAP
28
00
30
48
84
84
84
48
30
ENDCHAR
STARTCHAR 04E8
ENCODING 1256
SWIDTH 750 0
DWIDTH 12 0
BBX 10 11 1 0
BITMAP
1E00
2100
4080
8040
8040
FFC0
8040
8040
4080
2100
1E00
ENDCHAR
STARTCHAR 04E9
ENCODING 1257
SWIDTH 500 0
DWIDTH 8 0
BBX 6 7 1 0
BITMAP
30
48
84
FC
84
C8
30
ENDCHAR
STARTCHAR 04EA
ENCODING 1258
SWIDTH 750 0
DWIDTH 12 0
BBX 10 13 1 0
BITMAP
0A00
0000
1E00
2100
4080
8040
8040
FFC0
8040
8040
4080
2100
1E00
ENDCHAR
STARTCHAR 04EB
ENCODING 1259
SWIDTH 500 0
DWIDTH 8 0
BBX 6 9 1 0
BITMAP
28
00
30
48
84
FC
84
C8
30
ENDCHAR
STARTCHAR 04EC
ENCODING 1260
SWIDTH 687 0
DWIDTH 11 0
BBX 9 13 1 0
BITMAP
1400
0000
BC00
C200
8100
8080
0080
0F80
0080
0080
8100
4200
3C00
ENDCHAR
STARTCHAR 04ED
ENCODING 1261
SWIDTH 437 0
DWIDTH 7 0
BBX 6 9 0 0
BITMAP
28
00
58
64
04
3C
04
88
70
ENDCHAR
STARTCHAR 04EE
ENCODING 1262
SWIDTH 687 0
DWIDTH 11 0
BBX 11 13 0 0
BITMAP
1F00
0000
F1E0
2080
1080
1100
0900
0500
0500
0200
0200
0400
3800
ENDCHAR
STARTCHAR 04EF
ENCODING 1263
SWIDTH 437 0
DWIDTH 7 0
BBX 7 12 0 -3
BITMAP
7C
00
EE
44
44
28
28
18
10
10
20
C0
ENDCHAR
STARTCHAR 04F0
ENCODING 1264
SWIDTH 687 0
DWIDTH 11 0
BBX 11 13 0 0
BITMAP
0A00
0000
F1E0
2080
1080
1100
0900
0500
0500
0200
0200
0400
3800
ENDCHAR
STARTCHAR 04F1
ENCODING 1265
SWIDTH 437 0
DWIDTH 7 0
BBX 7 12 0 -3
BITMAP
28
00
EE
44
44
28
28
18
10
10
20
C0
ENDCHAR
STARTCHAR 04F2
ENCODING 1266
SWIDTH 687 0
DWIDTH 11 0
BBX 11 15 0 0
BITMAP
0500
0A00
0000
0000
F1E0
2080
1080
1100
0900
0500
0500
0200
0200
0400
3800
ENDCHAR
STARTCHAR 04F3
ENCODING 1267
SWIDTH 437 0
DWIDTH 7 0
BBX 7 14 0 -3
BITMAP
14
28
00
00
EE
44
44
28
28
18
10
10
20
C0
ENDCHAR
STARTCHAR 04F4
ENCODING 1268
SWIDTH 625 0
DWIDTH 10 0
BBX 10 13 0 0
BITMAP
0A00
0000
F7C0
2100
2100
2100
2100
2300
1D00
0100
0100
0100
07C0
ENDCHAR
STARTCHAR 04F5
ENCODING 1269
SWIDTH 500 0
DWIDTH 8 0
BBX 7 9 0 0
BITMAP
28
00
EE
44
44
7C
04
04
0E
ENDCHAR
STARTCHAR 04F6
ENCODING 1270
SWIDTH 562 0
DWIDTH 9 0
BBX 9 14 0 -3
BITMAP
FF80
2080
2080
2000
2000
2000
2000
2000
2000
2000
F800
1800
1800
0800
ENDCHAR
STARTCHAR 04F7
ENCODING 1271
SWIDTH 437 0
DWIDTH 7 0
BBX 7 9 0 -2
BITMAP
FE
42
40
40
40
40
E0
20
20
ENDCHAR
STARTCHAR 04F8
ENCODING 1272
SWIDTH 875 0
DWIDTH 14 0
BBX 14 13 0 0
BITMAP
0280
0000
F87C
2010
2010
2010
2010
3E10
2110
2090
2090
2110
FE7C
ENDCHAR
STARTCHAR 04F9
ENCODING 1273
SWIDTH 687 0
DWIDTH 11 0
BBX 9 9 1 0
BITMAP
1400
0000
E380
4100
4100
7900
4500
4500
FB80
ENDCHAR
STARTCHAR 04FA
ENCODING 1274
SWIDTH 562 0
DWIDTH 9 0
BBX 9 14 0 -3
BITMAP
FF80
2080
2080
2000
2000
FC00
2000
2000
2000
2000
F800
0800
2800
3000
ENDCHAR
STARTCHAR 04FB
ENCODING 1275
SWIDTH 437 0
DWIDTH 7 0
BBX 7 10 0 -3
BITMAP
FE
42
40
F0
40
40
E0
20
A0
C0
ENDCHAR
STARTCHAR 04FC
ENCODING 1276
SWIDTH 750 0
DWIDTH 12 0
BBX 11 14 0 -3
BITMAP
78E0
1040
1080
0900
0600
0200
0500
0880
1040
2040
F020
0020
0020
00C0
ENDCHAR
STARTCHAR 04FD
ENCODING 1277
SWIDTH 500 0
DWIDTH 8 0
BBX 7 10 0 -3
BITMAP
EE
44
28
10
28
44
E2
02
02
0C
ENDCHAR
STARTCHAR 04FE
ENCODING 1278
SWIDTH 750 0
DWIDTH 12 0
BBX 12 11 0 0
BITMAP
78E0
3040
1080
0900
0600
3FC0
0500
0880
1040
2060
F0F0
ENDCHAR
STARTCHAR 04FF
ENCODING 1279
SWIDTH 500 0
DWIDTH 8 0
BBX 8 7 0 0
BITMAP
EE
44
28
7E
24
42
E7
ENDCHAR
STARTCHAR 0500
ENCODING 1280
SWIDTH 562 0
DWIDTH 9 0
BBX 9 11 0 0
BITMAP
0F80
0200
0200
0200
0200
3E00
4200
8200
8200
4200
3F80
ENDCHAR
STARTCHAR 0501
ENCODING 1281
SWIDTH 500 0
DWIDTH 8 0
BBX 7 11 1 0
BITMAP
04
0C
04
04
34
4C
84
84
84
4E
34
ENDCHAR
STARTCHAR 0502
ENCODING 1282
SWIDTH 812 0
DWIDTH 13 0
BBX 12 11 1 0
BITMAP
1F00
0400
0400
0400
0400
3C70
4420
8420
8420
4420
3FC0
ENDCHAR
STARTCHAR 0503
ENCODING 1283
SWIDTH 750 0
DWIDTH 12 0
BBX 11 11 1 0
BITMAP
0400
0C00
0400
0400
3400
4C00
8400
84E0
8440
4440
3B80
ENDCHAR
STARTCHAR 0504
ENCODING 1284
SWIDTH 812 0
DWIDTH 13 0
BBX 12 11 1 0
BITMAP
BC00
C200
8200
0400
1800
0470
0220
0220
0220
0220
01C0
ENDCHAR
STARTCHAR 0505
ENCODING 1285
SWIDTH 687 0
DWIDTH 11 0
BBX 10 7 1 0
BITMAP
B000
C800
0800
31C0
0880
0880
0700
ENDCHAR
STARTCHAR 0506
ENCODING 1286
SWIDTH 562 0
DWIDTH 9 0
BBX 7 14 1 -3
BITMAP
B8
C4
84
04
08
30
08
04
04
04
06
02
02
02
ENDCHAR
STARTCHAR 0507
ENCODING 1287
SWIDTH 437 0
DWIDTH 7 0
BBX 6 9 0 -2
BITMAP
B0
C8
08
30
08
08
0C
04
04
ENDCHAR
STARTCHAR 0508
ENCODING 1288
SWIDTH 937 0
DWIDTH 15 0
BBX 15 11 0 0
BITMAP
7FE0
1080
1080
1080
1080
108E
1084
1084
1084
A0C4
C078
ENDCHAR
STARTCHAR 0509
ENCODING 1289
SWIDTH 750 0
DWIDTH 12 0
BBX 12 7 0 0
BITMAP
7F00
2200
2200
2270
2220
A220
C1C0
ENDCHAR
STARTCHAR 050A
ENCODING 1290
SWIDTH 937 0
DWIDTH 15 0
BBX 15 11 0 0
BITMAP
FBE0
2080
2080
2080
2080
3F8E
2084
2084
2084
2084
F878
ENDCHAR
STARTCHAR 050B
ENCODING 1291
SWIDTH 812 0
DWIDTH 13 0
BBX 13 7 0 0
BITMAP
E700
4200
4200
7E38
4210
4210
E1E0
ENDCHAR
STARTCHAR 050C
ENCODING 1292
SWIDTH 750 0
DWIDTH 12 0
BBX 10 11 1 0
BITMAP
1E80
2180
4080
8000
8000
81C0
8080
8080
4080
2100
1E00
ENDCHAR
STARTCHAR 050D
ENCODING 1293
SWIDTH 437 0
DWIDTH 7 0
BBX 6 7 1 0
BITMAP
68
98
80
80
9C
C8
70
ENDCHAR
STARTCHAR 050E
ENCODING 1294
SWIDTH 687 0
DWIDTH 11 0
BBX 11 11 0 0
BITMAP
FF80
8880
8880
0800
0800
08E0
0840
0840
0840
0840
0780
ENDCHAR
STARTCHAR 050F
ENCODING 1295
SWIDTH 625 0
DWIDTH 10 0
BBX 10 7 0 0
BITMAP
FE00
9200
1000
11C0
1080
1080
0F00
ENDCHAR
STARTCHAR 0510
ENCODING 1296
SWIDTH 500 0
DWIDTH 8 0
BBX 7 11 1 0
BITMAP
74
8C
84
40
38
40
80
80
82
44
38
ENDCHAR
STARTCHAR 0511
ENCODING 1297
SWIDTH 375 0
DWIDTH 6 0
BBX 4 7 1 0
BITMAP
F0
90
90
40
80
90
60
ENDCHAR
STARTCHAR 0512
ENCODING 1298
SWIDTH 687 0
DWIDTH 11 0
BBX 10 14 1 -3
BITMAP
7FC0
1100
1100
1100
1100
1100
1100
1100
1100
A100
C100
0100
0100
0E00
ENDCHAR
STARTCHAR 0513
ENCODING 1299
SWIDTH 500 0
DWIDTH 8 0
BBX 8 10 0 -3
BITMAP
7F
22
22
22
22
22
C2
02
02
1C
ENDCHAR
STARTCHAR 051A
ENCODING 1306
SWIDTH 750 0
DWIDTH 12 0
BBX 10 14 1 -3
BITMAP
1E00
2100
4080
8040
8040
8040
8040
8040
4080
2100
1E00
0400
0300
00C0
ENDCHAR
STARTCHAR 051B
ENCODING 1307
SWIDTH 500 0
DWIDTH 8 0
BBX 7 10 1 -3
BITMAP
34
4C
84
84
84
8C
74
04
04
0E
ENDCHAR
STARTCHAR 051C
ENCODING 1308
SWIDTH 937 0
DWIDTH 15 0
BBX 15 11 0 0
BITMAP
F79E
2108
2108
1108
1090
1190
0A90
0A50
0A50
0420
0420
ENDCHAR
STARTCHAR 051D
ENCODING 1309
SWIDTH 687 0
DWIDTH 11 0
BBX 11 7 0 0
BITMAP
EEE0
4440
4440
2A80
2A80
3300
1100
ENDCHAR
STARTCHAR 0591
ENCODING 1425
SWIDTH 0 0
DWIDTH 0 0
BBX 3 3 -1 -3
BITMAP
40
E0
A0
ENDCHAR
STARTCHAR 0592
ENCODING 1426
SWIDTH 0 0
DWIDTH 0 0
BBX 5 2 -3 10
BITMAP
20
88
ENDCHAR
STARTCHAR 0593
ENCODING 1427
SWIDTH 0 0
DWIDTH 0 0
BBX 2 6 -1 9
BITMAP
40
80
40
80
40
80
ENDCHAR
STARTCHAR 0594
ENCODING 1428
SWIDTH 0 0
DWIDTH 0 0
BBX 1 3 -1 10
BITMAP
80
00
80
ENDCHAR
STARTCHAR 0595
ENCODING 1429
SWIDTH 0 0
DWIDTH 0 0
BBX 3 3 -2 10
BITMAP
A0
80
A0
ENDCHAR
STARTCHAR 0596
ENCODING 1430
SWIDTH 0 0
DWIDTH 0 0
BBX 3 3 -2 -3
BITMAP
80
80
60
ENDCHAR
STARTCHAR 0597
ENCODING 1431
SWIDTH 0 0
DWIDTH 0 0
BBX 3 3 -1 9
BITMAP
40
E0
40
ENDCHAR
STARTCHAR 0598
ENCODING 1432
SWIDTH 0 0
DWIDTH 0 0
BBX 4 2 -2 9
BITMAP
50
A0
ENDCHAR
STARTCHAR 0599
ENCODING 1433
SWIDTH 0 0
DWIDTH 0 0
BBX 3 3 -3 9
BITMAP
C0
20
20
ENDCHAR
STARTCHAR 059A
ENCODING 1434
SWIDTH 0 0
DWIDTH 0 0
BBX 2 3 0 -3
BITMAP
40
80
40
ENDCHAR
STARTCHAR 059B
ENCODING 1435
SWIDTH 0 0
DWIDTH 0 0
BBX 3 3 -1 -2
BITMAP
A0
20
C0
ENDCHAR
STARTCHAR 059C
ENCODING 1436
SWIDTH 0 0
DWIDTH 0 0
BBX 3 3 -2 9
BITMAP
60
80
80
ENDCHAR
STARTCHAR 059D
ENCODING 1437
SWIDTH 0 0
DWIDTH 0 0
BBX 3 3 0 9
BITMAP
60
80
80
ENDCHAR
STARTCHAR 059E
ENCODING 1438
SWIDTH 0 0
DWIDTH 0 0
BBX 6 3 -3 9
BITMAP
6C
90
90
ENDCHAR
STARTCHAR 059F
ENCODING 1439
SWIDTH 0 0
DWIDTH 0 0
BBX 9 4 -4 10
BITMAP
E380
A280
E380
1400
ENDCHAR
STARTCHAR 05A0
ENCODING 1440
SWIDTH 0 0
DWIDTH 0 0
BBX 4 4 0 10
BITMAP
70
50
70
80
ENDCHAR
STARTCHAR 05A1
ENCODING 1441
SWIDTH 0 0
DWIDTH 0 0
BBX 3 3 -2 9
BITMAP
A0
C0
80
ENDCHAR
STARTCHAR 05A2
ENCODING 1442
SWIDTH 0 0
DWIDTH 0 0
BBX 3 4 -1 -4
BITMAP
A0
A0
E0
40
ENDCHAR
STARTCHAR 05A3
ENCODING 1443
SWIDTH 0 0
DWIDTH 0 0
BBX 2 3 -1 -4
BITMAP
40
40
C0
ENDCHAR
STARTCHAR 05A4
ENCODING 1444
SWIDTH 0 0
DWIDTH 0 0
BBX 2 3 -1 -3
BITMAP
40
80
40
ENDCHAR
STARTCHAR 05A5
ENCODING 1445
SWIDTH 0 0
DWIDTH 0 0
BBX 3 3 -1 -3
BITMAP
20
20
C0
ENDCHAR
STARTCHAR 05A6
ENCODING 1446
SWIDTH 0 0
DWIDTH 0 0
BBX 6 3 -3 -3
BITMAP
24
24
D8
ENDCHAR
STARTCHAR 05A7
ENCODING 1447
SWIDTH 0 0
DWIDTH 0 0
BBX 2 3 -1 -3
BITMAP
C0
80
C0
ENDCHAR
STARTCHAR 05A8
ENCODING 1448
SWIDTH 0 0
DWIDTH 0 0
BBX 3 3 -1 9
BITMAP
C0
20
20
ENDCHAR
STARTCHAR 05A9
ENCODING 1449
SWIDTH 0 0
DWIDTH 0 0
BBX 4 4 -4 10
BITMAP
E0
A0
E0
10
ENDCHAR
STARTCHAR 05AA
ENCODING 1450
SWIDTH 0 0
DWIDTH 0 0
BBX 3 3 -1 -3
BITMAP
A0
E0
40
ENDCHAR
STARTCHAR 05AB
ENCODING 1451
SWIDTH 0 0
DWIDTH 0 0
BBX 2 3 -1 9
BITMAP
40
80
40
ENDCHAR
STARTCHAR 05AC
ENCODING 1452
SWIDTH 0 0
DWIDTH 0 0
BBX 2 3 -1 9
BITMAP
40
40
C0
ENDCHAR
STARTCHAR 05AD
ENCODING 1453
SWIDTH 0 0
DWIDTH 0 0
BBX 3 3 0 -3
BITMAP
80
80
60
ENDCHAR
STARTCHAR 05AE
ENCODING 1454
SWIDTH 0 0
DWIDTH 0 0
BBX 4 2 -5 9
BITMAP
50
A0
ENDCHAR
STARTCHAR 05AF
ENCODING 1455
SWIDTH 0 0
DWIDTH 0 0
BBX 3 3 -2 9
BITMAP
40
A0
40
ENDCHAR
STARTCHAR 05B0
ENCODING 1456
SWIDTH 0 0
DWIDTH 0 0
BBX 1 3 2 -3
BITMAP
80
00
80
ENDCHAR
STARTCHAR 05B1
ENCODING 1457
SWIDTH 0 0
DWIDTH 0 0
BBX 5 3 0 -3
BITMAP
A8
00
48
ENDCHAR
STARTCHAR 05B2
ENCODING 1458
SWIDTH 0 0
DWIDTH 0 0
BBX 5 3 0 -3
BITMAP
E8
00
08
ENDCHAR
STARTCHAR 05B3
ENCODING 1459
SWIDTH 0 0
DWIDTH 0 0
BBX 5 3 0 -3
BITMAP
E8
40
48
ENDCHAR
STARTCHAR 05B4
ENCODING 1460
SWIDTH 0 0
DWIDTH 0 0
BBX 1 1 2 -2
BITMAP
80
ENDCHAR
STARTCHAR 05B5
ENCODING 1461
SWIDTH 0 0
DWIDTH 0 0
BBX 3 1 1 -2
BITMAP
A0
ENDCHAR
STARTCHAR 05B6
ENCODING 1462
SWIDTH 0 0
DWIDTH 0 0
BBX 3 3 1 -3
BITMAP
A0
00
40
ENDCHAR
STARTCHAR 05B7
ENCODING 1463
SWIDTH 0 0
DWIDTH 0 0
BBX 3 1 1 -2
BITMAP
E0
ENDCHAR
STARTCHAR 05B8
ENCODING 1464
SWIDTH 0 0
DWIDTH 0 0
BBX 3 3 1 -3
BITMAP
E0
40
40
ENDCHAR
STARTCHAR 05B9
ENCODING 1465
SWIDTH 0 0
DWIDTH 0 0
BBX 1 1 2 10
BITMAP
80
ENDCHAR
STARTCHAR 05BA
ENCODING 1466
SWIDTH 0 0
DWIDTH 0 0
BBX 1 1 -1 10
BITMAP
80
ENDCHAR
STARTCHAR 05BB
ENCODING 1467
SWIDTH 0 0
DWIDTH 0 0
BBX 5 3 0 -3
BITMAP
80
20
08
ENDCHAR
STARTCHAR 05BC
ENCODING 1468
SWIDTH 0 0
DWIDTH 0 0
BBX 1 1 2 4
BITMAP
80
ENDCHAR
STARTCHAR 05BD
ENCODING 1469
SWIDTH 0 0
DWIDTH 0 0
BBX 1 2 2 -3
BITMAP
80
80
ENDCHAR
STARTCHAR 05BE
ENCODING 1470
SWIDTH 375 0
DWIDTH 6 0
BBX 4 2 1 6
BITMAP
F0
F0
ENDCHAR
STARTCHAR 05BF
ENCODING 1471
SWIDTH 0 0
DWIDTH 0 0
BBX 3 1 1 10
BITMAP
E0
ENDCHAR
STARTCHAR 05C0
ENCODING 1472
SWIDTH 312 0
DWIDTH 5 0
BBX 1 10 2 -1
BITMAP
80
80
80
80
80
80
80
80
80
80
ENDCHAR
STARTCHAR 05C1
ENCODING 1473
SWIDTH 0 0
DWIDTH 0 0
BBX 1 1 5 10
BITMAP
80
ENDCHAR
STARTCHAR 05C2
ENCODING 1474
SWIDTH 0 0
DWIDTH 0 0
BBX 1 1 -1 10
BITMAP
80
ENDCHAR
STARTCHAR 05C3
ENCODING 1475
SWIDTH 250 0
DWIDTH 4 0
BBX 2 8 1 0
BITMAP
C0
C0
00
00
00
00
C0
C0
ENDCHAR
STARTCHAR 05C4
ENCODING 1476
SWIDTH 0 0
DWIDTH 0 0
BBX 1 1 2 10
BITMAP
80
ENDCHAR
STARTCHAR 05C5
ENCODING 1477
SWIDTH 0 0
DWIDTH 0 0
BBX 1 1 -1 -1
BITMAP
80
ENDCHAR
STARTCHAR 05C6
ENCODING 1478
SWIDTH 312 0
DWIDTH 5 0
BBX 4 9 1 0
BITMAP
20
E0
E0
80
80
80
80
F0
F0
ENDCHAR
STARTCHAR 05C7
ENCODING 1479
SWIDTH 0 0
DWIDTH 0 0
BBX 3 3 -1 -3
BITMAP
E0
40
40
ENDCHAR
STARTCHAR 05D0
ENCODING 1488
SWIDTH 500 0
DWIDTH 8 0
BBX 6 9 1 0
BITMAP
90
DC
CC
68
70
98
8C
4C
C4
ENDCHAR
STARTCHAR 05D1
ENCODING 1489
SWIDTH 437 0
DWIDTH 7 0
BBX 6 9 1 0
BITMAP
80
F8
F8
08
08
08
08
FC
FC
ENDCHAR
STARTCHAR 05D2
ENCODING 1490
SWIDTH 312 0
DWIDTH 5 0
BBX 5 9 0 0
BITMAP
40
70
70
10
10
10
38
E8
C8
ENDCHAR
STARTCHAR 05D3
ENCODING 1491
SWIDTH 437 0
DWIDTH 7 0
BBX 5 9 1 0
BITMAP
80
F8
F8
10
10
10
10
10
10
ENDCHAR
STARTCHAR 05D4
ENCODING 1492
SWIDTH 500 0
DWIDTH 8 0
BBX 6 9 1 0
BITMAP
80
FC
FC
04
04
84
84
84
84
ENDCHAR
STARTCHAR 05D5
ENCODING 1493
SWIDTH 250 0
DWIDTH 4 0
BBX 2 9 1 0
BITMAP
80
C0
C0
40
40
40
40
40
40
ENDCHAR
STARTCHAR 05D6
ENCODING 1494
SWIDTH 312 0
DWIDTH 5 0
BBX 3 9 1 0
BITMAP
80
E0
E0
40
40
40
40
40
40
ENDCHAR
STARTCHAR 05D7
ENCODING 1495
SWIDTH 500 0
DWIDTH 8 0
BBX 6 9 1 0
BITMAP
80
FC
FC
84
84
84
84
84
84
ENDCHAR
STARTCHAR 05D8
ENCODING 1496
SWIDTH 500 0
DWIDTH 8 0
BBX 6 9 1 0
BITMAP
80
CC
DC
54
44
44
44
38
38
ENDCHAR
STARTCHAR 05D9
ENCODING 1497
SWIDTH 250 0
DWIDTH 4 0
BBX 2 6 1 3
BITMAP
80
C0
C0
40
40
80
ENDCHAR
STARTCHAR 05DA
ENCODING 1498
SWIDTH 437 0
DWIDTH 7 0
BBX 5 12 1 -3
BITMAP
80
F8
F8
08
08
08
08
08
08
08
08
08
ENDCHAR
STARTCHAR 05DB
ENCODING 1499
SWIDTH 437 0
DWIDTH 7 0
BBX 5 9 1 0
BITMAP
80
F0
F8
08
08
08
08
F8
F0
ENDCHAR
STARTCHAR 05DC
ENCODING 1500
SWIDTH 437 0
DWIDTH 7 0
BBX 5 12 1 0
BITMAP
80
80
80
80
F8
F8
08
08
10
10
20
20
ENDCHAR
STARTCHAR 05DD
ENCODING 1501
SWIDTH 500 0
DWIDTH 8 0
BBX 6 9 1 0
BITMAP
80
FC
FC
44
84
84
84
FC
FC
ENDCHAR
STARTCHAR 05DE
ENCODING 1502
SWIDTH 500 0
DWIDTH 8 0
BBX 6 9 1 0
BITMAP
80
C8
DC
24
44
84
84
BC
B8
ENDCHAR
STARTCHAR 05DF
ENCODING 1503
SWIDTH 250 0
DWIDTH 4 0
BBX 2 12 1 -3
BITMAP
80
C0
C0
40
40
40
40
40
40
40
40
40
ENDCHAR
STARTCHAR 05E0
ENCODING 1504
SWIDTH 312 0
DWIDTH 5 0
BBX 4 9 0 0
BITMAP
40
70
70
10
10
10
10
F0
F0
ENDCHAR
STARTCHAR 05E1
ENCODING 1505
SWIDTH 500 0
DWIDTH 8 0
BBX 6 9 1 0
BITMAP
80
F8
FC
44
84
84
84
FC
78
ENDCHAR
STARTCHAR 05E2
ENCODING 1506
SWIDTH 437 0
DWIDTH 7 0
BBX 6 9 0 0
BITMAP
48
6C
6C
44
68
28
28
F8
E0
ENDCHAR
STARTCHAR 05E3
ENCODING 1507
SWIDTH 437 0
DWIDTH 7 0
BBX 5 12 1 -3
BITMAP
80
F0
78
88
88
C8
08
08
08
08
08
08
ENDCHAR
STARTCHAR 05E4
ENCODING 1508
SWIDTH 437 0
DWIDTH 7 0
BBX 5 9 1 0
BITMAP
80
F0
F8
88
C8
08
08
F8
F0
ENDCHAR
STARTCHAR 05E5
ENCODING 1509
SWIDTH 500 0
DWIDTH 8 0
BBX 6 12 1 -3
BITMAP
90
DC
DC
48
50
60
40
40
40
40
40
40
ENDCHAR
STARTCHAR 05E6
ENCODING 1510
SWIDTH 437 0
DWIDTH 7 0
BBX 5 9 1 0
BITMAP
90
D8
D8
50
60
20
18
F8
F8
ENDCHAR
STARTCHAR 05E7
ENCODING 1511
SWIDTH 500 0
DWIDTH 8 0
BBX 6 12 1 -3
BITMAP
80
FC
FC
04
84
88
90
A0
A0
80
80
80
ENDCHAR
STARTCHAR 05E8
ENCODING 1512
SWIDTH 500 0
DWIDTH 8 0
BBX 6 9 1 0
BITMAP
80
FC
FC
04
04
04
04
04
04
ENDCHAR
STARTCHAR 05E9
ENCODING 1513
SWIDTH 625 0
DWIDTH 10 0
BBX 8 9 1 0
BITMAP
92
DB
DB
49
4A
52
72
3C
3C
ENDCHAR
STARTCHAR 05EA
ENCODING 1514
SWIDTH 500 0
DWIDTH 8 0
BBX 7 9 0 0
BITMAP
40
7E
7E
22
42
42
42
C2
C2
ENDCHAR
STARTCHAR 05F0
ENCODING 1520
SWIDTH 562 0
DWIDTH 9 0
BBX 7 9 1 0
BITMAP
88
EE
EE
22
22
22
22
22
22
ENDCHAR
STARTCHAR 05F1
ENCODING 1521
SWIDTH 562 0
DWIDTH 9 0
BBX 7 9 1 0
BITMAP
88
EE
EE
22
22
42
02
02
02
ENDCHAR
STARTCHAR 05F2
ENCODING 1522
SWIDTH 562 0
DWIDTH 9 0
BBX 7 6 1 3
BITMAP
88
EE
EE
22
22
44
ENDCHAR
STARTCHAR 05F3
ENCODING 1523
SWIDTH 187 0
DWIDTH 3 0
BBX 2 4 1 4
BITMAP
C0
C0
C0
80
ENDCHAR
STARTCHAR 05F4
ENCODING 1524
SWIDTH 375 0
DWIDTH 6 0
BBX 5 4 1 4
BITMAP
D8
D8
D8
90
ENDCHAR
STARTCHAR 0600
ENCODING 1536
SWIDTH 750 0
DWIDTH 12 0
BBX 11 5 1 -3
BITMAP
0040
00C0
0080
0080
FFE0
ENDCHAR
STARTCHAR 0601
ENCODING 1537
SWIDTH 1312 0
DWIDTH 21 0
BBX 21 3 0 -3
BITMAP
8C8078
948788
E3F810
ENDCHAR
STARTCHAR 0602
ENCODING 1538
SWIDTH 750 0
DWIDTH 12 0
BBX 11 4 0 -3
BITMAP
7000
9000
9000
7FE0
ENDCHAR
STARTCHAR 0603
ENCODING 1539
SWIDTH 937 0
DWIDTH 15 0
BBX 14 3 0 -3
BITMAP
081C
0864
FFFC
ENDCHAR
STARTCHAR 060B
ENCODING 1547
SWIDTH 250 0
DWIDTH 4 0
BBX 5 12 -1 -2
BITMAP
10
00
00
30
48
48
38
F8
00
20
20
20
ENDCHAR
STARTCHAR 060C
ENCODING 1548
SWIDTH 312 0
DWIDTH 5 0
BBX 2 3 1 2
BITMAP
40
80
C0
ENDCHAR
STARTCHAR 060D
ENCODING 1549
SWIDTH 250 0
DWIDTH 4 0
BBX 4 4 0 -1
BITMAP
30
40
40
80
ENDCHAR
STARTCHAR 060E
ENCODING 1550
SWIDTH 687 0
DWIDTH 11 0
BBX 12 4 -1 2
BITMAP
7000
9000
9000
7FF0
ENDCHAR
STARTCHAR 060F
ENCODING 1551
SWIDTH 562 0
DWIDTH 9 0
BBX 8 11 0 -3
BITMAP
70
80
86
78
20
4E
91
A1
C1
42
BC
ENDCHAR
STARTCHAR 0610
ENCODING 1552
SWIDTH 0 0
DWIDTH 0 0
BBX 6 4 -4 11
BITMAP
0C
54
78
80
ENDCHAR
STARTCHAR 0611
ENCODING 1553
SWIDTH 0 0
DWIDTH 0 0
BBX 5 4 -3 10
BITMAP
08
50
70
80
ENDCHAR
STARTCHAR 0612
ENCODING 1554
SWIDTH 0 0
DWIDTH 0 0
BBX 6 5 -3 10
BITMAP
04
F4
44
84
18
ENDCHAR
STARTCHAR 0613
ENCODING 1555
SWIDTH 0 0
DWIDTH 0 0
BBX 8 6 -4 9
BITMAP
08
0D
55
79
81
06
ENDCHAR
STARTCHAR 0614
ENCODING 1556
SWIDTH 0 0
DWIDTH 0 0
BBX 6 2 -3 12
BITMAP
14
FC
ENDCHAR
STARTCHAR 0615
ENCODING 1557
SWIDTH 250 0
DWIDTH 4 0
BBX 4 5 0 9
BITMAP
60
40
70
50
F0
ENDCHAR
STARTCHAR 061B
ENCODING 1563
SWIDTH 312 0
DWIDTH 5 0
BBX 2 5 1 2
BITMAP
40
80
C0
00
80
ENDCHAR
STARTCHAR 061E
ENCODING 1566
SWIDTH 312 0
DWIDTH 5 0
BBX 4 4 0 2
BITMAP
40
40
90
D0
ENDCHAR
STARTCHAR 061F
ENCODING 1567
SWIDTH 375 0
DWIDTH 6 0
BBX 3 9 1 2
BITMAP
60
A0
A0
80
80
40
40
00
40
ENDCHAR
STARTCHAR 0621
ENCODING 1569
SWIDTH 437 0
DWIDTH 7 0
BBX 5 5 1 1
BITMAP
70
80
88
70
40
ENDCHAR
STARTCHAR 0622
ENCODING 1570
SWIDTH 187 0
DWIDTH 3 0
BBX 3 12 0 2
BITMAP
E0
00
20
20
20
20
20
20
20
20
20
20
ENDCHAR
STARTCHAR 0623
ENCODING 1571
SWIDTH 187 0
DWIDTH 3 0
BBX 3 12 1 2
BITMAP
60
80
60
00
40
40
40
40
40
40
40
40
ENDCHAR
STARTCHAR 0624
ENCODING 1572
SWIDTH 437 0
DWIDTH 7 0
BBX 6 10 1 -1
BITMAP
30
40
30
00
0C
14
1C
04
08
F0
ENDCHAR
STARTCHAR 0625
ENCODING 1573
SWIDTH 187 0
DWIDTH 3 0
BBX 3 14 1 -2
BITMAP
40
40
40
40
40
40
40
40
40
40
00
60
80
60
ENDCHAR
STARTCHAR 0626
ENCODING 1574
SWIDTH 625 0
DWIDTH 10 0
BBX 9 10 0 -1
BITMAP
6000
8180
6200
0200
4400
8400
8780
8080
8100
7E00
ENDCHAR
STARTCHAR 0627
ENCODING 1575
SWIDTH 187 0
DWIDTH 3 0
BBX 1 10 2 2
BITMAP
80
80
80
80
80
80
80
80
80
80
ENDCHAR
STARTCHAR 0628
ENCODING 1576
SWIDTH 687 0
DWIDTH 11 0
BBX 11 8 0 0
BITMAP
4040
8020
8020
8020
8020
7FE0
0000
0800
ENDCHAR
STARTCHAR 0629
ENCODING 1577
SWIDTH 312 0
DWIDTH 5 0
BBX 4 7 1 2
BITMAP
40
80
00
60
90
90
E0
ENDCHAR
STARTCHAR 062A
ENCODING 1578
SWIDTH 687 0
DWIDTH 11 0
BBX 11 8 0 2
BITMAP
0400
0800
4040
8020
8020
8020
8020
7FE0
ENDCHAR
STARTCHAR 062B
ENCODING 1579
SWIDTH 687 0
DWIDTH 11 0
BBX 11 8 0 2
BITMAP
0C00
0800
4040
8020
8020
8020
8020
7FE0
ENDCHAR
STARTCHAR 062C
ENCODING 1580
SWIDTH 562 0
DWIDTH 9 0
BBX 8 9 0 -3
BITMAP
7F
18
20
C0
84
80
80
40
3E
ENDCHAR
STARTCHAR 062D
ENCODING 1581
SWIDTH 562 0
DWIDTH 9 0
BBX 8 9 0 -3
BITMAP
7F
18
20
C0
80
80
80
40
3E
ENDCHAR
STARTCHAR 062E
ENCODING 1582
SWIDTH 562 0
DWIDTH 9 0
BBX 8 12 0 -3
BITMAP
08
00
00
7F
18
20
C0
80
80
80
40
3E
ENDCHAR
STARTCHAR 062F
ENCODING 1583
SWIDTH 312 0
DWIDTH 5 0
BBX 4 6 1 2
BITMAP
20
30
10
10
90
F0
ENDCHAR
STARTCHAR 0630
ENCODING 1584
SWIDTH 312 0
DWIDTH 5 0
BBX 4 9 1 2
BITMAP
40
00
00
20
30
10
10
90
F0
ENDCHAR
STARTCHAR 0631
ENCODING 1585
SWIDTH 500 0
DWIDTH 8 0
BBX 7 8 1 -1
BITMAP
04
02
02
02
02
04
88
70
ENDCHAR
STARTCHAR 0632
ENCODING 1586
SWIDTH 500 0
DWIDTH 8 0
BBX 7 11 1 -1
BITMAP
04
00
00
04
02
02
02
02
04
88
70
ENDCHAR
STARTCHAR 0633
ENCODING 1587
SWIDTH 812 0
DWIDTH 13 0
BBX 13 8 0 -1
BITMAP
0250
0148
4148
8148
81F8
8100
8200
7C00
ENDCHAR
STARTCHAR 0634
ENCODING 1588
SWIDTH 812 0
DWIDTH 13 0
BBX 13 11 0 -1
BITMAP
0060
0040
0000
0250
0148
4148
8148
81F8
8100
8200
7C00
ENDCHAR
STARTCHAR 0635
ENCODING 1589
SWIDTH 1125 0
DWIDTH 18 0
BBX 18 8 0 -1
BITMAP
010380
008440
408840
809040
80FFC0
808000
810000
7E0000
ENDCHAR
STARTCHAR 0636
ENCODING 1590
SWIDTH 1125 0
DWIDTH 18 0
BBX 18 10 0 -1
BITMAP
000800
000000
010380
008440
408840
809040
80FFC0
808000
810000
7E0000
ENDCHAR
STARTCHAR 0637
ENCODING 1591
SWIDTH 562 0
DWIDTH 9 0
BBX 10 11 -1 2
BITMAP
1000
1800
1000
1000
0800
0800
0800
0800
0BC0
0C40
FFC0
ENDCHAR
STARTCHAR 0638
ENCODING 1592
SWIDTH 562 0
DWIDTH 9 0
BBX 10 11 -1 2
BITMAP
1000
1800
1000
1000
0800
0900
0800
0800
0BC0
0C40
FFC0
ENDCHAR
STARTCHAR 0639
ENCODING 1593
SWIDTH 562 0
DWIDTH 9 0
BBX 7 11 0 -3
BITMAP
70
80
82
6C
30
40
80
80
80
40
3E
ENDCHAR
STARTCHAR 063A
ENCODING 1594
SWIDTH 562 0
DWIDTH 9 0
BBX 7 13 0 -3
BITMAP
10
00
70
80
82
6C
30
40
80
80
80
40
3E
ENDCHAR
STARTCHAR 0640
ENCODING 1600
SWIDTH 187 0
DWIDTH 3 0
BBX 4 1 -1 2
BITMAP
F0
ENDCHAR
STARTCHAR 0641
ENCODING 1601
SWIDTH 812 0
DWIDTH 13 0
BBX 13 8 0 2
BITMAP
0020
0000
4010
8028
8028
8028
4018
3FF8
ENDCHAR
STARTCHAR 0642
ENCODING 1602
SWIDTH 562 0
DWIDTH 9 0
BBX 8 10 1 -1
BITMAP
04
08
00
06
49
8F
81
81
82
7C
ENDCHAR
STARTCHAR 0643
ENCODING 1603
SWIDTH 625 0
DWIDTH 10 0
BBX 10 11 0 3
BITMAP
0080
00C0
0880
1080
1C80
0480
8440
9840
8040
8040
7FC0
ENDCHAR
STARTCHAR 0644
ENCODING 1604
SWIDTH 500 0
DWIDTH 8 0
BBX 7 13 1 1
BITMAP
04
06
04
04
04
04
22
42
82
82
82
84
7C
ENDCHAR
STARTCHAR 0645
ENCODING 1605
SWIDTH 312 0
DWIDTH 5 0
BBX 5 8 0 -3
BITMAP
70
08
78
80
80
80
80
80
ENDCHAR
STARTCHAR 0646
ENCODING 1606
SWIDTH 500 0
DWIDTH 8 0
BBX 7 9 1 -1
BITMAP
10
04
02
42
82
82
82
84
78
ENDCHAR
STARTCHAR 0647
ENCODING 1607
SWIDTH 312 0
DWIDTH 5 0
BBX 5 4 0 2
BITMAP
60
98
88
F0
ENDCHAR
STARTCHAR 0648
ENCODING 1608
SWIDTH 437 0
DWIDTH 7 0
BBX 6 6 1 -1
BITMAP
0C
14
1C
04
08
F0
ENDCHAR
STARTCHAR 0649
ENCODING 1609
SWIDTH 625 0
DWIDTH 10 0
BBX 9 9 0 -1
BITMAP
0180
0200
0200
4400
8400
8780
8080
8100
7E00
ENDCHAR
STARTCHAR 064A
ENCODING 1610
SWIDTH 625 0
DWIDTH 10 0
BBX 9 11 0 -3
BITMAP
0180
0200
0200
4400
8400
8780
8080
8100
7E00
0400
0800
ENDCHAR
STARTCHAR 064B
ENCODING 1611
SWIDTH 0 0
DWIDTH 0 0
BBX 3 4 1 10
BITMAP
20
C0
20
C0
ENDCHAR
STARTCHAR 064C
ENCODING 1612
SWIDTH 0 0
DWIDTH 0 0
BBX 6 5 -1 10
BITMAP
0C
14
DC
54
60
ENDCHAR
STARTCHAR 064D
ENCODING 1613
SWIDTH 0 0
DWIDTH 0 0
BBX 3 4 1 -3
BITMAP
20
C0
20
C0
ENDCHAR
STARTCHAR 064E
ENCODING 1614
SWIDTH 0 0
DWIDTH 0 0
BBX 3 2 1 10
BITMAP
20
C0
ENDCHAR
STARTCHAR 064F
ENCODING 1615
SWIDTH 0 0
DWIDTH 0 0
BBX 3 4 0 10
BITMAP
60
A0
E0
80
ENDCHAR
STARTCHAR 0650
ENCODING 1616
SWIDTH 0 0
DWIDTH 0 0
BBX 3 2 1 0
BITMAP
20
C0
ENDCHAR
STARTCHAR 0651
ENCODING 1617
SWIDTH 0 0
DWIDTH 0 0
BBX 5 3 -1 10
BITMAP
28
B8
C0
ENDCHAR
STARTCHAR 0652
ENCODING 1618
SWIDTH 0 0
DWIDTH 0 0
BBX 3 3 0 10
BITMAP
60
A0
E0
ENDCHAR
STARTCHAR 0653
ENCODING 1619
SWIDTH 0 0
DWIDTH 0 0
BBX 3 1 0 11
BITMAP
E0
ENDCHAR
STARTCHAR 0654
ENCODING 1620
SWIDTH 187 0
DWIDTH 3 0
BBX 3 3 0 11
BITMAP
60
80
60
ENDCHAR
STARTCHAR 0655
ENCODING 1621
SWIDTH 0 0
DWIDTH 0 0
BBX 3 3 0 -2
BITMAP
60
80
60
ENDCHAR
STARTCHAR 0656
ENCODING 1622
SWIDTH 0 0
DWIDTH 0 0
BBX 1 5 0 -3
BITMAP
80
80
80
80
80
ENDCHAR
STARTCHAR 0657
ENCODING 1623
SWIDTH 0 0
DWIDTH 0 0
BBX 3 4 -2 9
BITMAP
A0
40
A0
C0
ENDCHAR
STARTCHAR 0658
ENCODING 1624
SWIDTH 0 0
DWIDTH 0 0
BBX 3 2 -2 10
BITMAP
A0
E0
ENDCHAR
STARTCHAR 0659
ENCODING 1625
SWIDTH 0 0
DWIDTH 0 0
BBX 3 1 -2 10
BITMAP
E0
ENDCHAR
STARTCHAR 065A
ENCODING 1626
SWIDTH 0 0
DWIDTH 0 0
BBX 3 2 -2 10
BITMAP
A0
40
ENDCHAR
STARTCHAR 065B
ENCODING 1627
SWIDTH 0 0
DWIDTH 0 0
BBX 3 2 -1 10
BITMAP
40
A0
ENDCHAR
STARTCHAR 065C
ENCODING 1628
SWIDTH 0 0
DWIDTH 0 0
BBX 1 1 -1 0
BITMAP
80
ENDCHAR
STARTCHAR 065D
ENCODING 1629
SWIDTH 0 0
DWIDTH 0 0
BBX 3 4 -1 10
BITMAP
C0
A0
C0
20
ENDCHAR
STARTCHAR 065E
ENCODING 1630
SWIDTH 0 0
DWIDTH 0 0
BBX 3 4 -1 10
BITMAP
80
20
C0
20
ENDCHAR
STARTCHAR 0660
ENCODING 1632
SWIDTH 500 0
DWIDTH 8 0
BBX 3 4 3 4
BITMAP
40
E0
E0
40
ENDCHAR
STARTCHAR 0661
ENCODING 1633
SWIDTH 500 0
DWIDTH 8 0
BBX 2 9 4 2
BITMAP
80
80
80
80
40
40
40
40
40
ENDCHAR
STARTCHAR 0662
ENCODING 1634
SWIDTH 500 0
DWIDTH 8 0
BBX 4 9 3 3
BITMAP
90
F0
80
80
40
20
20
20
20
ENDCHAR
STARTCHAR 0663
ENCODING 1635
SWIDTH 500 0
DWIDTH 8 0
BBX 6 9 2 2
BITMAP
A4
FC
80
40
40
40
40
40
40
ENDCHAR
STARTCHAR 0664
ENCODING 1636
SWIDTH 500 0
DWIDTH 8 0
BBX 4 9 3 2
BITMAP
20
40
80
80
60
40
80
80
70
ENDCHAR
STARTCHAR 0665
ENCODING 1637
SWIDTH 500 0
DWIDTH 8 0
BBX 6 5 1 4
BITMAP
38
44
84
84
F8
ENDCHAR
STARTCHAR 0666
ENCODING 1638
SWIDTH 500 0
DWIDTH 8 0
BBX 5 9 2 3
BITMAP
80
F0
10
10
10
10
10
10
08
ENDCHAR
STARTCHAR 0667
ENCODING 1639
SWIDTH 500 0
DWIDTH 8 0
BBX 6 9 1 2
BITMAP
80
84
48
48
28
28
10
10
10
ENDCHAR
STARTCHAR 0668
ENCODING 1640
SWIDTH 500 0
DWIDTH 8 0
BBX 7 9 1 2
BITMAP
10
10
10
28
28
48
44
84
82
ENDCHAR
STARTCHAR 0669
ENCODING 1641
SWIDTH 500 0
DWIDTH 8 0
BBX 5 9 2 2
BITMAP
60
90
90
F0
10
10
10
10
08
ENDCHAR
STARTCHAR 066A
ENCODING 1642
SWIDTH 500 0
DWIDTH 8 0
BBX 6 11 1 1
BITMAP
84
08
08
10
10
10
20
20
40
40
84
ENDCHAR
STARTCHAR 066B
ENCODING 1643
SWIDTH 312 0
DWIDTH 5 0
BBX 2 3 2 0
BITMAP
C0
40
80
ENDCHAR
STARTCHAR 066C
ENCODING 1644
SWIDTH 312 0
DWIDTH 5 0
BBX 2 3 1 2
BITMAP
40
80
C0
ENDCHAR
STARTCHAR 066D
ENCODING 1645
SWIDTH 500 0
DWIDTH 8 0
BBX 5 5 2 6
BITMAP
A8
70
D8
70
A8
ENDCHAR
STARTCHAR 066E
ENCODING 1646
SWIDTH 687 0
DWIDTH 11 0
BBX 11 6 0 2
BITMAP
4040
8020
8020
8020
8020
7FE0
ENDCHAR
STARTCHAR 066F
ENCODING 1647
SWIDTH 562 0
DWIDTH 9 0
BBX 8 7 1 -1
BITMAP
06
49
8F
81
81
82
7C
ENDCHAR
STARTCHAR 0670
ENCODING 1648
SWIDTH 0 0
DWIDTH 0 0
BBX 1 5 -1 9
BITMAP
80
80
80
80
80
ENDCHAR
STARTCHAR 0671
ENCODING 1649
SWIDTH 187 0
DWIDTH 3 0
BBX 4 13 0 2
BITMAP
30
50
F0
00
20
20
20
20
20
20
20
20
20
ENDCHAR
STARTCHAR 0672
ENCODING 1650
SWIDTH 187 0
DWIDTH 3 0
BBX 3 12 1 2
BITMAP
20
40
E0
00
40
40
40
40
40
40
40
40
ENDCHAR
STARTCHAR 0673
ENCODING 1651
SWIDTH 187 0
DWIDTH 3 0
BBX 3 13 0 -1
BITMAP
20
20
20
20
20
20
20
20
20
20
20
40
E0
ENDCHAR
STARTCHAR 0674
ENCODING 1652
SWIDTH 187 0
DWIDTH 3 0
BBX 3 3 0 11
BITMAP
60
80
60
ENDCHAR
STARTCHAR 0675
ENCODING 1653
SWIDTH 187 0
DWIDTH 3 0
BBX 4 10 1 2
BITMAP
B0
C0
B0
80
80
80
80
80
80
80
ENDCHAR
STARTCHAR 0676
ENCODING 1654
SWIDTH 437 0
DWIDTH 7 0
BBX 8 10 1 -1
BITMAP
03
04
03
00
0C
14
1C
04
08
F0
ENDCHAR
STARTCHAR 0677
ENCODING 1655
SWIDTH 437 0
DWIDTH 7 0
BBX 8 11 1 -1
BITMAP
30
53
74
43
00
0C
14
1C
04
08
F0
ENDCHAR
STARTCHAR 0678
ENCODING 1656
SWIDTH 625 0
DWIDTH 10 0
BBX 10 13 0 -1
BITMAP
00C0
0100
00C0
0000
0180
0200
0200
4400
8400
8780
8080
8100
7E00
ENDCHAR
STARTCHAR 0679
ENCODING 1657
SWIDTH 687 0
DWIDTH 11 0
BBX 11 12 0 2
BITMAP
0600
0400
0700
0500
0F00
0000
4040
8020
8020
8020
8020
7FE0
ENDCHAR
STARTCHAR 067A
ENCODING 1658
SWIDTH 687 0
DWIDTH 11 0
BBX 11 9 0 2
BITMAP
0800
0400
0000
4040
8020
8020
8020
8020
7FE0
ENDCHAR
STARTCHAR 067B
ENCODING 1659
SWIDTH 687 0
DWIDTH 11 0
BBX 11 9 0 -1
BITMAP
4040
8020
8020
8020
8020
7FE0
0000
0400
0200
ENDCHAR
STARTCHAR 067C
ENCODING 1660
SWIDTH 687 0
DWIDTH 11 0
BBX 11 10 0 0
BITMAP
0400
0800
4040
8020
8020
8020
8020
7FE0
0A00
0E00
ENDCHAR
STARTCHAR 067D
ENCODING 1661
SWIDTH 687 0
DWIDTH 11 0
BBX 11 9 0 2
BITMAP
0400
0C00
0000
4040
8020
8020
8020
8020
7FE0
ENDCHAR
STARTCHAR 067E
ENCODING 1662
SWIDTH 687 0
DWIDTH 11 0
BBX 11 9 0 -1
BITMAP
4040
8020
8020
8020
8020
7FE0
0000
0200
0600
ENDCHAR
STARTCHAR 067F
ENCODING 1663
SWIDTH 687 0
DWIDTH 11 0
BBX 11 10 0 2
BITMAP
0200
0600
0400
0000
4040
8020
8020
8020
8020
7FE0
ENDCHAR
STARTCHAR 0680
ENCODING 1664
SWIDTH 687 0
DWIDTH 11 0
BBX 11 10 0 -2
BITMAP
4040
8020
8020
8020
8020
7FE0
0000
0200
0600
0400
ENDCHAR
STARTCHAR 0681
ENCODING 1665
SWIDTH 562 0
DWIDTH 9 0
BBX 8 13 0 -3
BITMAP
0C
10
0C
00
7F
18
20
C0
80
80
80
40
3E
ENDCHAR
STARTCHAR 0682
ENCODING 1666
SWIDTH 562 0
DWIDTH 9 0
BBX 8 13 0 -3
BITMAP
10
08
00
00
7F
18
20
C0
80
80
80
40
3E
ENDCHAR
STARTCHAR 0683
ENCODING 1667
SWIDTH 562 0
DWIDTH 9 0
BBX 8 9 0 -3
BITMAP
7F
18
20
C0
84
88
80
40
3E
ENDCHAR
STARTCHAR 0684
ENCODING 1668
SWIDTH 562 0
DWIDTH 9 0
BBX 8 9 0 -3
BITMAP
7F
18
20
C0
90
88
80
40
3E
ENDCHAR
STARTCHAR 0685
ENCODING 1669
SWIDTH 562 0
DWIDTH 9 0
BBX 8 13 0 -3
BITMAP
10
18
00
00
7F
18
20
C0
80
80
80
40
3E
ENDCHAR
STARTCHAR 0686
ENCODING 1670
SWIDTH 562 0
DWIDTH 9 0
BBX 8 9 0 -3
BITMAP
7F
18
20
C4
8C
80
80
40
3E
ENDCHAR
STARTCHAR 0687
ENCODING 1671
SWIDTH 562 0
DWIDTH 9 0
BBX 8 9 0 -3
BITMAP
7F
18
24
CC
88
80
80
40
3E
ENDCHAR
STARTCHAR 0688
ENCODING 1672
SWIDTH 312 0
DWIDTH 5 0
BBX 4 12 1 2
BITMAP
60
40
70
50
F0
00
20
30
10
10
90
F0
ENDCHAR
STARTCHAR 0689
ENCODING 1673
SWIDTH 312 0
DWIDTH 5 0
BBX 4 8 1 0
BITMAP
20
30
10
10
90
F0
50
70
ENDCHAR
STARTCHAR 068A
ENCODING 1674
SWIDTH 312 0
DWIDTH 5 0
BBX 4 8 1 0
BITMAP
20
30
10
10
90
F0
00
20
ENDCHAR
STARTCHAR 068B
ENCODING 1675
SWIDTH 312 0
DWIDTH 5 0
BBX 4 14 1 0
BITMAP
60
40
70
50
F0
00
20
30
10
10
90
F0
00
20
ENDCHAR
STARTCHAR 068C
ENCODING 1676
SWIDTH 312 0
DWIDTH 5 0
BBX 4 9 1 2
BITMAP
20
40
00
20
30
10
10
90
F0
ENDCHAR
STARTCHAR 068D
ENCODING 1677
SWIDTH 312 0
DWIDTH 5 0
BBX 4 9 1 -1
BITMAP
20
30
10
10
90
F0
00
20
40
ENDCHAR
STARTCHAR 068E
ENCODING 1678
SWIDTH 312 0
DWIDTH 5 0
BBX 4 10 1 2
BITMAP
80
C0
00
00
20
30
10
10
90
F0
ENDCHAR
STARTCHAR 068F
ENCODING 1679
SWIDTH 312 0
DWIDTH 5 0
BBX 4 10 1 2
BITMAP
20
60
00
00
20
30
10
10
90
F0
ENDCHAR
STARTCHAR 0690
ENCODING 1680
SWIDTH 312 0
DWIDTH 5 0
BBX 4 11 1 2
BITMAP
20
60
40
00
00
20
30
10
10
90
F0
ENDCHAR
STARTCHAR 0691
ENCODING 1681
SWIDTH 500 0
DWIDTH 8 0
BBX 7 14 1 -1
BITMAP
0C
08
0E
0A
1E
00
04
02
02
02
02
04
88
70
ENDCHAR
STARTCHAR 0692
ENCODING 1682
SWIDTH 500 0
DWIDTH 8 0
BBX 7 11 1 -1
BITMAP
14
08
00
04
02
02
02
02
04
88
70
ENDCHAR
STARTCHAR 0693
ENCODING 1683
SWIDTH 500 0
DWIDTH 8 0
BBX 7 9 1 -2
BITMAP
04
02
02
02
02
04
8E
7A
0E
ENDCHAR
STARTCHAR 0694
ENCODING 1684
SWIDTH 500 0
DWIDTH 8 0
BBX 7 9 1 -2
BITMAP
04
02
02
02
02
04
88
70
02
ENDCHAR
STARTCHAR 0695
ENCODING 1685
SWIDTH 500 0
DWIDTH 8 0
BBX 7 10 1 -3
BITMAP
04
02
02
02
02
04
88
70
0A
04
ENDCHAR
STARTCHAR 0696
ENCODING 1686
SWIDTH 500 0
DWIDTH 8 0
BBX 7 9 1 -2
BITMAP
04
02
02
02
02
24
88
70
02
ENDCHAR
STARTCHAR 0697
ENCODING 1687
SWIDTH 500 0
DWIDTH 8 0
BBX 7 11 1 -1
BITMAP
04
08
00
04
02
02
02
02
04
88
70
ENDCHAR
STARTCHAR 0698
ENCODING 1688
SWIDTH 500 0
DWIDTH 8 0
BBX 7 11 1 -1
BITMAP
0C
08
00
04
02
02
02
02
04
88
70
ENDCHAR
STARTCHAR 0699
ENCODING 1689
SWIDTH 500 0
DWIDTH 8 0
BBX 7 12 1 -1
BITMAP
04
0C
08
00
04
02
02
02
02
04
88
70
ENDCHAR
STARTCHAR 069A
ENCODING 1690
SWIDTH 812 0
DWIDTH 13 0
BBX 13 10 0 -1
BITMAP
0020
0000
0250
0148
4148
8148
81F8
8100
8220
7C00
ENDCHAR
STARTCHAR 069B
ENCODING 1691
SWIDTH 812 0
DWIDTH 13 0
BBX 13 8 0 -1
BITMAP
0250
0148
4148
8148
81F8
8100
8210
7C30
ENDCHAR
STARTCHAR 069C
ENCODING 1692
SWIDTH 812 0
DWIDTH 13 0
BBX 13 11 0 -1
BITMAP
0040
0060
0000
0250
0148
4148
8148
81F8
8100
8210
7C30
ENDCHAR
STARTCHAR 069D
ENCODING 1693
SWIDTH 1125 0
DWIDTH 18 0
BBX 18 8 0 -1
BITMAP
010380
008440
408840
809040
80FFC0
808000
810400
7E0800
ENDCHAR
STARTCHAR 069E
ENCODING 1694
SWIDTH 1125 0
DWIDTH 18 0
BBX 18 11 0 -1
BITMAP
000800
000C00
000000
010380
008440
408840
809040
80FFC0
808000
810000
7E0000
ENDCHAR
STARTCHAR 069F
ENCODING 1695
SWIDTH 562 0
DWIDTH 9 0
BBX 10 11 -1 2
BITMAP
1000
1800
1000
1000
0A00
0B00
0800
0800
0BC0
0C40
FFC0
ENDCHAR
STARTCHAR 06A0
ENCODING 1696
SWIDTH 562 0
DWIDTH 9 0
BBX 7 15 0 -3
BITMAP
20
30
00
00
70
80
82
6C
30
40
80
80
80
40
3E
ENDCHAR
STARTCHAR 06A1
ENCODING 1697
SWIDTH 812 0
DWIDTH 13 0
BBX 13 6 0 2
BITMAP
4010
8028
8028
8028
4018
3FF8
ENDCHAR
STARTCHAR 06A2
ENCODING 1698
SWIDTH 812 0
DWIDTH 13 0
BBX 13 8 0 0
BITMAP
4010
8028
8028
8028
4018
3FF8
0000
0010
ENDCHAR
STARTCHAR 06A3
ENCODING 1699
SWIDTH 812 0
DWIDTH 13 0
BBX 13 10 0 0
BITMAP
0010
0000
4010
8028
8028
8028
4018
3FF8
0000
0200
ENDCHAR
STARTCHAR 06A4
ENCODING 1700
SWIDTH 812 0
DWIDTH 13 0
BBX 13 9 0 2
BITMAP
0020
0030
0000
4010
8028
8028
8028
4018
3FF8
ENDCHAR
STARTCHAR 06A5
ENCODING 1701
SWIDTH 812 0
DWIDTH 13 0
BBX 13 9 0 -1
BITMAP
4010
8028
8028
8028
4018
3FF8
0000
0008
0018
ENDCHAR
STARTCHAR 06A6
ENCODING 1702
SWIDTH 812 0
DWIDTH 13 0
BBX 13 11 0 2
BITMAP
0008
0018
0010
0000
0000
4010
8028
8028
8028
4018
3FF8
ENDCHAR
STARTCHAR 06A7
ENCODING 1703
SWIDTH 562 0
DWIDTH 9 0
BBX 8 9 1 -1
BITMAP
04
00
06
49
8F
81
81
82
7C
ENDCHAR
STARTCHAR 06A8
ENCODING 1704
SWIDTH 562 0
DWIDTH 9 0
BBX 8 10 1 -1
BITMAP
04
06
00
06
49
8F
81
81
82
7C
ENDCHAR
STARTCHAR 06A9
ENCODING 1705
SWIDTH 812 0
DWIDTH 13 0
BBX 13 10 0 2
BITMAP
0010
0060
0080
0100
0100
40C0
8020
8010
8008
7FF8
ENDCHAR
STARTCHAR 06AA
ENCODING 1706
SWIDTH 1125 0
DWIDTH 18 0
BBX 15 6 2 2
BITMAP
0100
0E00
103E
1FC2
001C
FFE0
ENDCHAR
STARTCHAR 06AB
ENCODING 1707
SWIDTH 812 0
DWIDTH 13 0
BBX 13 10 0 2
BITMAP
0010
0070
00D0
0170
0100
40C0
8020
8010
8008
7FF8
ENDCHAR
STARTCHAR 06AC
ENCODING 1708
SWIDTH 625 0
DWIDTH 10 0
BBX 10 11 0 3
BITMAP
0880
00C0
0880
1080
1C80
0480
8440
9840
8040
8040
7FC0
ENDCHAR
STARTCHAR 06AD
ENCODING 1709
SWIDTH 625 0
DWIDTH 10 0
BBX 10 12 0 2
BITMAP
1000
1880
00C0
0880
1080
1C80
0480
8440
9840
8040
8040
7FC0
ENDCHAR
STARTCHAR 06AE
ENCODING 1710
SWIDTH 625 0
DWIDTH 10 0
BBX 10 14 0 0
BITMAP
0080
00C0
0880
1080
1C80
0480
8440
9840
8040
8040
7FC0
0000
0400
0C00
ENDCHAR
STARTCHAR 06AF
ENCODING 1711
SWIDTH 812 0
DWIDTH 13 0
BBX 13 12 0 2
BITMAP
0010
0060
0190
0060
0080
0100
0100
40C0
8020
8010
8008
7FF8
ENDCHAR
STARTCHAR 06B0
ENCODING 1712
SWIDTH 812 0
DWIDTH 13 0
BBX 13 12 0 2
BITMAP
0010
0060
0190
0070
00D0
0170
0100
40C0
8020
8010
8008
7FF8
ENDCHAR
STARTCHAR 06B1
ENCODING 1713
SWIDTH 812 0
DWIDTH 13 0
BBX 13 12 0 2
BITMAP
00D0
0360
0190
0060
0080
0100
0100
40C0
8020
8010
8008
7FF8
ENDCHAR
STARTCHAR 06B2
ENCODING 1714
SWIDTH 812 0
DWIDTH 13 0
BBX 13 15 0 -1
BITMAP
0010
0060
0190
0060
0080
0100
0100
40C0
8020
8010
8008
7FF8
0000
0100
0200
ENDCHAR
STARTCHAR 06B3
ENCODING 1715
SWIDTH 812 0
DWIDTH 13 0
BBX 13 15 0 -1
BITMAP
0010
0060
0190
0060
0080
0100
0100
40C0
8020
8010
8008
7FF8
0000
0200
0100
ENDCHAR
STARTCHAR 06B4
ENCODING 1716
SWIDTH 812 0
DWIDTH 13 0
BBX 13 12 0 2
BITMAP
0190
0160
0190
0060
0080
0100
0100
40C0
8020
8010
8008
7FF8
ENDCHAR
STARTCHAR 06B5
ENCODING 1717
SWIDTH 500 0
DWIDTH 8 0
BBX 7 14 1 0
BITMAP
14
08
06
04
04
04
04
22
42
82
82
82
84
7C
ENDCHAR
STARTCHAR 06B6
ENCODING 1718
SWIDTH 500 0
DWIDTH 8 0
BBX 7 14 1 0
BITMAP
04
00
06
04
04
04
04
22
42
82
82
82
84
7C
ENDCHAR
STARTCHAR 06B7
ENCODING 1719
SWIDTH 500 0
DWIDTH 8 0
BBX 7 15 1 0
BITMAP
0C
08
00
06
04
04
04
04
22
42
82
82
82
84
7C
ENDCHAR
STARTCHAR 06B8
ENCODING 1720
SWIDTH 500 0
DWIDTH 8 0
BBX 7 16 1 -2
BITMAP
04
06
04
04
04
04
22
42
82
82
82
84
7C
00
10
30
ENDCHAR
STARTCHAR 06B9
ENCODING 1721
SWIDTH 500 0
DWIDTH 8 0
BBX 7 11 1 -3
BITMAP
10
04
02
42
82
82
82
84
78
00
10
ENDCHAR
STARTCHAR 06BA
ENCODING 1722
SWIDTH 500 0
DWIDTH 8 0
BBX 7 8 1 -1
BITMAP
04
02
42
82
82
82
84
78
ENDCHAR
STARTCHAR 06BB
ENCODING 1723
SWIDTH 500 0
DWIDTH 8 0
BBX 7 14 1 -1
BITMAP
30
20
38
28
78
00
04
02
42
82
82
82
84
78
ENDCHAR
STARTCHAR 06BC
ENCODING 1724
SWIDTH 500 0
DWIDTH 8 0
BBX 7 11 1 -3
BITMAP
10
04
02
42
82
82
82
84
78
28
38
ENDCHAR
STARTCHAR 06BD
ENCODING 1725
SWIDTH 500 0
DWIDTH 8 0
BBX 7 11 1 -1
BITMAP
10
18
00
04
02
42
82
82
82
84
78
ENDCHAR
STARTCHAR 06BE
ENCODING 1726
SWIDTH 437 0
DWIDTH 7 0
BBX 7 6 -1 2
BITMAP
10
38
4C
4A
72
CE
ENDCHAR
STARTCHAR 06BF
ENCODING 1727
SWIDTH 562 0
DWIDTH 9 0
BBX 8 12 0 -3
BITMAP
08
00
00
7F
18
20
C4
8C
80
80
40
3E
ENDCHAR
STARTCHAR 06C0
ENCODING 1728
SWIDTH 312 0
DWIDTH 5 0
BBX 5 8 0 2
BITMAP
30
40
30
00
60
98
88
F0
ENDCHAR
STARTCHAR 06C1
ENCODING 1729
SWIDTH 375 0
DWIDTH 6 0
BBX 6 4 0 1
BITMAP
30
48
44
80
ENDCHAR
STARTCHAR 06C2
ENCODING 1730
SWIDTH 375 0
DWIDTH 6 0
BBX 6 8 0 1
BITMAP
30
40
30
00
30
48
44
80
ENDCHAR
STARTCHAR 06C3
ENCODING 1731
SWIDTH 375 0
DWIDTH 6 0
BBX 6 7 0 1
BITMAP
10
20
00
30
48
44
80
ENDCHAR
STARTCHAR 06C4
ENCODING 1732
SWIDTH 437 0
DWIDTH 7 0
BBX 6 6 1 -1
BITMAP
0C
14
1C
24
58
F0
ENDCHAR
STARTCHAR 06C5
ENCODING 1733
SWIDTH 437 0
DWIDTH 7 0
BBX 6 6 1 -1
BITMAP
0C
14
0C
64
18
F0
ENDCHAR
STARTCHAR 06C6
ENCODING 1734
SWIDTH 437 0
DWIDTH 7 0
BBX 6 9 1 -1
BITMAP
14
08
00
0C
14
1C
04
08
F0
ENDCHAR
STARTCHAR 06C7
ENCODING 1735
SWIDTH 437 0
DWIDTH 7 0
BBX 6 13 1 -1
BITMAP
0C
14
1C
10
00
00
00
0C
14
1C
04
08
F0
ENDCHAR
STARTCHAR 06C8
ENCODING 1736
SWIDTH 437 0
DWIDTH 7 0
BBX 6 12 1 -1
BITMAP
08
08
08
08
08
00
0C
14
1C
04
08
F0
ENDCHAR
STARTCHAR 06C9
ENCODING 1737
SWIDTH 437 0
DWIDTH 7 0
BBX 6 9 1 -1
BITMAP
08
14
00
0C
14
1C
04
08
F0
ENDCHAR
STARTCHAR 06CA
ENCODING 1738
SWIDTH 437 0
DWIDTH 7 0
BBX 6 9 1 -1
BITMAP
08
10
00
0C
14
1C
04
08
F0
ENDCHAR
STARTCHAR 06CB
ENCODING 1739
SWIDTH 437 0
DWIDTH 7 0
BBX 6 9 1 -1
BITMAP
10
18
00
0C
14
1C
04
08
F0
ENDCHAR
STARTCHAR 06CC
ENCODING 1740
SWIDTH 625 0
DWIDTH 10 0
BBX 9 9 0 -1
BITMAP
0180
0200
0200
4400
8400
8780
8080
8100
7E00
ENDCHAR
STARTCHAR 06CD
ENCODING 1741
SWIDTH 625 0
DWIDTH 10 0
BBX 10 9 -1 -1
BITMAP
00C0
0100
0100
2200
C200
43C0
4040
4080
3F00
ENDCHAR
STARTCHAR 06CE
ENCODING 1742
SWIDTH 625 0
DWIDTH 10 0
BBX 9 10 0 -1
BITMAP
2800
1180
0200
0200
4400
8400
8780
8080
8100
7E00
ENDCHAR
STARTCHAR 06CF
ENCODING 1743
SWIDTH 437 0
DWIDTH 7 0
BBX 6 8 1 -1
BITMAP
08
00
0C
14
1C
04
08
F0
ENDCHAR
STARTCHAR 06D0
ENCODING 1744
SWIDTH 625 0
DWIDTH 10 0
BBX 9 11 0 -3
BITMAP
0180
0200
0200
4400
8400
8780
8080
8100
7E00
0800
0800
ENDCHAR
STARTCHAR 06D1
ENCODING 1745
SWIDTH 625 0
DWIDTH 10 0
BBX 9 11 0 -3
BITMAP
0180
0200
0200
4400
8400
8780
8080
8100
7E00
1800
0800
ENDCHAR
STARTCHAR 06D2
ENCODING 1746
SWIDTH 812 0
DWIDTH 13 0
BBX 11 6 1 0
BITMAP
0400
0A00
1000
6000
8000
FFE0
ENDCHAR
STARTCHAR 06D3
ENCODING 1747
SWIDTH 812 0
DWIDTH 13 0
BBX 11 8 1 0
BITMAP
3000
4000
3400
0A00
1000
6000
8000
FFE0
ENDCHAR
STARTCHAR 06D4
ENCODING 1748
SWIDTH 187 0
DWIDTH 3 0
BBX 2 1 0 2
BITMAP
C0
ENDCHAR
STARTCHAR 06D5
ENCODING 1749
SWIDTH 312 0
DWIDTH 5 0
BBX 5 4 0 2
BITMAP
60
98
88
F0
ENDCHAR
STARTCHAR 06D6
ENCODING 1750
SWIDTH 0 0
DWIDTH 0 0
BBX 8 5 -4 9
BITMAP
20
2B
7F
80
FC
ENDCHAR
STARTCHAR 06D7
ENCODING 1751
SWIDTH 0 0
DWIDTH 0 0
BBX 6 5 -3 9
BITMAP
58
48
78
80
FC
ENDCHAR
STARTCHAR 06D8
ENCODING 1752
SWIDTH 0 0
DWIDTH 0 0
BBX 3 2 -2 9
BITMAP
60
A0
ENDCHAR
STARTCHAR 06D9
ENCODING 1753
SWIDTH 0 0
DWIDTH 0 0
BBX 4 5 -2 9
BITMAP
90
50
50
20
70
ENDCHAR
STARTCHAR 06DA
ENCODING 1754
SWIDTH 0 0
DWIDTH 0 0
BBX 4 5 -2 9
BITMAP
F0
40
A0
80
70
ENDCHAR
STARTCHAR 06DB
ENCODING 1755
SWIDTH 0 0
DWIDTH 0 0
BBX 2 2 -1 9
BITMAP
80
C0
ENDCHAR
STARTCHAR 06DC
ENCODING 1756
SWIDTH 0 0
DWIDTH 0 0
BBX 6 4 -3 9
BITMAP
34
BC
A0
C0
ENDCHAR
STARTCHAR 06DD
ENCODING 1757
SWIDTH 1125 0
DWIDTH 18 0
BBX 18 17 0 -3
BITMAP
03F000
1C0E00
1FFE00
180600
200100
400080
800040
800040
800040
800040
800040
400080
200100
180600
1FFE00
1C0E00
03F000
ENDCHAR
STARTCHAR 06DE
ENCODING 1758
SWIDTH 1062 0
DWIDTH 17 0
BBX 17 17 0 -3
BITMAP
00C000
012000
3FFE00
241200
280A00
300600
60C300
A12280
A12280
60C300
200200
300600
280A00
241200
3FFE00
012000
00C000
ENDCHAR
STARTCHAR 06DF
ENCODING 1759
SWIDTH 0 0
DWIDTH 0 0
BBX 1 1 -1 9
BITMAP
80
ENDCHAR
STARTCHAR 06E0
ENCODING 1760
SWIDTH 0 0
DWIDTH 0 0
BBX 1 1 -1 9
BITMAP
80
ENDCHAR
STARTCHAR 06E1
ENCODING 1761
SWIDTH 0 0
DWIDTH 0 0
BBX 4 3 -2 9
BITMAP
40
20
F0
ENDCHAR
STARTCHAR 06E2
ENCODING 1762
SWIDTH 0 0
DWIDTH 0 0
BBX 2 4 -1 9
BITMAP
40
C0
80
80
ENDCHAR
STARTCHAR 06E3
ENCODING 1763
SWIDTH 0 0
DWIDTH 0 0
BBX 6 4 -3 -3
BITMAP
34
BC
A0
C0
ENDCHAR
STARTCHAR 06E4
ENCODING 1764
SWIDTH 0 0
DWIDTH 0 0
BBX 2 1 -1 9
BITMAP
C0
ENDCHAR
STARTCHAR 06E5
ENCODING 1765
SWIDTH 187 0
DWIDTH 3 0
BBX 2 4 1 9
BITMAP
C0
C0
40
80
ENDCHAR
STARTCHAR 06E6
ENCODING 1766
SWIDTH 375 0
DWIDTH 6 0
BBX 6 4 0 9
BITMAP
10
70
80
FC
ENDCHAR
STARTCHAR 06E7
ENCODING 1767
SWIDTH 0 0
DWIDTH 0 0
BBX 6 4 -3 9
BITMAP
10
70
80
FC
ENDCHAR
STARTCHAR 06E8
ENCODING 1768
SWIDTH 0 0
DWIDTH 0 0
BBX 4 5 -2 9
BITMAP
40
10
90
90
E0
ENDCHAR
STARTCHAR 06E9
ENCODING 1769
SWIDTH 625 0
DWIDTH 10 0
BBX 13 14 -2 0
BITMAP
0200
0D80
3260
4D90
B270
5DE0
1DC0
1DC0
1DC0
1FC0
38E0
2FA0
4010
FFF8
ENDCHAR
STARTCHAR 06EA
ENCODING 1770
SWIDTH 0 0
DWIDTH 0 0
BBX 3 3 -1 -3
BITMAP
40
A0
40
ENDCHAR
STARTCHAR 06EB
ENCODING 1771
SWIDTH 0 0
DWIDTH 0 0
BBX 3 3 -1 9
BITMAP
40
A0
40
ENDCHAR
STARTCHAR 06EC
ENCODING 1772
SWIDTH 0 0
DWIDTH 0 0
BBX 1 1 -1 9
BITMAP
80
ENDCHAR
STARTCHAR 06ED
ENCODING 1773
SWIDTH 0 0
DWIDTH 0 0
BBX 2 4 -1 -3
BITMAP
40
C0
80
80
ENDCHAR
STARTCHAR 06EE
ENCODING 1774
SWIDTH 312 0
DWIDTH 5 0
BBX 4 10 1 2
BITMAP
20
50
00
00
20
30
10
10
90
F0
ENDCHAR
STARTCHAR 06EF
ENCODING 1775
SWIDTH 500 0
DWIDTH 8 0
BBX 7 11 1 -1
BITMAP
08
14
00
04
02
02
02
02
04
88
70
ENDCHAR
STARTCHAR 06F0
ENCODING 1776
SWIDTH 500 0
DWIDTH 8 0
BBX 3 4 3 4
BITMAP
40
E0
E0
40
ENDCHAR
STARTCHAR 06F1
ENCODING 1777
SWIDTH 500 0
DWIDTH 8 0
BBX 2 9 4 2
BITMAP
80
80
80
80
40
40
40
40
40
ENDCHAR
STARTCHAR 06F2
ENCODING 1778
SWIDTH 500 0
DWIDTH 8 0
BBX 4 9 3 3
BITMAP
90
F0
80
80
40
20
20
20
20
ENDCHAR
STARTCHAR 06F3
ENCODING 1779
SWIDTH 500 0
DWIDTH 8 0
BBX 6 9 2 2
BITMAP
A4
FC
80
40
40
40
40
40
40
ENDCHAR
STARTCHAR 06F4
ENCODING 1780
SWIDTH 500 0
DWIDTH 8 0
BBX 6 9 2 2
BITMAP
98
A0
A4
F8
40
40
40
40
40
ENDCHAR
STARTCHAR 06F5
ENCODING 1781
SWIDTH 500 0
DWIDTH 8 0
BBX 6 8 1 3
BITMAP
10
28
48
84
84
84
94
78
ENDCHAR
STARTCHAR 06F6
ENCODING 1782
SWIDTH 500 0
DWIDTH 8 0
BBX 6 9 2 2
BITMAP
30
40
84
F8
10
20
20
40
40
ENDCHAR
STARTCHAR 06F7
ENCODING 1783
SWIDTH 500 0
DWIDTH 8 0
BBX 6 9 1 2
BITMAP
80
84
48
48
28
28
10
10
10
ENDCHAR
STARTCHAR 06F8
ENCODING 1784
SWIDTH 500 0
DWIDTH 8 0
BBX 7 9 1 2
BITMAP
10
10
10
28
28
48
44
84
82
ENDCHAR
STARTCHAR 06F9
ENCODING 1785
SWIDTH 500 0
DWIDTH 8 0
BBX 5 9 2 2
BITMAP
60
90
90
F0
10
10
10
10
08
ENDCHAR
STARTCHAR 06FA
ENCODING 1786
SWIDTH 812 0
DWIDTH 13 0
BBX 13 11 0 -1
BITMAP
0040
0060
0000
0250
0148
4148
8148
81F8
8100
8220
7C00
ENDCHAR
STARTCHAR 06FB
ENCODING 1787
SWIDTH 1125 0
DWIDTH 18 0
BBX 18 10 0 -1
BITMAP
000800
000000
010380
008440
408840
809040
80FFC0
808000
810400
7E0000
ENDCHAR
STARTCHAR 06FC
ENCODING 1788
SWIDTH 562 0
DWIDTH 9 0
BBX 7 13 0 -3
BITMAP
10
00
70
80
82
6C
30
40
80
88
80
40
3E
ENDCHAR
STARTCHAR 06FD
ENCODING 1789
SWIDTH 437 0
DWIDTH 7 0
BBX 5 8 1 -2
BITMAP
70
80
88
70
40
28
28
28
ENDCHAR
STARTCHAR 06FE
ENCODING 1790
SWIDTH 312 0
DWIDTH 5 0
BBX 5 8 0 -3
BITMAP
70
08
78
80
A8
A8
A8
80
ENDCHAR
STARTCHAR 06FF
ENCODING 1791
SWIDTH 437 0
DWIDTH 7 0
BBX 7 10 -1 2
BITMAP
10
28
00
00
10
38
4C
4A
72
CE
ENDCHAR
STARTCHAR 0750
ENCODING 1872
SWIDTH 687 0
DWIDTH 11 0
BBX 11 8 0 0
BITMAP
4040
8020
8020
8020
8020
7FE0
0000
0E00
ENDCHAR
STARTCHAR 0751
ENCODING 1873
SWIDTH 687 0
DWIDTH 11 0
BBX 11 11 0 0
BITMAP
0800
0C00
0000
4040
8020
8020
8020
8020
7FE0
0000
0800
ENDCHAR
STARTCHAR 0752
ENCODING 1874
SWIDTH 687 0
DWIDTH 11 0
BBX 11 9 0 -1
BITMAP
4040
8020
8020
8020
8020
7FE0
0000
0400
0600
ENDCHAR
STARTCHAR 0753
ENCODING 1875
SWIDTH 687 0
DWIDTH 11 0
BBX 11 11 0 -1
BITMAP
0400
0800
4040
8020
8020
8020
8020
7FE0
0000
0400
0600
ENDCHAR
STARTCHAR 0754
ENCODING 1876
SWIDTH 687 0
DWIDTH 11 0
BBX 11 12 0 -2
BITMAP
0400
0000
4040
8020
8020
8020
8020
7FE0
0000
0000
0400
0800
ENDCHAR
STARTCHAR 0755
ENCODING 1877
SWIDTH 687 0
DWIDTH 11 0
BBX 11 9 0 -1
BITMAP
4040
8020
8020
8020
8020
7FE0
0000
0400
0A00
ENDCHAR
STARTCHAR 0756
ENCODING 1878
SWIDTH 687 0
DWIDTH 11 0
BBX 11 9 0 2
BITMAP
0A00
0400
0000
4040
8020
8020
8020
8020
7FE0
ENDCHAR
STARTCHAR 0757
ENCODING 1879
SWIDTH 562 0
DWIDTH 9 0
BBX 8 13 0 -3
BITMAP
08
10
00
00
7F
18
20
C0
80
80
80
40
3E
ENDCHAR
STARTCHAR 0758
ENCODING 1880
SWIDTH 562 0
DWIDTH 9 0
BBX 8 9 0 -3
BITMAP
7F
18
20
C0
88
8C
80
40
3E
ENDCHAR
STARTCHAR 0759
ENCODING 1881
SWIDTH 312 0
DWIDTH 5 0
BBX 4 15 1 -1
BITMAP
60
40
70
50
F0
00
20
30
10
10
90
F0
00
40
20
ENDCHAR
STARTCHAR 075A
ENCODING 1882
SWIDTH 312 0
DWIDTH 5 0
BBX 4 9 1 -1
BITMAP
20
30
10
10
90
F0
00
20
50
ENDCHAR
STARTCHAR 075B
ENCODING 1883
SWIDTH 500 0
DWIDTH 8 0
BBX 7 8 1 -1
BITMAP
04
02
02
02
02
3E
8C
70
ENDCHAR
STARTCHAR 075C
ENCODING 1884
SWIDTH 812 0
DWIDTH 13 0
BBX 13 12 0 -1
BITMAP
0020
0060
0040
0000
0250
0148
4148
8148
81F8
8100
8200
7C00
ENDCHAR
STARTCHAR 075D
ENCODING 1885
SWIDTH 562 0
DWIDTH 9 0
BBX 7 14 0 -3
BITMAP
10
20
00
70
80
82
6C
30
40
80
80
80
40
3E
ENDCHAR
STARTCHAR 075E
ENCODING 1886
SWIDTH 562 0
DWIDTH 9 0
BBX 7 15 0 -3
BITMAP
20
60
00
00
70
80
82
6C
30
40
80
80
80
40
3E
ENDCHAR
STARTCHAR 075F
ENCODING 1887
SWIDTH 562 0
DWIDTH 9 0
BBX 7 15 0 -3
BITMAP
40
20
00
00
70
80
82
6C
30
40
80
80
80
40
3E
ENDCHAR
STARTCHAR 0760
ENCODING 1888
SWIDTH 812 0
DWIDTH 13 0
BBX 13 9 0 -1
BITMAP
4010
8028
8028
8028
4018
3FF8
0000
0008
0010
ENDCHAR
STARTCHAR 0761
ENCODING 1889
SWIDTH 812 0
DWIDTH 13 0
BBX 13 9 0 -1
BITMAP
4010
8028
8028
8028
4018
3FF8
0000
0010
0018
ENDCHAR
STARTCHAR 0762
ENCODING 1890
SWIDTH 812 0
DWIDTH 13 0
BBX 13 11 0 2
BITMAP
0040
0010
0060
0080
0100
0100
40C0
8020
8010
8008
7FF8
ENDCHAR
STARTCHAR 0763
ENCODING 1891
SWIDTH 812 0
DWIDTH 13 0
BBX 13 12 0 2
BITMAP
00C0
0080
0010
0060
0080
0100
0100
40C0
8020
8010
8008
7FF8
ENDCHAR
STARTCHAR 0764
ENCODING 1892
SWIDTH 812 0
DWIDTH 13 0
BBX 13 13 0 -1
BITMAP
0010
0060
0080
0100
0100
40C0
8020
8010
8008
7FF8
0000
0100
0180
ENDCHAR
STARTCHAR 0765
ENCODING 1893
SWIDTH 312 0
DWIDTH 5 0
BBX 5 10 0 -3
BITMAP
20
00
70
08
78
80
80
80
80
80
ENDCHAR
STARTCHAR 0766
ENCODING 1894
SWIDTH 312 0
DWIDTH 5 0
BBX 5 8 0 -3
BITMAP
70
08
78
80
90
80
80
80
ENDCHAR
STARTCHAR 0767
ENCODING 1895
SWIDTH 500 0
DWIDTH 8 0
BBX 7 12 1 -3
BITMAP
10
04
02
42
82
82
82
84
78
00
18
60
ENDCHAR
STARTCHAR 0768
ENCODING 1896
SWIDTH 500 0
DWIDTH 8 0
BBX 7 16 1 -1
BITMAP
30
20
38
28
78
00
00
10
04
02
42
82
82
82
84
78
ENDCHAR
STARTCHAR 0769
ENCODING 1897
SWIDTH 500 0
DWIDTH 8 0
BBX 7 12 1 -1
BITMAP
28
10
00
10
04
02
42
82
82
82
84
78
ENDCHAR
STARTCHAR 076A
ENCODING 1898
SWIDTH 500 0
DWIDTH 8 0
BBX 7 13 1 1
BITMAP
04
06
04
04
0E
04
22
42
82
82
82
82
7C
ENDCHAR
STARTCHAR 076B
ENCODING 1899
SWIDTH 500 0
DWIDTH 8 0
BBX 7 11 1 -1
BITMAP
08
04
00
04
02
02
02
02
04
88
70
ENDCHAR
STARTCHAR 076C
ENCODING 1900
SWIDTH 500 0
DWIDTH 8 0
BBX 7 12 1 -1
BITMAP
0C
10
0C
00
04
02
02
02
02
04
88
70
ENDCHAR
STARTCHAR 076D
ENCODING 1901
SWIDTH 812 0
DWIDTH 13 0
BBX 13 11 0 -1
BITMAP
0100
0080
0000
0250
0148
4148
8148
81F8
8100
8200
7C00
ENDCHAR
STARTCHAR 1D00
ENCODING 7424
SWIDTH 500 0
DWIDTH 8 0
BBX 8 7 0 0
BITMAP
08
18
24
24
3E
42
E7
ENDCHAR
STARTCHAR 1D01
ENCODING 7425
SWIDTH 625 0
DWIDTH 10 0
BBX 10 7 0 0
BITMAP
1FC0
0C40
1480
2780
3C00
4440
EFC0
ENDCHAR
STARTCHAR 1D02
ENCODING 7426
SWIDTH 687 0
DWIDTH 11 0
BBX 10 7 1 0
BITMAP
7380
8C40
0880
0F00
F840
8840
7780
ENDCHAR
STARTCHAR 1D03
ENCODING 7427
SWIDTH 437 0
DWIDTH 7 0
BBX 7 7 0 0
BITMAP
FC
42
42
FE
42
42
FC
ENDCHAR
STARTCHAR 1D04
ENCODING 7428
SWIDTH 500 0
DWIDTH 8 0
BBX 7 7 1 0
BITMAP
3A
46
82
80
80
42
3C
ENDCHAR
STARTCHAR 1D05
ENCODING 7429
SWIDTH 500 0
DWIDTH 8 0
BBX 7 7 0 0
BITMAP
F8
44
42
42
42
44
F8
ENDCHAR
STARTCHAR 1D06
ENCODING 7430
SWIDTH 500 0
DWIDTH 8 0
BBX 7 7 0 0
BITMAP
F8
44
42
F2
42
44
F8
ENDCHAR
STARTCHAR 1D07
ENCODING 7431
SWIDTH 437 0
DWIDTH 7 0
BBX 7 7 0 0
BITMAP
FC
44
48
78
40
42
FC
ENDCHAR
STARTCHAR 1D08
ENCODING 7432
SWIDTH 375 0
DWIDTH 6 0
BBX 5 7 0 0
BITMAP
F0
88
88
30
08
88
70
ENDCHAR
STARTCHAR 1D09
ENCODING 7433
SWIDTH 250 0
DWIDTH 4 0
BBX 3 10 0 -3
BITMAP
E0
40
40
40
40
60
40
00
00
40
ENDCHAR
STARTCHAR 1D0A
ENCODING 7434
SWIDTH 312 0
DWIDTH 5 0
BBX 4 7 0 0
BITMAP
70
20
20
20
20
20
C0
ENDCHAR
STARTCHAR 1D0B
ENCODING 7435
SWIDTH 562 0
DWIDTH 9 0
BBX 8 7 0 0
BITMAP
EE
44
48
70
58
44
EF
ENDCHAR
STARTCHAR 1D0C
ENCODING 7436
SWIDTH 437 0
DWIDTH 7 0
BBX 7 7 0 0
BITMAP
E0
40
40
E0
40
42
FE
ENDCHAR
STARTCHAR 1D0D
ENCODING 7437
SWIDTH 625 0
DWIDTH 10 0
BBX 9 7 1 0
BITMAP
E380
6300
5500
5500
5500
4900
EB80
ENDCHAR
STARTCHAR 1D0E
ENCODING 7438
SWIDTH 562 0
DWIDTH 9 0
BBX 7 7 1 0
BITMAP
EE
44
4C
54
64
44
EE
ENDCHAR
STARTCHAR 1D0F
ENCODING 7439
SWIDTH 500 0
DWIDTH 8 0
BBX 6 7 1 0
BITMAP
30
48
84
84
84
48
30
ENDCHAR
STARTCHAR 1D10
ENCODING 7440
SWIDTH 500 0
DWIDTH 8 0
BBX 7 7 0 0
BITMAP
B8
C4
82
02
02
84
78
ENDCHAR
STARTCHAR 1D11
ENCODING 7441
SWIDTH 562 0
DWIDTH 9 0
BBX 7 7 1 0
BITMAP
38
44
82
82
82
44
38
ENDCHAR
STARTCHAR 1D12
ENCODING 7442
SWIDTH 562 0
DWIDTH 9 0
BBX 7 7 1 0
BITMAP
38
44
82
82
82
84
4E
ENDCHAR
STARTCHAR 1D13
ENCODING 7443
SWIDTH 562 0
DWIDTH 9 0
BBX 7 7 1 0
BITMAP
B8
C4
A2
92
8A
44
3A
ENDCHAR
STARTCHAR 1D14
ENCODING 7444
SWIDTH 750 0
DWIDTH 12 0
BBX 10 7 1 0
BITMAP
7700
9880
0840
0840
F840
8C80
7300
ENDCHAR
STARTCHAR 1D15
ENCODING 7445
SWIDTH 437 0
DWIDTH 7 0
BBX 5 7 1 0
BITMAP
88
70
88
88
88
C8
70
ENDCHAR
STARTCHAR 1D16
ENCODING 7446
SWIDTH 500 0
DWIDTH 8 0
BBX 6 4 1 3
BITMAP
30
48
84
84
ENDCHAR
STARTCHAR 1D17
ENCODING 7447
SWIDTH 500 0
DWIDTH 8 0
BBX 6 4 1 0
BITMAP
84
84
48
30
ENDCHAR
STARTCHAR 1D18
ENCODING 7448
SWIDTH 437 0
DWIDTH 7 0
BBX 6 7 0 0
BITMAP
F8
44
44
78
40
40
E0
ENDCHAR
STARTCHAR 1D19
ENCODING 7449
SWIDTH 437 0
DWIDTH 7 0
BBX 7 7 0 0
BITMAP
3E
44
44
3C
24
44
CE
ENDCHAR
STARTCHAR 1D1A
ENCODING 7450
SWIDTH 437 0
DWIDTH 7 0
BBX 7 7 0 0
BITMAP
8E
64
14
1C
64
44
3E
ENDCHAR
STARTCHAR 1D1B
ENCODING 7451
SWIDTH 437 0
DWIDTH 7 0
BBX 7 7 0 0
BITMAP
FE
92
10
10
10
10
38
ENDCHAR
STARTCHAR 1D1C
ENCODING 7452
SWIDTH 562 0
DWIDTH 9 0
BBX 8 7 0 0
BITMAP
E7
42
42
42
42
42
3C
ENDCHAR
STARTCHAR 1D1D
ENCODING 7453
SWIDTH 500 0
DWIDTH 8 0
BBX 7 7 0 0
BITMAP
04
FE
84
02
02
FE
80
ENDCHAR
STARTCHAR 1D1E
ENCODING 7454
SWIDTH 625 0
DWIDTH 10 0
BBX 8 7 1 0
BITMAP
02
3F
A2
01
81
3F
20
ENDCHAR
STARTCHAR 1D1F
ENCODING 7455
SWIDTH 500 0
DWIDTH 8 0
BBX 7 11 0 -3
BITMAP
84
FE
84
02
82
FC
84
02
82
FC
80
ENDCHAR
STARTCHAR 1D20
ENCODING 7456
SWIDTH 437 0
DWIDTH 7 0
BBX 7 7 0 0
BITMAP
EE
44
44
28
28
28
10
ENDCHAR
STARTCHAR 1D21
ENCODING 7457
SWIDTH 687 0
DWIDTH 11 0
BBX 11 7 0 0
BITMAP
EEE0
4440
4440
2A80
2A80
3300
1100
ENDCHAR
STARTCHAR 1D22
ENCODING 7458
SWIDTH 375 0
DWIDTH 6 0
BBX 6 7 0 0
BITMAP
7C
48
10
20
20
44
FC
ENDCHAR
STARTCHAR 1D23
ENCODING 7459
SWIDTH 375 0
DWIDTH 6 0
BBX 5 7 0 0
BITMAP
F8
90
20
30
08
88
70
ENDCHAR
STARTCHAR 1D24
ENCODING 7460
SWIDTH 375 0
DWIDTH 6 0
BBX 4 7 1 0
BITMAP
E0
90
10
E0
80
90
70
ENDCHAR
STARTCHAR 1D25
ENCODING 7461
SWIDTH 562 0
DWIDTH 9 0
BBX 9 7 0 0
BITMAP
1C00
3E00
3E00
1C00
0800
9C80
F780
ENDCHAR
STARTCHAR 1D26
ENCODING 7462
SWIDTH 375 0
DWIDTH 6 0
BBX 6 7 0 0
BITMAP
F8
44
40
40
40
40
E0
ENDCHAR
STARTCHAR 1D27
ENCODING 7463
SWIDTH 500 0
DWIDTH 8 0
BBX 8 7 0 0
BITMAP
10
18
28
24
44
42
E7
ENDCHAR
STARTCHAR 1D28
ENCODING 7464
SWIDTH 562 0
DWIDTH 9 0
BBX 7 7 1 0
BITMAP
FE
44
44
44
44
44
EE
ENDCHAR
STARTCHAR 1D29
ENCODING 7465
SWIDTH 437 0
DWIDTH 7 0
BBX 6 7 0 0
BITMAP
F8
44
44
78
40
40
E0
ENDCHAR
STARTCHAR 1D2A
ENCODING 7466
SWIDTH 500 0
DWIDTH 8 0
BBX 9 7 0 0
BITMAP
DD80
4900
4900
4900
3E00
0800
1C00
ENDCHAR
STARTCHAR 1D2B
ENCODING 7467
SWIDTH 500 0
DWIDTH 8 0
BBX 7 7 0 0
BITMAP
7E
24
24
24
24
A4
CE
ENDCHAR
STARTCHAR 1D2C
ENCODING 7468
SWIDTH 437 0
DWIDTH 7 0
BBX 8 7 -1 4
BITMAP
08
18
14
24
3C
42
E7
ENDCHAR
STARTCHAR 1D2D
ENCODING 7469
SWIDTH 562 0
DWIDTH 9 0
BBX 8 7 0 4
BITMAP
3F
19
2A
2E
78
49
EF
ENDCHAR
STARTCHAR 1D2E
ENCODING 7470
SWIDTH 375 0
DWIDTH 6 0
BBX 6 7 0 4
BITMAP
F8
44
44
78
44
44
F8
ENDCHAR
STARTCHAR 1D2F
ENCODING 7471
SWIDTH 375 0
DWIDTH 6 0
BBX 6 7 0 4
BITMAP
F8
44
44
FC
44
44
F8
ENDCHAR
STARTCHAR 1D30
ENCODING 7472
SWIDTH 437 0
DWIDTH 7 0
BBX 7 7 0 4
BITMAP
F8
44
42
42
42
44
F8
ENDCHAR
STARTCHAR 1D31
ENCODING 7473
SWIDTH 375 0
DWIDTH 6 0
BBX 6 7 0 4
BITMAP
FC
44
48
78
40
44
FC
ENDCHAR
STARTCHAR 1D32
ENCODING 7474
SWIDTH 375 0
DWIDTH 6 0
BBX 6 7 0 4
BITMAP
FC
88
48
78
08
88
FC
ENDCHAR
STARTCHAR 1D33
ENCODING 7475
SWIDTH 437 0
DWIDTH 7 0
BBX 7 7 0 4
BITMAP
3C
44
80
8E
84
44
3C
ENDCHAR
STARTCHAR 1D34
ENCODING 7476
SWIDTH 437 0
DWIDTH 7 0
BBX 7 7 0 4
BITMAP
EE
44
44
7C
44
44
EE
ENDCHAR
STARTCHAR 1D35
ENCODING 7477
SWIDTH 187 0
DWIDTH 3 0
BBX 3 7 0 4
BITMAP
E0
40
40
40
40
40
E0
ENDCHAR
STARTCHAR 1D36
ENCODING 7478
SWIDTH 250 0
DWIDTH 4 0
BBX 4 7 0 4
BITMAP
70
20
20
20
20
20
C0
ENDCHAR
STARTCHAR 1D37
ENCODING 7479
SWIDTH 437 0
DWIDTH 7 0
BBX 7 7 0 4
BITMAP
FC
48
50
60
50
4C
EE
ENDCHAR
STARTCHAR 1D38
ENCODING 7480
SWIDTH 375 0
DWIDTH 6 0
BBX 6 7 0 4
BITMAP
E0
40
40
40
40
44
FC
ENDCHAR
STARTCHAR 1D39
ENCODING 7481
SWIDTH 562 0
DWIDTH 9 0
BBX 9 7 0 4
BITMAP
E380
6300
5500
5500
5500
4900
EB80
ENDCHAR
STARTCHAR 1D3A
ENCODING 7482
SWIDTH 437 0
DWIDTH 7 0
BBX 8 7 0 4
BITMAP
C7
62
62
52
4A
46
E2
ENDCHAR
STARTCHAR 1D3B
ENCODING 7483
SWIDTH 437 0
DWIDTH 7 0
BBX 7 7 0 4
BITMAP
EE
44
4C
54
64
44
EE
ENDCHAR
STARTCHAR 1D3C
ENCODING 7484
SWIDTH 437 0
DWIDTH 7 0
BBX 6 7 0 4
BITMAP
30
48
84
84
84
48
30
ENDCHAR
STARTCHAR 1D3D
ENCODING 7485
SWIDTH 312 0
DWIDTH 5 0
BBX 5 7 0 4
BITMAP
88
70
88
88
88
88
70
ENDCHAR
STARTCHAR 1D3E
ENCODING 7486
SWIDTH 312 0
DWIDTH 5 0
BBX 5 7 0 4
BITMAP
F0
48
48
70
40
40
E0
ENDCHAR
STARTCHAR 1D3F
ENCODING 7487
SWIDTH 437 0
DWIDTH 7 0
BBX 6 7 0 4
BITMAP
F0
48
48
70
50
48
E4
ENDCHAR
STARTCHAR 1D40
ENCODING 7488
SWIDTH 375 0
DWIDTH 6 0
BBX 5 7 0 4
BITMAP
F8
A8
20
20
20
20
70
ENDCHAR
STARTCHAR 1D41
ENCODING 7489
SWIDTH 437 0
DWIDTH 7 0
BBX 8 7 0 4
BITMAP
E7
42
42
42
42
42
3C
ENDCHAR
STARTCHAR 1D42
ENCODING 7490
SWIDTH 562 0
DWIDTH 9 0
BBX 9 7 0 4
BITMAP
F980
5100
4900
2A00
3600
2400
2400
ENDCHAR
STARTCHAR 1D43
ENCODING 7491
SWIDTH 250 0
DWIDTH 4 0
BBX 5 4 0 4
BITMAP
F0
90
70
F8
ENDCHAR
STARTCHAR 1D44
ENCODING 7492
SWIDTH 250 0
DWIDTH 4 0
BBX 5 4 0 4
BITMAP
F8
70
48
78
ENDCHAR
STARTCHAR 1D45
ENCODING 7493
SWIDTH 312 0
DWIDTH 5 0
BBX 6 4 0 4
BITMAP
70
90
94
7C
ENDCHAR
STARTCHAR 1D46
ENCODING 7494
SWIDTH 375 0
DWIDTH 6 0
BBX 7 4 0 4
BITMAP
EE
1C
F2
7E
ENDCHAR
STARTCHAR 1D47
ENCODING 7495
SWIDTH 312 0
DWIDTH 5 0
BBX 5 7 0 4
BITMAP
40
C0
40
78
48
48
70
ENDCHAR
STARTCHAR 1D48
ENCODING 7496
SWIDTH 312 0
DWIDTH 5 0
BBX 5 7 0 4
BITMAP
10
30
10
70
90
98
70
ENDCHAR
STARTCHAR 1D49
ENCODING 7497
SWIDTH 250 0
DWIDTH 4 0
BBX 4 4 0 4
BITMAP
60
F0
80
70
ENDCHAR
STARTCHAR 1D4A
ENCODING 7498
SWIDTH 250 0
DWIDTH 4 0
BBX 4 4 0 4
BITMAP
E0
10
F0
60
ENDCHAR
STARTCHAR 1D4B
ENCODING 7499
SWIDTH 250 0
DWIDTH 4 0
BBX 4 4 0 4
BITMAP
F0
80
60
F0
ENDCHAR
STARTCHAR 1D4C
ENCODING 7500
SWIDTH 250 0
DWIDTH 4 0
BBX 4 4 0 4
BITMAP
F0
10
60
F0
ENDCHAR
STARTCHAR 1D4D
ENCODING 7501
SWIDTH 312 0
DWIDTH 5 0
BBX 5 7 0 1
BITMAP
F8
F0
80
F8
88
88
70
ENDCHAR
STARTCHAR 1D4E
ENCODING 7502
SWIDTH 187 0
DWIDTH 3 0
BBX 3 6 0 2
BITMAP
E0
40
60
40
00
40
ENDCHAR
STARTCHAR 1D4F
ENCODING 7503
SWIDTH 312 0
DWIDTH 5 0
BBX 5 7 0 4
BITMAP
40
C0
40
50
60
50
F8
ENDCHAR
STARTCHAR 1D50
ENCODING 7504
SWIDTH 500 0
DWIDTH 8 0
BBX 9 4 0 4
BITMAP
7F00
C900
4900
FF80
ENDCHAR
STARTCHAR 1D51
ENCODING 7505
SWIDTH 312 0
DWIDTH 5 0
BBX 5 6 0 2
BITMAP
78
C8
48
E8
08
30
ENDCHAR
STARTCHAR 1D52
ENCODING 7506
SWIDTH 312 0
DWIDTH 5 0
BBX 4 4 0 4
BITMAP
60
90
90
60
ENDCHAR
STARTCHAR 1D53
ENCODING 7507
SWIDTH 250 0
DWIDTH 4 0
BBX 4 4 0 4
BITMAP
60
10
10
E0
ENDCHAR
STARTCHAR 1D54
ENCODING 7508
SWIDTH 312 0
DWIDTH 5 0
BBX 4 3 0 5
BITMAP
60
90
90
ENDCHAR
STARTCHAR 1D55
ENCODING 7509
SWIDTH 312 0
DWIDTH 5 0
BBX 4 3 0 4
BITMAP
90
90
60
ENDCHAR
STARTCHAR 1D56
ENCODING 7510
SWIDTH 312 0
DWIDTH 5 0
BBX 5 6 0 2
BITMAP
78
C8
48
70
40
E0
ENDCHAR
STARTCHAR 1D57
ENCODING 7511
SWIDTH 187 0
DWIDTH 3 0
BBX 4 5 0 4
BITMAP
40
E0
40
40
70
ENDCHAR
STARTCHAR 1D58
ENCODING 7512
SWIDTH 312 0
DWIDTH 5 0
BBX 6 4 0 4
BITMAP
D8
48
4C
78
ENDCHAR
STARTCHAR 1D59
ENCODING 7513
SWIDTH 312 0
DWIDTH 5 0
BBX 6 6 -1 4
BITMAP
08
FC
84
04
FC
80
ENDCHAR
STARTCHAR 1D5A
ENCODING 7514
SWIDTH 500 0
DWIDTH 8 0
BBX 9 4 -1 4
BITMAP
FF80
4900
4980
7F00
ENDCHAR
STARTCHAR 1D5B
ENCODING 7515
SWIDTH 312 0
DWIDTH 5 0
BBX 6 4 0 4
BITMAP
DC
48
30
10
ENDCHAR
STARTCHAR 1D5C
ENCODING 7516
SWIDTH 312 0
DWIDTH 5 0
BBX 5 4 0 4
BITMAP
70
70
20
D8
ENDCHAR
STARTCHAR 1D5D
ENCODING 7517
SWIDTH 312 0
DWIDTH 5 0
BBX 4 9 0 2
BITMAP
60
90
90
A0
90
90
E0
80
80
ENDCHAR
STARTCHAR 1D5E
ENCODING 7518
SWIDTH 250 0
DWIDTH 4 0
BBX 6 6 -2 2
BITMAP
C4
A8
28
10
10
10
ENDCHAR
STARTCHAR 1D5F
ENCODING 7519
SWIDTH 250 0
DWIDTH 4 0
BBX 4 7 0 4
BITMAP
70
40
20
70
90
90
60
ENDCHAR
STARTCHAR 1D60
ENCODING 7520
SWIDTH 312 0
DWIDTH 5 0
BBX 5 6 0 2
BITMAP
B0
A8
A8
70
20
20
ENDCHAR
STARTCHAR 1D61
ENCODING 7521
SWIDTH 312 0
DWIDTH 5 0
BBX 4 6 0 2
BITMAP
D0
A0
20
40
50
B0
ENDCHAR
STARTCHAR 1D62
ENCODING 7522
SWIDTH 187 0
DWIDTH 3 0
BBX 3 6 0 -1
BITMAP
40
00
C0
40
40
E0
ENDCHAR
STARTCHAR 1D63
ENCODING 7523
SWIDTH 250 0
DWIDTH 4 0
BBX 3 4 1 -1
BITMAP
E0
80
80
80
ENDCHAR
STARTCHAR 1D64
ENCODING 7524
SWIDTH 312 0
DWIDTH 5 0
BBX 6 4 0 -1
BITMAP
D8
48
4C
78
ENDCHAR
STARTCHAR 1D65
ENCODING 7525
SWIDTH 312 0
DWIDTH 5 0
BBX 6 4 0 -1
BITMAP
DC
48
30
10
ENDCHAR
STARTCHAR 1D66
ENCODING 7526
SWIDTH 312 0
DWIDTH 5 0
BBX 4 8 0 -3
BITMAP
E0
90
90
A0
90
90
E0
80
ENDCHAR
STARTCHAR 1D67
ENCODING 7527
SWIDTH 250 0
DWIDTH 4 0
BBX 6 6 -2 -3
BITMAP
C4
A8
28
10
10
10
ENDCHAR
STARTCHAR 1D68
ENCODING 7528
SWIDTH 312 0
DWIDTH 5 0
BBX 4 8 0 -4
BITMAP
60
90
90
90
90
E0
80
70
ENDCHAR
STARTCHAR 1D69
ENCODING 7529
SWIDTH 312 0
DWIDTH 5 0
BBX 5 6 0 -3
BITMAP
B0
A8
A8
A8
70
20
ENDCHAR
STARTCHAR 1D6A
ENCODING 7530
SWIDTH 312 0
DWIDTH 5 0
BBX 4 6 0 -3
BITMAP
D0
A0
20
40
50
B0
ENDCHAR
STARTCHAR 1D6B
ENCODING 7531
SWIDTH 750 0
DWIDTH 12 0
BBX 10 7 0 0
BITMAP
CF80
4440
47C0
4400
4400
4A40
3180
ENDCHAR
STARTCHAR 1D6C
ENCODING 7532
SWIDTH 500 0
DWIDTH 8 0
BBX 9 11 -2 0
BITMAP
1000
3000
7200
9C00
1600
1900
1080
1080
1080
1100
0E00
ENDCHAR
STARTCHAR 1D6D
ENCODING 7533
SWIDTH 500 0
DWIDTH 8 0
BBX 9 11 1 0
BITMAP
0400
0C00
1C80
2700
3C00
4400
8400
8400
8400
4600
3C00
ENDCHAR
STARTCHAR 1D6E
ENCODING 7534
SWIDTH 312 0
DWIDTH 5 0
BBX 7 11 -1 0
BITMAP
0C
12
10
10
3C
10
72
9C
10
10
3C
ENDCHAR
STARTCHAR 1D6F
ENCODING 7535
SWIDTH 750 0
DWIDTH 12 0
BBX 13 7 0 0
BITMAP
2CC0
7320
2220
7E28
A3F0
2220
7770
ENDCHAR
STARTCHAR 1D70
ENCODING 7536
SWIDTH 500 0
DWIDTH 8 0
BBX 10 7 -1 0
BITMAP
2E00
7100
2100
7940
A780
2100
7780
ENDCHAR
STARTCHAR 1D71
ENCODING 7537
SWIDTH 500 0
DWIDTH 8 0
BBX 9 10 -2 -3
BITMAP
1600
3900
1080
1080
1080
1100
1E00
7200
9C00
3800
ENDCHAR
STARTCHAR 1D72
ENCODING 7538
SWIDTH 312 0
DWIDTH 5 0
BBX 7 7 -2 0
BITMAP
16
3A
10
72
9C
10
38
ENDCHAR
STARTCHAR 1D73
ENCODING 7539
SWIDTH 312 0
DWIDTH 5 0
BBX 7 7 -2 0
BITMAP
0C
12
10
72
9C
10
38
ENDCHAR
STARTCHAR 1D74
ENCODING 7540
SWIDTH 375 0
DWIDTH 6 0
BBX 6 7 0 0
BITMAP
78
48
64
98
08
48
70
ENDCHAR
STARTCHAR 1D75
ENCODING 7541
SWIDTH 250 0
DWIDTH 4 0
BBX 7 9 -2 0
BITMAP
10
10
3C
10
72
9C
10
12
1C
ENDCHAR
STARTCHAR 1D76
ENCODING 7542
SWIDTH 437 0
DWIDTH 7 0
BBX 9 7 -1 0
BITMAP
7F00
0200
7480
8F00
1000
2100
7F00
ENDCHAR
STARTCHAR 1D77
ENCODING 7543
SWIDTH 500 0
DWIDTH 8 0
BBX 8 10 0 -3
BITMAP
3E
C1
82
7E
02
3C
42
42
42
FC
ENDCHAR
STARTCHAR 1D78
ENCODING 7544
SWIDTH 312 0
DWIDTH 5 0
BBX 6 4 0 4
BITMAP
DC
78
48
EC
ENDCHAR
STARTCHAR 1D79
ENCODING 7545
SWIDTH 500 0
DWIDTH 8 0
BBX 6 10 1 -3
BITMAP
FC
88
10
18
38
44
84
84
84
78
ENDCHAR
STARTCHAR 1D7A
ENCODING 7546
SWIDTH 750 0
DWIDTH 12 0
BBX 11 11 1 0
BITMAP
0400
0C00
0480
4500
F780
4640
4C40
5440
6440
5440
EEE0
ENDCHAR
STARTCHAR 1D7B
ENCODING 7547
SWIDTH 250 0
DWIDTH 4 0
BBX 3 7 1 0
BITMAP
E0
40
40
E0
40
40
E0
ENDCHAR
STARTCHAR 1D7C
ENCODING 7548
SWIDTH 250 0
DWIDTH 4 0
BBX 4 7 1 0
BITMAP
40
C0
40
E0
40
50
70
ENDCHAR
STARTCHAR 1D7D
ENCODING 7549
SWIDTH 500 0
DWIDTH 8 0
BBX 8 10 0 -3
BITMAP
58
E4
42
FF
42
44
78
40
40
E0
ENDCHAR
STARTCHAR 1D7E
ENCODING 7550
SWIDTH 562 0
DWIDTH 9 0
BBX 9 7 0 0
BITMAP
E380
4100
4100
FF80
4100
4100
3E00
ENDCHAR
STARTCHAR 1D7F
ENCODING 7551
SWIDTH 562 0
DWIDTH 9 0
BBX 9 7 0 0
BITMAP
F780
9480
3600
4100
FF80
4100
3E00
ENDCHAR
STARTCHAR 1D80
ENCODING 7552
SWIDTH 500 0
DWIDTH 8 0
BBX 7 14 0 -3
BITMAP
40
C0
40
40
5C
62
42
42
42
46
3A
02
0A
0C
ENDCHAR
STARTCHAR 1D81
ENCODING 7553
SWIDTH 500 0
DWIDTH 8 0
BBX 7 14 1 -3
BITMAP
04
0C
04
04
3C
44
84
84
84
46
3E
02
0A
0C
ENDCHAR
STARTCHAR 1D82
ENCODING 7554
SWIDTH 312 0
DWIDTH 5 0
BBX 5 14 1 -3
BITMAP
38
48
40
40
F0
40
40
40
40
40
F0
10
50
60
ENDCHAR
STARTCHAR 1D83
ENCODING 7555
SWIDTH 625 0
DWIDTH 10 0
BBX 10 10 0 -3
BITMAP
3F00
4200
43C0
4240
3D40
4180
7E00
8100
8300
7C00
ENDCHAR
STARTCHAR 1D84
ENCODING 7556
SWIDTH 500 0
DWIDTH 8 0
BBX 8 14 0 -3
BITMAP
40
C0
40
40
4E
48
50
70
48
44
E7
01
05
06
ENDCHAR
STARTCHAR 1D85
ENCODING 7557
SWIDTH 250 0
DWIDTH 4 0
BBX 3 14 1 -3
BITMAP
40
C0
40
40
40
40
40
40
40
40
E0
20
A0
C0
ENDCHAR
STARTCHAR 1D86
ENCODING 7558
SWIDTH 750 0
DWIDTH 12 0
BBX 11 10 1 -3
BITMAP
5980
E640
4440
4440
4440
4440
EEE0
0020
00A0
00C0
ENDCHAR
STARTCHAR 1D87
ENCODING 7559
SWIDTH 500 0
DWIDTH 8 0
BBX 7 10 0 -3
BITMAP
58
E4
44
44
44
44
EE
02
0A
0C
ENDCHAR
STARTCHAR 1D88
ENCODING 7560
SWIDTH 500 0
DWIDTH 8 0
BBX 7 10 0 -3
BITMAP
5C
E4
42
42
42
46
7A
42
4A
EC
ENDCHAR
STARTCHAR 1D89
ENCODING 7561
SWIDTH 312 0
DWIDTH 5 0
BBX 5 10 0 -3
BITMAP
58
E8
40
40
40
40
E0
20
A0
C0
ENDCHAR
STARTCHAR 1D8A
ENCODING 7562
SWIDTH 375 0
DWIDTH 6 0
BBX 4 10 1 -3
BITMAP
70
90
80
60
10
90
F0
10
50
70
ENDCHAR
STARTCHAR 1D8B
ENCODING 7563
SWIDTH 437 0
DWIDTH 7 0
BBX 8 14 -1 -3
BITMAP
0E
12
10
10
10
10
10
10
10
1F
11
15
96
E0
ENDCHAR
STARTCHAR 1D8C
ENCODING 7564
SWIDTH 500 0
DWIDTH 8 0
BBX 8 10 0 -3
BITMAP
E7
42
24
14
14
08
06
02
0A
0C
ENDCHAR
STARTCHAR 1D8D
ENCODING 7565
SWIDTH 500 0
DWIDTH 8 0
BBX 8 10 0 -3
BITMAP
EE
44
28
18
24
42
E7
01
05
06
ENDCHAR
STARTCHAR 1D8E
ENCODING 7566
SWIDTH 437 0
DWIDTH 7 0
BBX 6 10 0 -3
BITMAP
FC
88
10
20
20
44
FC
04
14
1C
ENDCHAR
STARTCHAR 1D8F
ENCODING 7567
SWIDTH 437 0
DWIDTH 7 0
BBX 8 10 1 -3
BITMAP
70
88
88
38
C8
88
FC
04
05
03
ENDCHAR
STARTCHAR 1D90
ENCODING 7568
SWIDTH 500 0
DWIDTH 8 0
BBX 9 10 1 -3
BITMAP
3800
4800
8800
8800
8800
8A00
7E00
0200
0280
0180
ENDCHAR
STARTCHAR 1D91
ENCODING 7569
SWIDTH 500 0
DWIDTH 8 0
BBX 10 14 1 -3
BITMAP
0380
0440
0400
0400
3C00
4400
8400
8400
8400
4400
3C00
0400
0400
0380
ENDCHAR
ENDFONT
